<?xml version="1.0" encoding="iso-8859-1"?>
<!-- Generator: Adobe Illustrator 19.0.0, SVG Export Plug-In . SVG Version: 6.00 Build 0)  -->
<svg version="1.1" id="Capa_1" xmlns="http://www.w3.org/2000/svg" xmlns:xlink="http://www.w3.org/1999/xlink" x="0px" y="0px"
	 viewBox="0 0 512 512" style="enable-background:new 0 0 512 512;" xml:space="preserve">
<path style="fill:#303C42;" d="M256,0C114.844,0,0,114.833,0,256s114.844,256,256,256s256-114.833,256-256S397.156,0,256,0z"/>
<path style="fill:#E53A35;" d="M256,490.667C126.604,490.667,21.333,385.396,21.333,256S126.604,21.333,256,21.333
	c36.206,0,70.385,8.483,101.036,23.189c-0.646,0.411-1.348,0.706-1.911,1.27l-13.792,13.792l-13.792-13.792
	c-4.167-4.167-10.917-4.167-15.083,0s-4.167,10.917,0,15.083l21.333,21.333c2.083,2.083,4.813,3.125,7.542,3.125
	s5.458-1.042,7.542-3.125l21.333-21.333c2.156-2.156,3.146-5,3.07-7.824C443.331,93.695,490.667,169.345,490.667,256
	C490.667,385.396,385.396,490.667,256,490.667z"/>
<path style="opacity:0.1;fill:#010101;enable-background:new    ;" d="M407.928,78.168C442.672,119.034,464,171.599,464,229.333
	C464,358.729,358.729,464,229.333,464c-57.922,0-110.913-21.202-151.888-56.112c43.077,50.563,107.081,82.779,178.555,82.779
	c129.396,0,234.667-105.271,234.667-234.667C490.667,184.699,458.307,121.198,407.928,78.168z"/>
<path style="fill:#303C42;" d="M128,234.667c0,23.521,19.135,42.667,42.667,42.667s42.667-19.146,42.667-42.667
	c0-0.898-0.211-1.738-0.266-2.622l6.161,3.081c1.531,0.771,3.156,1.125,4.76,1.125c3.917,0,7.677-2.167,9.552-5.896
	c2.635-5.271,0.5-11.667-4.771-14.313l-85.333-42.667c-5.26-2.646-11.677-0.479-14.313,4.771c-2.635,5.271-0.5,11.667,4.771,14.313
	l13.289,6.645C135.645,206.749,128,219.82,128,234.667z"/>
<circle style="fill:#BDDDF4;" cx="170.667" cy="234.667" r="21.333"/>
<path style="opacity:0.1;fill:#010101;enable-background:new    ;" d="M179.379,215.294c1.207,2.672,1.954,5.586,1.954,8.706
	c0,11.771-9.573,21.333-21.333,21.333c-3.121,0-6.038-0.751-8.712-1.961c3.348,7.411,10.734,12.628,19.379,12.628
	c11.76,0,21.333-9.563,21.333-21.333C192,226.02,186.783,218.643,179.379,215.294z"/>
<path style="fill:#303C42;" d="M364.815,199.103l13.289-6.645c5.271-2.646,7.406-9.042,4.771-14.313
	c-2.646-5.25-9.063-7.417-14.313-4.771l-85.333,42.667c-5.271,2.646-7.406,9.042-4.771,14.313c1.875,3.729,5.635,5.896,9.552,5.896
	c1.604,0,3.229-0.354,4.76-1.125l6.161-3.081c-0.055,0.884-0.266,1.724-0.266,2.622c0,23.521,19.135,42.667,42.667,42.667
	S384,258.188,384,234.667C384,219.82,376.355,206.749,364.815,199.103z"/>
<circle style="fill:#BDDDF4;" cx="341.333" cy="234.667" r="21.333"/>
<g>
	<path style="fill:#303C42;" d="M256,320c-0.021,0-0.042,0-0.063,0c-89.594,0-124.365,45.021-125.802,46.938
		c-3.521,4.688-2.573,11.313,2.094,14.854c4.677,3.542,11.354,2.646,14.927-2c1.208-1.563,30.594-38.458,108.781-38.458
		c0.021,0,0.042,0,0.063,0c78.229,0.021,107.635,36.896,108.802,38.396c2.094,2.792,5.302,4.271,8.542,4.271
		c2.229,0,4.469-0.688,6.396-2.125c4.708-3.542,5.656-10.229,2.125-14.938C380.427,365.021,345.635,320.021,256,320z"/>
	<path style="fill:#303C42;" d="M312.458,167.542c4.167,4.167,10.917,4.167,15.083,0l13.792-13.792l13.792,13.792
		c2.083,2.083,4.813,3.125,7.542,3.125c2.729,0,5.458-1.042,7.542-3.125c4.167-4.167,4.167-10.917,0-15.083l-21.333-21.333
		c-4.167-4.167-10.917-4.167-15.083,0l-21.333,21.333C308.292,156.625,308.292,163.375,312.458,167.542z"/>
	<path style="fill:#303C42;" d="M280.458,135.542c2.083,2.083,4.813,3.125,7.542,3.125c2.729,0,5.458-1.042,7.542-3.125
		l21.333-21.333c4.167-4.167,4.167-10.917,0-15.083l-21.333-21.333c-4.167-4.167-10.917-4.167-15.083,0
		c-4.167,4.167-4.167,10.917,0,15.083l13.792,13.792l-13.792,13.792C276.292,124.625,276.292,131.375,280.458,135.542z"/>
	<path style="fill:#303C42;" d="M402.208,77.792c-4.167-4.167-10.917-4.167-15.083,0l-21.333,21.333
		c-4.167,4.167-4.167,10.917,0,15.083l21.333,21.333c2.083,2.083,4.813,3.125,7.542,3.125c2.729,0,5.458-1.042,7.542-3.125
		c4.167-4.167,4.167-10.917,0-15.083l-13.792-13.792l13.792-13.792C406.375,88.708,406.375,81.958,402.208,77.792z"/>
</g>
<path style="opacity:0.1;fill:#010101;enable-background:new    ;" d="M350.046,215.294C351.253,217.966,352,220.88,352,224
	c0,11.771-9.573,21.333-21.333,21.333c-3.121,0-6.038-0.751-8.712-1.961c3.348,7.411,10.734,12.628,19.379,12.628
	c11.76,0,21.333-9.563,21.333-21.333C362.667,226.02,357.449,218.643,350.046,215.294z"/>
<linearGradient id="SVGID_1_" gradientUnits="userSpaceOnUse" x1="-45.5785" y1="639.5551" x2="-23.8277" y2="629.4137" gradientTransform="matrix(21.3333 0 0 -21.3333 996.3334 13791.667)">
	<stop  offset="0" style="stop-color:#FFFFFF;stop-opacity:0.2"/>
	<stop  offset="1" style="stop-color:#FFFFFF;stop-opacity:0"/>
</linearGradient>
<path style="fill:url(#SVGID_1_);" d="M256,0C114.844,0,0,114.833,0,256s114.844,256,256,256s256-114.833,256-256S397.156,0,256,0z"
	/>
<g>
</g>
<g>
</g>
<g>
</g>
<g>
</g>
<g>
</g>
<g>
</g>
<g>
</g>
<g>
</g>
<g>
</g>
<g>
</g>
<g>
</g>
<g>
</g>
<g>
</g>
<g>
</g>
<g>
</g>
</svg>
