<?xml version="1.0" ?><svg enable-background="new 0 0 24 24" id="Layer_1" version="1.1" viewBox="0 0 24 24" xml:space="preserve" xmlns="http://www.w3.org/2000/svg" xmlns:xlink="http://www.w3.org/1999/xlink"><g><path d="M12,0C5.3828125,0,0,5.3828125,0,12s5.3828125,12,12,12s12-5.3828125,12-12S18.6171875,0,12,0z" fill="#303C42"/><path d="M12,23C5.9345703,23,1,18.0654297,1,12S5.9345703,1,12,1   c3.0280762,0,5.7739258,1.2303467,7.7650146,3.2167969C19.5402222,4.0822144,19.2805176,4,19,4c-0.8271484,0-1.5,0.6728516-1.5,1.5   C17.5,5.7763672,17.7236328,6,18,6s0.5-0.2236328,0.5-0.5C18.5,5.2246094,18.7246094,5,19,5s0.5,0.2246094,0.5,0.5v0.4414063   c0,0.1542969-0.0859375,0.2919922-0.2236328,0.3613281C18.7978516,6.5419922,18.5,7.0234375,18.5,7.5585938V8   c0,0.2763672,0.2236328,0.5,0.5,0.5s0.5-0.2236328,0.5-0.5V7.5585938c0-0.1542969,0.0859375-0.2919922,0.2236328-0.3613281   C20.2021484,6.9580078,20.5,6.4765625,20.5,5.9414063V5.5c0-0.2300415-0.0562744-0.4455566-0.1491699-0.640564   C21.9981079,6.7830811,23,9.2747803,23,12C23,18.0654297,18.0654297,23,12,23z" fill="#FED600"/><path d="M19.3987427,4.057251c0.1296997,0.0374146,0.2525635,0.0914917,0.366272,0.1595459   c-0.260437-0.2598267-0.5351563-0.5050049-0.8203125-0.737854C19.1015625,3.6672363,19.2544556,3.8587646,19.3987427,4.057251z" fill="#010101" opacity="0.1"/><path d="M20.3508301,4.859436C20.4437256,5.0544434,20.5,5.2699585,20.5,5.5v0.4414063   c0,0.0016479-0.0006714,0.0032349-0.0006714,0.0048828C21.1368408,7.3348999,21.5,8.8741455,21.5,10.5   c0,6.0654297-4.9345703,11-11,11c-2.6515503,0-5.086853-0.9432983-6.9884033-2.5115967C5.5307617,21.4366455,8.5861206,23,12,23   c6.0654297,0,11-4.9345703,11-11C23,9.2747803,21.9981079,6.7830811,20.3508301,4.859436z" fill="#010101" opacity="0.1"/><circle cx="8.5" cy="10" fill="#303C42" r="1"/><circle cx="15" cy="10" fill="#303C42" r="1"/><path d="M14.5,8c0.0117188,0,1.2011719,0.0195313,1.5527344,0.7236328C16.140625,8.8984375,16.3173828,9,16.5,9   c0.0751953,0,0.1513672-0.0166016,0.2236328-0.0527344c0.2470703-0.1240234,0.3466797-0.4238281,0.2236328-0.6708984   C16.3164063,7.0146484,14.5742188,7,14.5,7C14.2236328,7,14,7.2236328,14,7.5S14.2236328,8,14.5,8z" fill="#303C42"/><path d="M6.4853516,8.6210938C6.4892578,8.6054688,6.9140625,7,9,7c0.2763672,0,0.5-0.2236328,0.5-0.5   S9.2763672,6,9,6C6.7138672,6,5.7207031,7.5556641,5.5146484,8.3789063   C5.4482422,8.6464844,5.6103516,8.9179688,5.8789063,8.9853516C5.9199219,8.9951172,5.9599609,9,6,9   C6.2246094,9,6.4287109,8.8486328,6.4853516,8.6210938z" fill="#303C42"/><path d="M17.5,16h-11C6.2236328,16,6,16.2236328,6,16.5S6.2236328,17,6.5,17h11c0.2763672,0,0.5-0.2236328,0.5-0.5   S17.7763672,16,17.5,16z" fill="#303C42"/><circle cx="19" cy="9.5" fill="#303C42" r="0.5"/><linearGradient gradientUnits="userSpaceOnUse" id="SVGID_1_" x1="1.1247724" x2="22.875227" y1="6.9287982" y2="17.0712013"><stop offset="0" style="stop-color:#FFFFFF;stop-opacity:0.2"/><stop offset="1" style="stop-color:#FFFFFF;stop-opacity:0"/></linearGradient><path d="M12,0C5.3828125,0,0,5.3828125,0,12s5.3828125,12,12,12s12-5.3828125,12-12S18.6171875,0,12,0z" fill="url(#SVGID_1_)"/></g><g/><g/><g/><g/><g/><g/><g/><g/><g/><g/><g/><g/><g/><g/><g/></svg>