<?xml version="1.0" encoding="iso-8859-1"?>
<!-- Generator: Adobe Illustrator 19.0.0, SVG Export Plug-In . SVG Version: 6.00 Build 0)  -->
<svg version="1.1" id="Capa_1" xmlns="http://www.w3.org/2000/svg" xmlns:xlink="http://www.w3.org/1999/xlink" x="0px" y="0px"
	 viewBox="0 0 512 512" style="enable-background:new 0 0 512 512;" xml:space="preserve">
<path style="fill:#303C42;" d="M256,0C114.844,0,0,114.844,0,256s114.844,256,256,256s256-114.844,256-256S397.156,0,256,0z"/>
<path style="fill:#FED600;" d="M256,490.667C126.604,490.667,21.333,385.396,21.333,256S126.604,21.333,256,21.333
	S490.667,126.604,490.667,256S385.396,490.667,256,490.667z"/>
<path style="opacity:0.1;fill:#010101;enable-background:new    ;" d="M407.888,77.445C442.798,118.421,464,171.411,464,229.333
	C464,358.729,358.729,464,229.333,464c-57.922,0-110.913-21.202-151.888-56.112c43.077,50.563,107.081,82.779,178.555,82.779
	c129.396,0,234.667-105.271,234.667-234.667C490.667,184.526,458.451,120.522,407.888,77.445z"/>
<g>
	<path style="fill:#303C42;" d="M393.385,299.115c-5.802-1.385-11.5,2.177-12.844,7.906c-13.75,57.885-64.958,98.313-124.542,98.313
		c-59.656,0-110.885-40.49-124.573-98.448c-1.365-5.75-7.146-9.24-12.833-7.938c-5.74,1.354-9.292,7.104-7.938,12.833
		c15.979,67.646,75.75,114.885,145.344,114.885c69.51,0,129.26-47.167,145.292-114.708
		C402.656,306.219,399.115,300.469,393.385,299.115z"/>
	<path style="fill:#303C42;" d="M128,213.333c0-23.531,19.135-42.667,42.667-42.667s42.667,19.135,42.667,42.667
		c0,5.896,4.771,10.667,10.667,10.667c5.896,0,10.667-4.771,10.667-10.667c0-35.292-28.708-64-64-64s-64,28.708-64,64
		c0,5.896,4.771,10.667,10.667,10.667S128,219.229,128,213.333z"/>
	<path style="fill:#303C42;" d="M341.333,149.333c-35.292,0-64,28.708-64,64c0,5.896,4.771,10.667,10.667,10.667
		c5.896,0,10.667-4.771,10.667-10.667c0-23.531,19.135-42.667,42.667-42.667S384,189.802,384,213.333
		c0,5.896,4.771,10.667,10.667,10.667c5.896,0,10.667-4.771,10.667-10.667C405.333,178.042,376.625,149.333,341.333,149.333z"/>
</g>
<linearGradient id="SVGID_1_" gradientUnits="userSpaceOnUse" x1="-45.5784" y1="639.555" x2="-23.8278" y2="629.4138" gradientTransform="matrix(21.3333 0 0 -21.3333 996.3334 13791.667)">
	<stop  offset="0" style="stop-color:#FFFFFF;stop-opacity:0.2"/>
	<stop  offset="1" style="stop-color:#FFFFFF;stop-opacity:0"/>
</linearGradient>
<path style="fill:url(#SVGID_1_);" d="M256,0C114.844,0,0,114.844,0,256s114.844,256,256,256s256-114.844,256-256S397.156,0,256,0z"
	/>
<g>
</g>
<g>
</g>
<g>
</g>
<g>
</g>
<g>
</g>
<g>
</g>
<g>
</g>
<g>
</g>
<g>
</g>
<g>
</g>
<g>
</g>
<g>
</g>
<g>
</g>
<g>
</g>
<g>
</g>
</svg>
