<?xml version="1.0" encoding="iso-8859-1"?>
<!-- Generator: Adobe Illustrator 19.0.0, SVG Export Plug-In . SVG Version: 6.00 Build 0)  -->
<svg version="1.1" id="Capa_1" xmlns="http://www.w3.org/2000/svg" xmlns:xlink="http://www.w3.org/1999/xlink" x="0px" y="0px"
	 viewBox="0 0 512 512" style="enable-background:new 0 0 512 512;" xml:space="preserve">
<path style="fill:#303C42;" d="M256,0C114.833,0,0,114.844,0,256s114.833,256,256,256s256-114.844,256-256S397.167,0,256,0z"/>
<path style="fill:#FED600;" d="M256,490.667C126.604,490.667,21.333,385.396,21.333,256S126.604,21.333,256,21.333
	S490.667,126.604,490.667,256S385.396,490.667,256,490.667z"/>
<path style="opacity:0.1;fill:#010101;enable-background:new    ;" d="M407.888,77.445C442.798,118.421,464,171.411,464,229.333
	C464,358.729,358.729,464,229.333,464c-57.922,0-110.913-21.202-151.888-56.112c43.077,50.563,107.081,82.779,178.555,82.779
	c129.396,0,234.667-105.271,234.667-234.667C490.667,184.526,458.451,120.522,407.888,77.445z"/>
<g>
	<path style="fill:#303C42;" d="M393.375,299.115c-5.646-1.406-11.479,2.177-12.833,7.906
		c-13.75,57.885-64.958,98.313-124.542,98.313c-59.667,0-110.896-40.49-124.583-98.448c-1.333-5.74-7.021-9.219-12.833-7.938
		c-5.729,1.354-9.271,7.104-7.917,12.833C126.625,379.427,186.396,426.667,256,426.667c69.521,0,129.25-47.167,145.292-114.708
		C402.646,306.219,399.104,300.469,393.375,299.115z"/>
	<path style="fill:#303C42;" d="M149.333,277.333c2.646,0,5.313-0.99,7.375-2.958l62.563-59.75
		c9.917-9.594,15.396-22.365,15.396-35.958c0-27.938-23.396-50.667-52.146-50.667c-13.25,0-24.563,7.385-33.188,15.896
		c-8.625-8.51-19.938-15.896-33.188-15.896C87.396,128,64,150.729,64,178.667c0,13.594,5.479,26.365,15.438,35.99l62.521,59.719
		C144.021,276.344,146.688,277.333,149.333,277.333z"/>
</g>
<path style="fill:#EF4438;" d="M85.333,178.667c0-16.177,13.813-29.333,30.813-29.333c7.292,0,16.313,6.26,24.75,17.188
	c4.042,5.229,12.833,5.229,16.875,0c8.438-10.927,17.458-17.188,24.75-17.188c17,0,30.813,13.156,30.813,29.333
	c0,7.76-3.167,15.073-8.854,20.573l-55.146,52.677l-55.104-52.646C88.5,193.74,85.333,186.427,85.333,178.667z"/>
<path style="opacity:0.1;fill:#010101;enable-background:new    ;" d="M199.921,154.49c2.99,4.52,4.788,9.826,4.788,15.552
	c0,7.76-3.167,15.073-8.854,20.573l-55.146,52.677l8.625,8.625l55.146-52.677c5.688-5.5,8.854-12.813,8.854-20.573
	C213.333,168.635,208.009,159.781,199.921,154.49z"/>
<path style="fill:#303C42;" d="M395.854,128c-13.25,0-24.563,7.385-33.188,15.896c-8.625-8.51-19.938-15.896-33.188-15.896
	c-28.75,0-52.146,22.729-52.146,50.667c0,13.594,5.479,26.365,15.438,35.99l62.521,59.719c2.063,1.969,4.729,2.958,7.375,2.958
	c2.646,0,5.313-0.99,7.375-2.958l62.563-59.75C442.521,205.031,448,192.26,448,178.667C448,150.729,424.604,128,395.854,128z"/>
<path style="fill:#EF4438;" d="M417.813,199.24l-55.146,52.677l-55.104-52.646c-5.729-5.531-8.896-12.844-8.896-20.604
	c0-16.177,13.813-29.333,30.813-29.333c7.292,0,16.313,6.26,24.75,17.188c4.042,5.229,12.833,5.229,16.875,0
	c8.438-10.927,17.458-17.188,24.75-17.188c17,0,30.813,13.156,30.813,29.333C426.667,186.427,423.5,193.74,417.813,199.24z"/>
<path style="opacity:0.1;fill:#010101;enable-background:new    ;" d="M413.254,154.49c2.99,4.52,4.788,9.826,4.788,15.552
	c0,7.76-3.167,15.073-8.854,20.573l-55.146,52.677l8.625,8.625l55.146-52.677c5.688-5.5,8.854-12.813,8.854-20.573
	C426.667,168.635,421.342,159.781,413.254,154.49z"/>
<linearGradient id="SVGID_1_" gradientUnits="userSpaceOnUse" x1="-45.5785" y1="639.5551" x2="-23.8277" y2="629.4137" gradientTransform="matrix(21.3333 0 0 -21.3333 996.3334 13791.667)">
	<stop  offset="0" style="stop-color:#FFFFFF;stop-opacity:0.2"/>
	<stop  offset="1" style="stop-color:#FFFFFF;stop-opacity:0"/>
</linearGradient>
<path style="fill:url(#SVGID_1_);" d="M256,0C114.833,0,0,114.844,0,256s114.833,256,256,256s256-114.844,256-256S397.167,0,256,0z"
	/>
<g>
</g>
<g>
</g>
<g>
</g>
<g>
</g>
<g>
</g>
<g>
</g>
<g>
</g>
<g>
</g>
<g>
</g>
<g>
</g>
<g>
</g>
<g>
</g>
<g>
</g>
<g>
</g>
<g>
</g>
</svg>
