<?xml version="1.0" encoding="iso-8859-1"?>
<!-- Generator: Adobe Illustrator 19.0.0, SVG Export Plug-In . SVG Version: 6.00 Build 0)  -->
<svg version="1.1" id="Capa_1" xmlns="http://www.w3.org/2000/svg" xmlns:xlink="http://www.w3.org/1999/xlink" x="0px" y="0px"
	 viewBox="0 0 512 512" style="enable-background:new 0 0 512 512;" xml:space="preserve">
<path style="fill:#303C42;" d="M256,0C114.844,0,0,114.844,0,256s114.844,256,256,256s256-114.844,256-256S397.156,0,256,0z"/>
<path style="fill:#FED600;" d="M256,490.667C126.604,490.667,21.333,385.396,21.333,256S126.604,21.333,256,21.333
	S490.667,126.604,490.667,256S385.396,490.667,256,490.667z"/>
<path style="opacity:0.1;fill:#010101;enable-background:new    ;" d="M407.888,77.445C442.798,118.421,464,171.411,464,229.333
	C464,358.729,358.729,464,229.333,464c-57.922,0-110.913-21.202-151.888-56.112c43.077,50.563,107.081,82.779,178.555,82.779
	c129.396,0,234.667-105.271,234.667-234.667C490.667,184.526,458.451,120.522,407.888,77.445z"/>
<g>
	<path style="fill:#303C42;" d="M373.333,192h-64c-5.896,0-10.667,4.771-10.667,10.667s4.771,10.667,10.667,10.667H320
		c0,11.76,9.573,21.333,21.333,21.333s21.333-9.573,21.333-21.333h10.667c5.896,0,10.667-4.771,10.667-10.667
		S379.229,192,373.333,192z"/>
	<path style="fill:#303C42;" d="M192,213.333h10.667c5.896,0,10.667-4.771,10.667-10.667S208.563,192,202.667,192h-64
		c-5.896,0-10.667,4.771-10.667,10.667s4.771,10.667,10.667,10.667h10.667c0,11.76,9.573,21.333,21.333,21.333
		S192,225.094,192,213.333z"/>
	<path style="fill:#303C42;" d="M330.667,362.667H181.333c-5.896,0-10.667,4.771-10.667,10.667S175.438,384,181.333,384h149.333
		c5.896,0,10.667-4.771,10.667-10.667S336.563,362.667,330.667,362.667z"/>
</g>
<linearGradient id="SVGID_1_" gradientUnits="userSpaceOnUse" x1="-45.5784" y1="639.555" x2="-23.8278" y2="629.4138" gradientTransform="matrix(21.3333 0 0 -21.3333 996.3334 13791.667)">
	<stop  offset="0" style="stop-color:#FFFFFF;stop-opacity:0.2"/>
	<stop  offset="1" style="stop-color:#FFFFFF;stop-opacity:0"/>
</linearGradient>
<path style="fill:url(#SVGID_1_);" d="M256,0C114.844,0,0,114.844,0,256s114.844,256,256,256s256-114.844,256-256S397.156,0,256,0z"
	/>
<g>
</g>
<g>
</g>
<g>
</g>
<g>
</g>
<g>
</g>
<g>
</g>
<g>
</g>
<g>
</g>
<g>
</g>
<g>
</g>
<g>
</g>
<g>
</g>
<g>
</g>
<g>
</g>
<g>
</g>
</svg>
