<?xml version="1.0" encoding="iso-8859-1"?>
<!-- Generator: Adobe Illustrator 19.0.0, SVG Export Plug-In . SVG Version: 6.00 Build 0)  -->
<svg version="1.1" id="Capa_1" xmlns="http://www.w3.org/2000/svg" xmlns:xlink="http://www.w3.org/1999/xlink" x="0px" y="0px"
	 viewBox="0 0 512 512" style="enable-background:new 0 0 512 512;" xml:space="preserve">
<path style="fill:#303C42;" d="M256,0C114.833,0,0,114.844,0,256s114.833,256,256,256s256-114.844,256-256S397.167,0,256,0z"/>
<path style="fill:#E53A35;" d="M256,490.667C126.604,490.667,21.333,385.396,21.333,256S126.604,21.333,256,21.333
	S490.667,126.604,490.667,256S385.396,490.667,256,490.667z"/>
<path style="opacity:0.1;fill:#010101;enable-background:new    ;" d="M410.682,79.984c36.384,41.35,58.651,95.405,58.651,154.682
	c0,129.396-105.271,234.667-234.667,234.667c-59.277,0-113.332-22.267-154.682-58.651c43.038,48.911,105.897,79.984,176.016,79.984
	c129.396,0,234.667-105.271,234.667-234.667C490.667,185.882,459.594,123.022,410.682,79.984z"/>
<path style="fill:#303C42;" d="M319.979,298.667h-128c-35.292,0-64,28.708-64,64s28.708,64,64,64h128c35.292,0,64-28.708,64-64
	S355.271,298.667,319.979,298.667z"/>
<path style="fill:#FFFFFF;" d="M191.979,320h128c18.09,0,33.492,11.362,39.688,27.294l-25.521,13.893l-34.083-18.552
	c-3.208-1.729-7.042-1.729-10.208,0l-34.021,18.542l-33.917-18.542c-3.188-1.719-7.042-1.74-10.229,0l-33.979,18.542l-25.417-13.88
	C158.486,331.365,173.889,320,191.979,320z"/>
<path style="opacity:0.1;fill:#010101;enable-background:new    ;" d="M198.118,331.306h128c13.484,0,25.452,6.337,33.25,16.151
	l0.298-0.163C353.471,331.362,338.069,320,319.979,320h-128c-18.09,0-33.493,11.365-39.688,27.297l9.6,5.242
	C169.315,340.003,182.525,331.306,198.118,331.306z"/>
<path style="fill:#FFFFFF;" d="M319.979,405.333h-128c-20.872,0-38.225-15.094-41.884-34.931l22.509,12.296
	c3.167,1.729,7.042,1.729,10.208,0l33.979-18.542l33.917,18.542c3.188,1.719,7.042,1.74,10.229,0l34.021-18.552l34.083,18.552
	c1.604,0.865,3.354,1.302,5.104,1.302s3.521-0.438,5.104-1.302l22.616-12.313C358.214,390.232,340.858,405.333,319.979,405.333z"/>
<g>
	<path style="fill:#303C42;" d="M404.208,155.229c-2.646-5.281-9.021-7.396-14.313-4.771l-85.354,42.667
		c-3.604,1.802-5.896,5.5-5.896,9.542s2.292,7.74,5.896,9.542l85.354,42.667c1.542,0.76,3.167,1.125,4.771,1.125
		c3.896,0,7.667-2.156,9.542-5.896c2.625-5.271,0.5-11.677-4.771-14.313l-66.271-33.125l66.271-33.125
		C404.708,166.906,406.833,160.5,404.208,155.229z"/>
	<path style="fill:#303C42;" d="M213.354,202.667c0-4.042-2.292-7.74-5.896-9.542l-85.354-42.667
		c-5.25-2.604-11.667-0.49-14.313,4.771c-2.625,5.271-0.5,11.677,4.771,14.313l66.271,33.125l-66.271,33.125
		c-5.271,2.635-7.396,9.042-4.771,14.313c1.875,3.74,5.646,5.896,9.542,5.896c1.604,0,3.229-0.365,4.771-1.125l85.354-42.667
		C211.063,210.406,213.354,206.708,213.354,202.667z"/>
</g>
<linearGradient id="SVGID_1_" gradientUnits="userSpaceOnUse" x1="-45.5785" y1="639.5551" x2="-23.8277" y2="629.4137" gradientTransform="matrix(21.3333 0 0 -21.3333 996.3334 13791.667)">
	<stop  offset="0" style="stop-color:#FFFFFF;stop-opacity:0.2"/>
	<stop  offset="1" style="stop-color:#FFFFFF;stop-opacity:0"/>
</linearGradient>
<path style="fill:url(#SVGID_1_);" d="M256,0C114.833,0,0,114.844,0,256s114.833,256,256,256s256-114.844,256-256S397.167,0,256,0z"
	/>
<g>
</g>
<g>
</g>
<g>
</g>
<g>
</g>
<g>
</g>
<g>
</g>
<g>
</g>
<g>
</g>
<g>
</g>
<g>
</g>
<g>
</g>
<g>
</g>
<g>
</g>
<g>
</g>
<g>
</g>
</svg>
