<?xml version="1.0" encoding="iso-8859-1"?>
<!-- Generator: Adobe Illustrator 19.0.0, SVG Export Plug-In . SVG Version: 6.00 Build 0)  -->
<svg version="1.1" id="Capa_1" xmlns="http://www.w3.org/2000/svg" xmlns:xlink="http://www.w3.org/1999/xlink" x="0px" y="0px"
	 viewBox="0 0 512 512" style="enable-background:new 0 0 512 512;" xml:space="preserve">
<path style="fill:#303C42;" d="M486.854,288c8.875-7.833,14.479-19.271,14.479-32c0-11.417-4.448-22.125-12.521-30.188
	c-2.857-2.853-6.134-5.074-9.569-6.983C471.049,95.621,369.69,0,245.333,0C115.938,0,10.667,105.271,10.667,234.667
	s105.271,234.667,234.667,234.667c29.632,0,58.197-5.711,85.333-16.358v16.358c0,23.521,19.135,42.667,42.667,42.667
	S416,492.854,416,469.333v-42.667h32h10.667c23.531,0,42.667-19.146,42.667-42.667c0-12.729-5.604-24.167-14.479-32
	c8.875-7.833,14.479-19.271,14.479-32C501.333,307.271,495.729,295.833,486.854,288z"/>
<g>
	<path style="fill:#FED600;" d="M245.333,448C127.698,448,32,352.292,32,234.667S127.698,21.333,245.333,21.333
		c110.702,0,201.318,83.372,212.042,192.001l-52.104,0.04c-41.135,0.021-74.604,33.521-74.604,74.667v141.926
		C303.743,441.758,275.117,448,245.333,448z"/>
	<path style="fill:#FED600;" d="M394.667,469.333c0,11.771-9.573,21.333-21.333,21.333S352,481.104,352,469.333V288.042
		c0-27.667,21.255-50.214,48.246-52.819c-3.548,6.314-5.607,13.382-5.6,20.819c0.005,12.79,5.794,24.151,14.753,31.97
		c-8.952,7.827-14.732,19.194-14.732,31.988c0,8.842,2.71,17.063,7.336,23.884c-16.635,5.828-28.669,21.522-28.669,40.116
		c0,15.717,8.642,29.328,21.333,36.732V469.333z"/>
</g>
<path style="opacity:0.1;fill:#010101;enable-background:new    ;" d="M373.333,469.333c-11.76,0-21.333-9.563-21.333-21.333v21.333
	c0,11.771,9.573,21.333,21.333,21.333s21.333-9.563,21.333-21.333V448C394.667,459.771,385.094,469.333,373.333,469.333z"/>
<path style="fill:#FED600;" d="M458.667,405.333H448h-32c-11.76,0-21.333-9.563-21.333-21.333c0-11.771,9.573-21.333,21.333-21.333
	h42.667c11.76,0,21.333,9.563,21.333,21.333C480,395.771,470.427,405.333,458.667,405.333z"/>
<path style="opacity:0.1;fill:#010101;enable-background:new    ;" d="M458.667,394.667H448h-32c-9.871,0-17.833-6.875-20.254-16
	c-0.464,1.746-1.079,3.443-1.079,5.333c0,11.771,9.573,21.333,21.333,21.333h32h10.667c11.76,0,21.333-9.563,21.333-21.333
	c0-1.891-0.616-3.587-1.079-5.333C476.5,387.792,468.538,394.667,458.667,394.667z"/>
<path style="fill:#FED600;" d="M458.667,341.333h-21.333c-11.76,0-21.333-9.563-21.333-21.333c0-11.771,9.573-21.333,21.333-21.333
	h21.333c11.76,0,21.333,9.563,21.333,21.333C480,331.771,470.427,341.333,458.667,341.333z"/>
<path style="opacity:0.1;fill:#010101;enable-background:new    ;" d="M458.667,330.667h-21.333c-9.871,0-17.833-6.875-20.254-16
	C416.616,316.413,416,318.109,416,320c0,11.771,9.573,21.333,21.333,21.333h21.333c11.76,0,21.333-9.563,21.333-21.333
	c0-1.891-0.616-3.587-1.079-5.333C476.5,323.792,468.538,330.667,458.667,330.667z"/>
<path style="fill:#FED600;" d="M458.667,277.333h-21.333h-0.031c-11.75,0-21.313-9.563-21.323-21.313
	c-0.01-5.688,2.208-11.063,6.229-15.083c4.021-4.042,9.375-6.25,15.083-6.25l21.365-0.021c0,0,0.021,0,0.031,0
	c5.677,0,11.031,2.208,15.052,6.229c4.042,4.042,6.26,9.396,6.26,15.104C480,267.771,470.427,277.333,458.667,277.333z"/>
<path style="opacity:0.1;fill:#010101;enable-background:new    ;" d="M458.667,266.667h-21.333h-0.031
	c-9.892,0-17.862-6.917-20.258-16.072c-0.473,1.783-1.069,3.536-1.065,5.426c0.01,11.75,9.573,21.313,21.323,21.313h0.031h21.333
	c11.76,0,21.333-9.563,21.333-21.333c0-1.884-0.596-3.626-1.066-5.4C476.534,259.758,468.561,266.667,458.667,266.667z"/>
<g>
	<circle style="fill:#303C42;" cx="330.667" cy="170.667" r="21.333"/>
	<circle style="fill:#303C42;" cx="160" cy="170.667" r="21.333"/>
	<path style="fill:#303C42;" d="M298.667,320H192c-5.896,0-10.667,4.771-10.667,10.667c0,5.896,4.771,10.667,10.667,10.667h106.667
		c5.896,0,10.667-4.771,10.667-10.667C309.333,324.771,304.563,320,298.667,320z"/>
</g>
<g>
	<path style="opacity:0.1;fill:#010101;enable-background:new    ;" d="M457.375,213.335c-0.581-5.889-1.501-11.667-2.543-17.397
		c-0.217-1.181-0.37-2.383-0.607-3.556c-0.967-4.861-2.206-9.616-3.492-14.346c-0.69-2.497-1.374-4.995-2.151-7.456
		c-1.195-3.837-2.51-7.618-3.911-11.355c-1.378-3.633-2.862-7.21-4.43-10.745c-1.155-2.633-2.288-5.276-3.544-7.85
		c-2.917-5.911-6.018-11.717-9.449-17.305c-0.134-0.22-0.246-0.453-0.382-0.672c-12.06-19.478-27.163-36.876-44.647-51.526
		C413.259,108.177,432,155.883,432,208c0,1.807-0.227,3.557-0.271,5.354L457.375,213.335z"/>
	<path style="opacity:0.1;fill:#010101;enable-background:new    ;" d="M330.667,389.32c-32.582,20.171-70.863,32.013-112,32.013
		c-51.921,0-99.448-18.617-136.439-49.449c1.542,1.829,3.224,3.531,4.826,5.307c2.871,3.188,5.717,6.4,8.773,9.409
		c2.388,2.35,4.941,4.523,7.438,6.76c2.875,2.577,5.738,5.163,8.75,7.583c2.716,2.182,5.549,4.217,8.372,6.267
		c3.047,2.212,6.113,4.396,9.277,6.448c2.94,1.906,5.953,3.704,8.99,5.467c3.286,1.908,6.62,3.736,10.016,5.47
		c3.095,1.582,6.224,3.104,9.404,4.536c3.582,1.612,7.238,3.086,10.922,4.503c3.159,1.216,6.316,2.434,9.546,3.501
		c4,1.322,8.092,2.428,12.194,3.516c3.07,0.815,6.108,1.701,9.23,2.38c4.733,1.027,9.572,1.751,14.415,2.46
		c2.634,0.385,5.219,0.919,7.884,1.207c7.583,0.818,15.268,1.301,23.069,1.301c29.784,0,58.41-6.242,85.333-18.033V389.32z"/>
</g>
<linearGradient id="SVGID_1_" gradientUnits="userSpaceOnUse" x1="-45.1699" y1="640.1374" x2="-22.4933" y2="629.5635" gradientTransform="matrix(21.3333 0 0 -21.3333 996.3334 13791.667)">
	<stop  offset="0" style="stop-color:#FFFFFF;stop-opacity:0.2"/>
	<stop  offset="1" style="stop-color:#FFFFFF;stop-opacity:0"/>
</linearGradient>
<path style="fill:url(#SVGID_1_);" d="M486.854,288c8.875-7.833,14.479-19.271,14.479-32c0-11.417-4.448-22.125-12.521-30.188
	c-2.857-2.853-6.134-5.074-9.569-6.983C471.049,95.621,369.69,0,245.333,0C115.938,0,10.667,105.271,10.667,234.667
	s105.271,234.667,234.667,234.667c29.632,0,58.197-5.711,85.333-16.358v16.358c0,23.521,19.135,42.667,42.667,42.667
	S416,492.854,416,469.333v-42.667h32h10.667c23.531,0,42.667-19.146,42.667-42.667c0-12.729-5.604-24.167-14.479-32
	c8.875-7.833,14.479-19.271,14.479-32C501.333,307.271,495.729,295.833,486.854,288z"/>
<g>
</g>
<g>
</g>
<g>
</g>
<g>
</g>
<g>
</g>
<g>
</g>
<g>
</g>
<g>
</g>
<g>
</g>
<g>
</g>
<g>
</g>
<g>
</g>
<g>
</g>
<g>
</g>
<g>
</g>
</svg>
