<?xml version="1.0" encoding="iso-8859-1"?>
<!-- Generator: Adobe Illustrator 19.0.0, SVG Export Plug-In . SVG Version: 6.00 Build 0)  -->
<svg version="1.1" id="Capa_1" xmlns="http://www.w3.org/2000/svg" xmlns:xlink="http://www.w3.org/1999/xlink" x="0px" y="0px"
	 viewBox="0 0 512 512" style="enable-background:new 0 0 512 512;" xml:space="preserve">
<path style="fill:#303C42;" d="M479.245,218.858C471.065,95.646,369.702,0,245.333,0C115.938,0,10.667,105.271,10.667,234.667
	s105.271,234.667,234.667,234.667c30.693,0,61.042-6.172,89.208-17.728c-2.48,5.404-3.875,11.404-3.875,17.728
	c0,11.417,4.448,22.125,12.521,30.188c8.052,8.042,18.75,12.479,30.125,12.479c0.01,0,0.031,0,0.052,0l53.365-0.042
	c41.135-0.021,74.604-33.521,74.604-74.667V256C501.333,239.975,492.348,226.151,479.245,218.858z"/>
<path style="fill:#FED600;" d="M32,234.667c0-117.625,95.698-213.333,213.333-213.333c110.75,0,201.385,83.428,212.052,192.129
	C434.458,214.158,416,232.918,416,256v42.667h-24.344c0.837-2.751,2.057-5.417,2.719-8.188c0.76-3.188,0.021-6.521-2-9.083
	c-2.031-2.563-5.115-4.063-8.375-4.063H106.667c-3.26,0-6.344,1.5-8.365,4.042c-2.021,2.563-2.771,5.896-2.021,9.083
	c15.729,66.563,78.406,114.875,149.052,114.875c34.977,0,69.786-12.564,97.352-34.668c0.837,0.875,1.552,1.866,2.461,2.668
	c-8.875,7.833-14.479,19.271-14.479,32c0,7.94,2.376,15.249,6.169,21.622C308.367,440.503,277.113,448,245.333,448
	C127.698,448,32,352.292,32,234.667z"/>
<path style="fill:#B72025;" d="M330.667,341.333c0,3.602,0.552,7.053,1.396,10.396c-2.591,2.195-5.242,4.297-7.987,6.285
	c-21.837-17.527-52.587-21.911-78.742-9.223c-26.159-12.727-57.02-8.268-78.891,9.382c-20.594-14.939-36.813-35.418-45.495-59.507
	h248.729c-0.047,0.13-0.105,0.255-0.152,0.385C347.801,301.014,330.667,319.116,330.667,341.333z"/>
<path style="opacity:0.1;fill:#010101;enable-background:new    ;" d="M175.025,313.827H341c7.06-8.191,17.116-13.745,28.525-14.775
	c0.047-0.13,0.105-0.255,0.152-0.385H120.948c8.682,24.089,24.901,44.568,45.495,59.507c0.099-0.079,0.211-0.137,0.31-0.216
	c-3.195-3.291-6.226-6.733-9.068-10.322C146.89,334.008,157.641,313.827,175.025,313.827z"/>
<path style="fill:#E53A35;" d="M304.102,370.078C285.788,379.059,265.592,384,245.333,384c-20.977,0-41.128-4.93-59.089-13.714
	c15.954-9.402,36.301-10.315,53.724-0.203c3.313,1.958,7.417,1.958,10.729,0C268.004,360.038,288.212,360.855,304.102,370.078z"/>
<path style="fill:#FED600;" d="M480,437.292c0,29.396-23.906,53.313-53.292,53.333l-53.365,0.042c0,0-0.021,0-0.031,0
	c-5.677,0-11.031-2.208-15.052-6.229c-4.042-4.042-6.26-9.396-6.26-15.104c0-11.771,9.573-21.333,21.333-21.333H384
	c5.896,0,10.667-4.771,10.667-10.667s-4.771-10.667-10.667-10.667h-10.667c-11.76,0-21.333-9.563-21.333-21.333
	S361.573,384,373.333,384H384c5.896,0,10.667-4.771,10.667-10.667s-4.771-10.667-10.667-10.667h-10.667
	c-11.76,0-21.333-9.563-21.333-21.333S361.573,320,373.333,320H448c5.896,0,10.667-4.771,10.667-10.667s-4.771-10.667-10.667-10.667
	h-10.667V256c0-11.771,9.573-21.333,21.333-21.333c11.76,0,21.333,9.563,21.333,21.333V437.292z"/>
<path style="opacity:0.1;fill:#010101;enable-background:new    ;" d="M458.667,234.667v181.292
	c0,29.396-23.906,53.313-53.292,53.333l-53.365,0.042H352c0,5.708,2.219,11.063,6.26,15.104c4.021,4.021,9.375,6.229,15.052,6.229
	c0.01,0,0.031,0,0.031,0l53.365-0.042C456.094,490.604,480,466.688,480,437.292V256C480,244.229,470.427,234.667,458.667,234.667z"
	/>
<g>
	<circle style="fill:#303C42;" cx="330.667" cy="170.667" r="21.333"/>
	<circle style="fill:#303C42;" cx="160" cy="170.667" r="21.333"/>
</g>
<g>
	<path style="opacity:0.1;fill:#010101;enable-background:new    ;" d="M457.385,213.462c-0.598-6.094-1.531-12.079-2.621-18.004
		c-0.165-0.885-0.271-1.79-0.448-2.672c-0.945-4.799-2.18-9.483-3.438-14.156c-0.703-2.569-1.376-5.15-2.172-7.678
		c-1.094-3.536-2.328-7.005-3.596-10.457c-1.474-3.947-3.026-7.854-4.723-11.686c-0.941-2.154-1.887-4.305-2.895-6.419
		c-2.85-5.898-5.87-11.699-9.233-17.281c-0.07-0.117-0.133-0.241-0.203-0.358c-11.62-19.206-26.178-36.44-43.046-51.086
		c32.507,37.44,52.322,86.193,52.322,139.669c0,2.099-0.254,4.133-0.314,6.217C443.048,215.978,449.931,213.689,457.385,213.462z"/>
	<path style="opacity:0.1;fill:#010101;enable-background:new    ;" d="M269.354,446.561c23.418-2.767,46.228-9.492,67.482-19.605
		c-3.793-6.374-6.169-13.682-6.169-21.622c0-2.737,0.378-5.376,0.872-7.97c-31.603,18.509-68.271,29.303-107.539,29.303
		c-53.257,0-101.811-19.673-139.19-51.943c0.616,0.704,1.263,1.38,1.888,2.077c3.734,4.164,7.589,8.214,11.633,12.076
		c1.448,1.379,2.953,2.695,4.439,4.035c3.819,3.448,7.742,6.779,11.802,9.948c1.827,1.424,3.691,2.799,5.566,4.165
		c3.889,2.839,7.882,5.54,11.962,8.116c2.185,1.376,4.383,2.728,6.621,4.026c3.961,2.302,8.023,4.438,12.141,6.487
		c2.482,1.233,4.956,2.478,7.491,3.615c4.073,1.832,8.254,3.456,12.458,5.034c2.698,1.012,5.37,2.074,8.118,2.978
		c4.303,1.415,8.716,2.573,13.135,3.716c2.758,0.712,5.473,1.529,8.272,2.132c4.85,1.047,9.814,1.768,14.783,2.478
		c2.469,0.353,4.888,0.863,7.384,1.13c7.504,0.802,15.111,1.264,22.829,1.264c7.921,0,15.806-0.47,23.626-1.379
		C269.092,446.607,269.221,446.576,269.354,446.561z"/>
</g>
<linearGradient id="SVGID_1_" gradientUnits="userSpaceOnUse" x1="-45.1698" y1="640.1375" x2="-21.4093" y2="629.0577" gradientTransform="matrix(21.3333 0 0 -21.3333 996.3334 13791.667)">
	<stop  offset="0" style="stop-color:#FFFFFF;stop-opacity:0.2"/>
	<stop  offset="1" style="stop-color:#FFFFFF;stop-opacity:0"/>
</linearGradient>
<path style="fill:url(#SVGID_1_);" d="M479.245,218.858C471.065,95.646,369.702,0,245.333,0
	C115.938,0,10.667,105.271,10.667,234.667s105.271,234.667,234.667,234.667c30.693,0,61.042-6.172,89.208-17.728
	c-2.48,5.404-3.875,11.404-3.875,17.728c0,11.417,4.448,22.125,12.521,30.188c8.052,8.042,18.75,12.479,30.125,12.479
	c0.01,0,0.031,0,0.052,0l53.365-0.042c41.135-0.021,74.604-33.521,74.604-74.667V256
	C501.333,239.975,492.348,226.151,479.245,218.858z"/>
<g>
</g>
<g>
</g>
<g>
</g>
<g>
</g>
<g>
</g>
<g>
</g>
<g>
</g>
<g>
</g>
<g>
</g>
<g>
</g>
<g>
</g>
<g>
</g>
<g>
</g>
<g>
</g>
<g>
</g>
</svg>
