<?xml version="1.0" encoding="iso-8859-1"?>
<!-- Generator: Adobe Illustrator 19.0.0, SVG Export Plug-In . SVG Version: 6.00 Build 0)  -->
<svg version="1.1" id="Capa_1" xmlns="http://www.w3.org/2000/svg" xmlns:xlink="http://www.w3.org/1999/xlink" x="0px" y="0px"
	 viewBox="0 0 512 512" style="enable-background:new 0 0 512 512;" xml:space="preserve">
<circle style="fill:#FFD93B;" cx="256" cy="256" r="256"/>
<path style="fill:#F4C534;" d="M512,256c0,141.44-114.64,256-256,256c-80.48,0-152.32-37.12-199.28-95.28
	c43.92,35.52,99.84,56.72,160.72,56.72c141.36,0,256-114.56,256-256c0-60.88-21.2-116.8-56.72-160.72
	C474.8,103.68,512,175.52,512,256z"/>
<path style="fill:#3E4347;" d="M400.176,417.44c-16-12.208-44.48-34.928-88.112-47.28c-35.024-10.624-80.176-9.728-112.128,0.016
	c-41.488,11.76-68.64,32.448-88.128,47.248c15.92-25.136,46.592-50.864,82.656-64c41.392-15.072,84.384-14.08,123.056,0.016
	C353.728,366.688,384.272,392.4,400.176,417.44z"/>
<ellipse style="fill:#F4C534;" cx="367.509" cy="214.585" rx="98.447" ry="98.447"/>
<path style="fill:#FFFFFF;" d="M451.744,214.64c-2.592,46.832-42.4,84.768-88.944,84.768s-82.288-37.952-79.696-84.768
	s42.56-84.912,89.088-84.912S454.352,167.824,451.744,214.64z"/>
<path style="fill:#3E4347;" d="M407.376,214.576c0.096,22.064-17.872,40.032-39.936,39.936
	c-22.064,0.096-40.032-17.888-39.936-39.952c-0.096-22.064,17.872-40.032,39.936-39.936
	C389.504,174.528,407.472,192.512,407.376,214.576z"/>
<ellipse transform="matrix(-0.7071 -0.7071 0.7071 -0.7071 510.8839 611.4763)" style="fill:#FFFFFF;" cx="382.083" cy="199.931" rx="11.92" ry="7.648"/>
<g>
	<path style="fill:#F4C534;" d="M409.664,125.76c-36.544-17.344-81.552-11.088-111.776,19.136s-36.56,75.312-19.248,111.888
		C331.632,223.856,375.952,180.912,409.664,125.76z"/>
	<ellipse style="fill:#F4C534;" cx="144.48" cy="214.589" rx="98.447" ry="98.447"/>
</g>
<path style="fill:#FFFFFF;" d="M60.256,214.64c2.592,46.832,42.4,84.768,88.944,84.768s82.288-37.952,79.696-84.768
	c-2.592-46.832-42.56-84.912-89.088-84.912C93.248,129.728,57.648,167.824,60.256,214.64z"/>
<path style="fill:#3E4347;" d="M104.624,214.576c-0.096,22.064,17.872,40.032,39.936,39.936
	c22.064,0.096,40.032-17.888,39.952-39.952c0.096-22.064-17.872-40.032-39.936-39.936
	C122.496,174.528,104.528,192.512,104.624,214.576z"/>
<ellipse transform="matrix(-0.7071 -0.7071 0.7071 -0.7071 80.3805 433.166)" style="fill:#FFFFFF;" cx="129.902" cy="199.936" rx="7.648" ry="11.92"/>
<path style="fill:#F4C534;" d="M102.336,125.76c36.544-17.344,81.552-11.088,111.776,19.136s36.56,75.312,19.248,111.888
	C180.368,223.856,136.048,180.912,102.336,125.76z"/>
<g>
	<path style="fill:#3E4347;" d="M278.032,111.632c0,0,44.752-10.416,86.496-54.912C364.528,56.72,313.024,160.128,278.032,111.632z"
		/>
	<path style="fill:#3E4347;" d="M233.968,111.632c0,0-44.752-10.416-86.496-54.912C147.472,56.72,198.976,160.128,233.968,111.632z"
		/>
</g>
<g>
</g>
<g>
</g>
<g>
</g>
<g>
</g>
<g>
</g>
<g>
</g>
<g>
</g>
<g>
</g>
<g>
</g>
<g>
</g>
<g>
</g>
<g>
</g>
<g>
</g>
<g>
</g>
<g>
</g>
</svg>
