<?xml version="1.0" encoding="iso-8859-1"?>
<!-- Generator: Adobe Illustrator 19.0.0, SVG Export Plug-In . SVG Version: 6.00 Build 0)  -->
<svg version="1.1" id="Capa_1" xmlns="http://www.w3.org/2000/svg" xmlns:xlink="http://www.w3.org/1999/xlink" x="0px" y="0px"
	 viewBox="0 0 551.812 551.812" style="enable-background:new 0 0 551.812 551.812;" xml:space="preserve">
<circle style="fill:#FFD93B;" cx="275.906" cy="256" r="256"/>
<path style="fill:#3E4347;" d="M393.042,357.328c-16.32,49.12-62.56,84.48-117.12,84.48s-100.8-35.52-117.28-84.48
	c-2.56-8.16,4.48-16,12.8-14.72c70.08,10.24,139.68,10.72,208.8,0C388.722,341.328,395.762,349.328,393.042,357.328z"/>
<path style="fill:#F4C534;" d="M530.69,256c0,141.44-114.64,256-256,256c-80.48,0-152.32-37.12-199.28-95.28
	c43.92,35.52,99.84,56.72,160.72,56.72c141.36,0,256-114.56,256-256c0-60.88-21.2-116.8-56.72-160.72
	C493.49,103.68,530.69,175.52,530.69,256z"/>
<g>
	<path style="fill:#FFFFFF;" d="M255.314,208.688c0,43.808-35.424,79.376-79.376,79.376c-43.808,0-79.376-35.568-79.376-79.376
		c0-43.952,35.584-79.52,79.376-79.52C219.89,129.168,255.314,164.752,255.314,208.688z"/>
	<path style="fill:#FFFFFF;" d="M455.25,208.688c0,43.808-35.424,79.376-79.376,79.376c-43.792,0-79.376-35.568-79.376-79.376
		c0-43.952,35.584-79.52,79.376-79.52C419.826,129.168,455.25,164.752,455.25,208.688z"/>
</g>
<path style="fill:#3E4347;" d="M505.138,196.624h-39.504c-5.92-44.336-43.888-78.656-89.76-78.656
	c-33.952,0-63.552,18.816-79.04,46.56c-4.208,7.536-12.16,11.92-20.784,11.872c-0.048,0-0.112,0-0.16,0c-0.08,0-0.144,0-0.224,0
	c-8.592,0.064-16.512-4.336-20.688-11.84c-15.488-27.76-45.088-46.592-79.04-46.592c-45.856,0-83.744,34.32-89.68,78.656H46.626v24
	h39.92c5.568,41.408,39.216,74.736,81.6,78.32c53.632,4.544,99.44-38.224,98.288-92.144c0.912-4.512,4.72-7.968,9.472-7.968
	c4.864,0,9.376,3.504,9.376,9.872c0,52.288,44.56,94.384,97.696,90.304c42.528-3.264,76.816-36.528,82.368-78.384h39.776v-24
	H505.138z M175.954,276.848c-37.584,0-68.176-30.592-68.176-68.16c0-37.664,30.576-68.304,68.176-68.304
	c37.584,0,68.16,30.64,68.16,68.304C244.098,246.272,213.522,276.848,175.954,276.848z M375.874,276.848
	c-37.584,0-68.176-30.592-68.176-68.16c0-37.664,30.576-68.304,68.176-68.304c37.584,0,68.16,30.64,68.16,68.304
	C444.034,246.272,413.458,276.848,375.874,276.848z"/>
<g>
	<path style="fill:#E24B4B;" d="M425.202,195.536c0,26.128-49.328,63.008-49.328,63.008s-49.328-36.88-49.328-63.008
		c0-13.84,11.296-25.008,25.12-25.008c11.632,0,21.44,7.952,24.208,18.784c2.768-10.832,12.672-18.784,24.32-18.784
		C414.018,170.528,425.202,181.712,425.202,195.536z"/>
	<path style="fill:#E24B4B;" d="M225.266,189.616c0,26.128-49.328,63.008-49.328,63.008s-49.328-36.88-49.328-63.008
		c0-13.84,11.296-25.008,25.12-25.008c11.632,0,21.44,7.952,24.208,18.784c2.768-10.832,12.672-18.784,24.32-18.784
		C214.098,164.608,225.266,175.792,225.266,189.616z"/>
	<path style="fill:#E24B4B;" d="M246.754,386.784c-23.152-7.584-50.88,4.8-49.504,31.232
		c13.248,78.912,47.328,134.336,78.672,133.792c31.392-0.496,65.344-55.776,78.544-132.832c1.424-25.808-26.192-38.32-49.392-31.504
		C285.954,392.288,265.874,392.192,246.754,386.784z"/>
</g>
<g>
</g>
<g>
</g>
<g>
</g>
<g>
</g>
<g>
</g>
<g>
</g>
<g>
</g>
<g>
</g>
<g>
</g>
<g>
</g>
<g>
</g>
<g>
</g>
<g>
</g>
<g>
</g>
<g>
</g>
</svg>
