<?xml version="1.0" encoding="iso-8859-1"?>
<!-- Generator: Adobe Illustrator 19.0.0, SVG Export Plug-In . SVG Version: 6.00 Build 0)  -->
<svg version="1.1" id="Capa_1" xmlns="http://www.w3.org/2000/svg" xmlns:xlink="http://www.w3.org/1999/xlink" x="0px" y="0px"
	 viewBox="0 0 512.001 512.001" style="enable-background:new 0 0 512.001 512.001;" xml:space="preserve">
<circle style="fill:#FFD93B;" cx="256" cy="265.905" r="246.096"/>
<path style="fill:#F4C534;" d="M502.096,265.905c0,135.968-110.208,246.096-246.096,246.096c-77.36,0-146.432-35.68-191.568-91.6
	c42.224,34.144,95.984,54.528,154.496,54.528c135.888,0,246.096-110.128,246.096-246.096c0-58.528-20.384-112.272-54.528-154.496
	C466.336,119.489,502.096,188.545,502.096,265.905z"/>
<g>
	<path style="fill:#E24B4B;" d="M182.704,19.857c11.632,29.696-27.36,97.376-27.36,97.376S80.752,94.017,69.12,64.337
		c-6.272-16.032,1.68-34.224,17.712-40.496c12.96-5.072,27.328-0.864,35.648,9.408c-0.88-13.2,6.768-26.016,19.728-31.088
		C158.288-4.143,176.432,3.825,182.704,19.857z"/>
	<path style="fill:#E24B4B;" d="M498.288,97.201c-17.12,35.888-112,58.08-112,58.08s-42.448-87.712-25.312-123.6
		c9.248-19.376,32.576-27.632,51.968-18.384c15.68,7.488,24.096,24.144,21.824,40.496c11.28-12.048,29.456-16.016,45.136-8.544
		C499.344,54.513,507.536,77.825,498.288,97.201z"/>
</g>
<path style="fill:#F4C534;" d="M268.56,230.721c0,55.952-45.264,101.216-101.216,101.216c-55.792,0-101.216-45.264-101.216-101.216
	c0-55.792,45.424-101.056,101.216-101.056C223.296,129.681,268.56,174.929,268.56,230.721z"/>
<path style="fill:#FFFFFF;" d="M250.432,230.737c-5.744,46.464-47.52,84.048-93.456,84.048c-45.792,0-78.448-37.584-72.704-84.048
	c5.728-46.336,47.648-83.904,93.44-83.904C223.648,146.833,256.16,184.417,250.432,230.737z"/>
<circle style="fill:#3E4347;" cx="173.616" cy="196.161" r="34.672"/>
<ellipse transform="matrix(-0.7071 -0.7071 0.7071 -0.7071 186.961 445.4086)" style="fill:#FFFFFF;" cx="185.728" cy="183.983" rx="10.736" ry="7.568"/>
<path style="fill:#F4C534;" d="M445.872,244.593c0,45.376-36.704,82.08-82.08,82.08c-45.232,0-82.08-36.704-82.08-82.08
	c0-45.248,36.832-81.936,82.08-81.936C409.168,162.641,445.872,199.345,445.872,244.593z"/>
<path style="fill:#FFFFFF;" d="M431.152,244.609c3.824,36.8-23.216,66.544-60.464,66.544c-37.136,0-70.464-29.76-74.288-66.544
	c-3.808-36.688,23.344-66.448,60.48-66.448C394.144,178.161,427.344,207.921,431.152,244.609z"/>
<circle style="fill:#3E4347;" cx="351.808" cy="224.481" r="34.672"/>
<ellipse transform="matrix(-0.7071 -0.7071 0.7071 -0.7071 471.1412 619.679)" style="fill:#FFFFFF;" cx="363.91" cy="212.263" rx="10.736" ry="7.568"/>
<path style="fill:#3E4347;" d="M98.112,349.729c12.208,18.528,24.464,31.2,39.744,44.464
	c31.696,26.704,73.648,42.288,117.872,42.816c46.464-0.64,86.96-16.352,118.416-42.832c15.104-13.104,27.76-26.288,39.744-44.448
	c-8.88,19.536-19.152,36.192-33.872,50.816c-34.96,34.272-74.096,50.72-123.744,51.84c-51.104-1.168-89.984-18.256-124.272-51.856
	C117.184,385.809,106.896,369.009,98.112,349.729z"/>
<g>
</g>
<g>
</g>
<g>
</g>
<g>
</g>
<g>
</g>
<g>
</g>
<g>
</g>
<g>
</g>
<g>
</g>
<g>
</g>
<g>
</g>
<g>
</g>
<g>
</g>
<g>
</g>
<g>
</g>
</svg>
