<?xml version="1.0" encoding="iso-8859-1"?>
<!-- Generator: Adobe Illustrator 19.0.0, SVG Export Plug-In . SVG Version: 6.00 Build 0)  -->
<svg version="1.1" id="Capa_1" xmlns="http://www.w3.org/2000/svg" xmlns:xlink="http://www.w3.org/1999/xlink" x="0px" y="0px"
	 viewBox="0 0 512 512" style="enable-background:new 0 0 512 512;" xml:space="preserve">
<circle style="fill:#FFD93B;" cx="256" cy="256" r="256"/>
<g>
	<path style="fill:#F4C534;" d="M510.784,256c0,141.44-114.64,256-256,256c-80.48,0-152.32-37.12-199.28-95.28
		c43.92,35.52,99.84,56.72,160.72,56.72c141.36,0,256-114.56,256-256c0-60.88-21.2-116.8-56.72-160.72
		C473.584,103.68,510.784,175.52,510.784,256z"/>
	<path style="fill:#F4C534;" d="M456.272,231.712c0,45.76-41.856,82.88-93.632,82.88c-51.632,0-93.632-37.12-93.632-82.88
		s42-82.88,93.632-82.88C414.416,148.832,456.272,185.952,456.272,231.712z"/>
</g>
<ellipse style="fill:#FFFFFF;" cx="362.64" cy="231.712" rx="73.824" ry="65.312"/>
<path style="fill:#3E4347;" d="M373.472,233.392c0,19.12-15.424,34.544-34.544,34.544s-34.544-15.424-34.544-34.544
	c0-18.992,15.424-34.544,34.544-34.544C358.048,198.848,373.472,214.4,373.472,233.392z"/>
<ellipse transform="matrix(-0.7071 -0.7071 0.7071 -0.7071 441.7868 626.3922)" style="fill:#FFFFFF;" cx="350.623" cy="221.699" rx="10.064" ry="6.752"/>
<path style="fill:#3E4347;" d="M379.616,138.96c-39.504,21.072-78.768,48.88-116.32,82.736
	c27.776-48.704,57.424-90.112,90.272-119.744c4.864-4.48,11.056-6.32,17.168-5.792c5.568,0.48,11.072,3.072,15.168,7.632
	C395.728,114.736,392.672,132.112,379.616,138.96z"/>
<path style="fill:#F4C534;" d="M55.728,231.712c0,45.76,41.856,82.88,93.632,82.88c51.632,0,93.632-37.12,93.632-82.88
	s-42-82.88-93.632-82.88C97.584,148.832,55.728,185.952,55.728,231.712z"/>
<ellipse style="fill:#FFFFFF;" cx="149.36" cy="231.712" rx="73.824" ry="65.312"/>
<path style="fill:#3E4347;" d="M207.616,233.392c0,19.12-15.424,34.544-34.544,34.544s-34.544-15.424-34.544-34.544
	c0-18.992,15.424-34.544,34.544-34.544C192.192,198.848,207.616,214.4,207.616,233.392z"/>
<ellipse transform="matrix(-0.7071 -0.7071 0.7071 -0.7071 158.688 509.0997)" style="fill:#FFFFFF;" cx="184.782" cy="221.684" rx="10.064" ry="6.752"/>
<g>
	<path style="fill:#3E4347;" d="M132.384,138.96c39.52,21.072,78.768,48.88,116.32,82.736
		c-27.776-48.704-57.424-90.112-90.272-119.744c-4.864-4.48-11.04-6.32-17.168-5.792c-5.568,0.48-11.072,3.072-15.168,7.632
		C116.272,114.736,119.328,132.112,132.384,138.96z"/>
	<path style="fill:#3E4347;" d="M331.744,387.072c-41.152-35.776-122.016,4.656-174.064,37.808c-6.544,4.224-13.376-4.512-8-10.032
		c137.424-140.912,179.6-77.648,192.4-34.608C343.824,386.192,336.544,391.152,331.744,387.072z"/>
</g>
<g>
</g>
<g>
</g>
<g>
</g>
<g>
</g>
<g>
</g>
<g>
</g>
<g>
</g>
<g>
</g>
<g>
</g>
<g>
</g>
<g>
</g>
<g>
</g>
<g>
</g>
<g>
</g>
<g>
</g>
</svg>
