<?xml version="1.0" encoding="iso-8859-1"?>
<!-- Generator: Adobe Illustrator 19.0.0, SVG Export Plug-In . SVG Version: 6.00 Build 0)  -->
<svg version="1.1" id="Capa_1" xmlns="http://www.w3.org/2000/svg" xmlns:xlink="http://www.w3.org/1999/xlink" x="0px" y="0px"
	 viewBox="0 0 505.581 505.581" style="enable-background:new 0 0 505.581 505.581;" xml:space="preserve">
<path style="fill:#FFD93B;" d="M503.545,220.261c20.608,165.296-118.416,304.064-283.632,283.232
	C107.289,489.301,16.345,398.373,2.089,285.749C-18.839,120.277,120.473-18.939,285.961,2.117
	C398.617,16.453,489.497,107.557,503.545,220.261z"/>
<g>
	<path style="fill:#F4C534;" d="M503.881,282.517c-13.184,115.424-106.576,208.576-222.048,221.44
		c-91.072,10.144-173.872-28.112-225.824-92.464c50.224,40.624,116.336,62.272,187.552,54.416
		c115.872-12.8,209.552-106.464,222.336-222.336c7.856-71.216-13.792-137.328-54.416-187.552
		C475.913,108.101,514.313,191.173,503.881,282.517z"/>
	<path style="fill:#F4C534;" d="M198.841,170.261c16.32,17.6,26.4,41.12,26.4,67.04c0,61.44-55.84,109.6-119.52,96.48
		c-37.12-7.52-67.36-37.6-75.36-74.72c-7.36-34.4,3.36-66.4,24.32-88.8c2.72-3.04,6.72-4.48,10.88-4.48h122.4
		C191.961,165.781,195.961,167.221,198.841,170.261z"/>
	<path style="fill:#F4C534;" d="M449.401,237.317c0,61.44-55.84,109.6-119.52,96.48c-37.28-7.52-67.36-37.6-75.36-74.72
		c-7.36-34.4,3.36-66.4,24.16-88.8c2.88-3.04,6.88-4.48,10.88-4.48h122.4c4.096,0,8.144,1.552,10.944,4.544
		C439.353,187.925,449.401,211.429,449.401,237.317z"/>
</g>
<g>
	<path style="fill:#FFFFFF;" d="M113.513,312.757c-29.312-4.912-53.76-27.504-60.944-56.352
		c-6.32-25.408,0.352-51.152,17.088-69.888h114.24c12.56,14.032,19.44,32.032,19.44,50.864
		C203.337,283.877,161.545,320.821,113.513,312.757z"/>
	<path style="fill:#FFFFFF;" d="M337.513,312.757c-29.312-4.912-53.744-27.504-60.928-56.352
		c-6.32-25.392,0.352-51.12,17.088-69.888h114.24c12.56,14.032,19.44,32.032,19.44,50.864
		C427.337,283.877,385.545,320.821,337.513,312.757z"/>
</g>
<path style="fill:#3E4347;" d="M180.745,257.429c-16.224,26.352-53.504,26.464-70.048,0.16c-7.808-12.416-7.968-28.928-0.464-41.52
	c16.192-27.184,54.544-27.184,70.752-0.032C188.441,228.565,188.393,244.997,180.745,257.429z"/>
<path style="fill:#FFFFFF;" d="M168.521,231.221c-3.216,3.36-9.792,1.904-14.752-2.928c-4.816-4.96-6.144-11.536-2.928-14.752
	c3.36-3.216,9.936-1.904,14.752,2.912S171.881,227.861,168.521,231.221z"/>
<path style="fill:#3E4347;" d="M404.761,257.429c-16.224,26.352-53.504,26.464-70.048,0.16c-7.808-12.416-7.984-28.928-0.464-41.52
	c16.192-27.184,54.528-27.184,70.752-0.032C412.457,228.565,412.409,244.997,404.761,257.429z"/>
<path style="fill:#FFFFFF;" d="M392.521,231.221c-3.216,3.36-9.792,1.904-14.752-2.928c-4.816-4.96-6.144-11.536-2.928-14.752
	c3.36-3.216,9.936-1.904,14.752,2.912C394.425,221.285,395.881,227.861,392.521,231.221z"/>
<g>
	<path style="fill:#3E4347;" d="M418.201,119.717c-87.472-2.032-125.632,28.672-175.2,32.48c-78.832,5.2-82.48-60.512-89.12-82.24
		c-7.248-22.672-15.616-35.712-39.84-32.8c-19.808,2.368-43.792,13.872-62.08,23.024c6.096-8.16,38.048-30.992,59.36-36.64
		c30.816-8.864,51.312,8.896,62.56,39.52c11.376,29.952,11.6,68.288,67.84,66.08C289.689,127.285,338.249,97.701,418.201,119.717z"
		/>
	<path style="fill:#3E4347;" d="M361.721,389.317c-58.656-9.392-106.944,36.128-165.6,32.64c-38.992-3.12-60.8-25.328-64.48-47.36
		c13.936,20.448,39.488,27.456,64.48,26.24C246.473,397.141,317.273,353.717,361.721,389.317z"/>
</g>
<g>
</g>
<g>
</g>
<g>
</g>
<g>
</g>
<g>
</g>
<g>
</g>
<g>
</g>
<g>
</g>
<g>
</g>
<g>
</g>
<g>
</g>
<g>
</g>
<g>
</g>
<g>
</g>
<g>
</g>
</svg>
