<?xml version="1.0" encoding="iso-8859-1"?>
<!-- Generator: Adobe Illustrator 19.0.0, SVG Export Plug-In . SVG Version: 6.00 Build 0)  -->
<svg version="1.1" id="Capa_1" xmlns="http://www.w3.org/2000/svg" xmlns:xlink="http://www.w3.org/1999/xlink" x="0px" y="0px"
	 viewBox="0 0 512 512" style="enable-background:new 0 0 512 512;" xml:space="preserve">
<circle style="fill:#FFD93B;" cx="256" cy="256" r="256"/>
<g>
	<path style="fill:#F4C534;" d="M512,256c0,141.44-114.64,256-256,256c-80.48,0-152.32-37.12-199.28-95.28
		c43.92,35.52,99.84,56.72,160.72,56.72c141.36,0,256-114.56,256-256c0-60.88-21.2-116.8-56.72-160.72
		C474.8,103.68,512,175.52,512,256z"/>
	<circle style="fill:#F4C534;" cx="149.328" cy="211.104" r="91.04"/>
</g>
<circle style="fill:#FFFFFF;" cx="149.328" cy="211.104" r="74.032"/>
<path style="fill:#3E4347;" d="M187.28,182.304c0.032,21.76-16.88,40.192-37.808,41.008s-38.048-16.304-38.08-38.08
	s17.04-40.048,37.968-40.848C170.288,143.568,187.248,160.528,187.28,182.304z"/>
<path style="fill:#FFFFFF;" d="M160.4,163.28c0,3.824-5.104,7.008-11.328,7.248s-11.344-2.544-11.36-6.384
	c0-3.824,5.104-7.168,11.344-7.424C155.28,156.512,160.4,159.472,160.4,163.28z"/>
<circle style="fill:#F4C534;" cx="362.672" cy="211.104" r="91.04"/>
<circle style="fill:#FFFFFF;" cx="362.672" cy="211.104" r="74.032"/>
<circle style="fill:#3E4347;" cx="362.704" cy="183.792" r="38"/>
<ellipse style="fill:#FFFFFF;" cx="362.416" cy="164.416" rx="11.36" ry="6.64"/>
<path style="fill:#3E4347;" d="M324.48,376.064c0,13.76-11.2,24.96-24.96,24.96h-87.04c-13.76,0-24.96-11.2-24.96-24.96
	c0-13.76,11.2-24.96,24.96-24.96h87.04C313.28,351.104,324.48,362.32,324.48,376.064z"/>
<g>
</g>
<g>
</g>
<g>
</g>
<g>
</g>
<g>
</g>
<g>
</g>
<g>
</g>
<g>
</g>
<g>
</g>
<g>
</g>
<g>
</g>
<g>
</g>
<g>
</g>
<g>
</g>
<g>
</g>
</svg>
