<?xml version="1.0" encoding="iso-8859-1"?>
<!-- Generator: Adobe Illustrator 19.0.0, SVG Export Plug-In . SVG Version: 6.00 Build 0)  -->
<svg version="1.1" id="Capa_1" xmlns="http://www.w3.org/2000/svg" xmlns:xlink="http://www.w3.org/1999/xlink" x="0px" y="0px"
	 viewBox="0 0 512 512" style="enable-background:new 0 0 512 512;" xml:space="preserve">
<circle style="fill:#FFD93B;" cx="256" cy="256" r="256"/>
<path style="fill:#F4C534;" d="M512,256c0,141.44-114.64,256-256,256c-80.48,0-152.32-37.12-199.28-95.28
	c43.92,35.52,99.84,56.72,160.72,56.72c141.36,0,256-114.56,256-256c0-60.88-21.2-116.8-56.72-160.72
	C474.8,103.68,512,175.52,512,256z"/>
<path style="fill:#3E4347;" d="M425.52,340.864c3.952,54.352-65.856,123.584-169.648,123.52
	C152.08,465.008,82.08,395.776,86.528,340.336c0.112-5.2,6.96-7.728,13.536-5.68c105.056,33.104,206.832,33.504,312.016,0.688
	C418.656,333.28,425.456,335.728,425.52,340.864z"/>
<path style="fill:#FFFFFF;" d="M103.856,335.952c5.136,30.432,71.856,62.176,155.056,60.896
	c82.096,0.176,148.624-32.128,154.944-61.776c-0.608,0.128-1.168,0.112-1.776,0.256C308.176,367.808,207.6,367.696,103.856,335.952z
	"/>
<path style="fill:#F4C534;" d="M512,192.272c0,70.448-57.312,127.76-127.776,127.76c-70.624,0-127.936-57.328-127.936-127.76
	c0-70.624,57.312-127.936,127.936-127.936C454.688,64.336,512,121.648,512,192.272z"/>
<path style="fill:#FFFFFF;" d="M486.864,192.272c0,56.608-46.032,102.64-102.64,102.64c-56.768,0-102.8-46.032-102.8-102.64
	c0-56.768,46.032-102.8,102.8-102.8C440.832,89.472,486.864,135.504,486.864,192.272z"/>
<circle style="fill:#3E4347;" cx="384.16" cy="192.16" r="55.232"/>
<ellipse transform="matrix(-0.7071 -0.7071 0.7071 -0.7071 565.4333 580.9167)" style="fill:#FFFFFF;" cx="403.028" cy="173.353" rx="18.176" ry="12.256"/>
<path style="fill:#F4C534;" d="M311.2,164.544c0,85.728-69.76,155.488-155.504,155.488C69.76,320.032,0,250.272,0,164.544
	C0,78.592,69.76,8.848,155.696,8.848C241.44,8.848,311.2,78.592,311.2,164.544z"/>
<path style="fill:#FFFFFF;" d="M280.608,164.544c0,68.896-56.016,124.912-124.912,124.912c-69.088,0-125.104-56.016-125.104-124.912
	c0-69.088,56.016-125.104,125.104-125.104C224.592,39.44,280.608,95.456,280.608,164.544z"/>
<circle style="fill:#3E4347;" cx="155.632" cy="164.48" r="67.216"/>
<ellipse transform="matrix(-0.7071 -0.7071 0.7071 -0.7071 204.7651 367.8905)" style="fill:#FFFFFF;" cx="178.575" cy="141.537" rx="22.128" ry="14.928"/>
<path style="fill:#E24B4B;" d="M255.872,464.384c42.384,0.016,78.96-11.616,107.296-28.976
	c-19.856-25.504-56.432-36.576-87.376-21.76c-12.656,5.936-26.688,6.176-39.376,0.304c-30.416-13.968-67.36-4.304-87.28,22.208
	C177.408,453.312,213.776,464.64,255.872,464.384z"/>
<g>
</g>
<g>
</g>
<g>
</g>
<g>
</g>
<g>
</g>
<g>
</g>
<g>
</g>
<g>
</g>
<g>
</g>
<g>
</g>
<g>
</g>
<g>
</g>
<g>
</g>
<g>
</g>
<g>
</g>
</svg>
