<?xml version="1.0" encoding="iso-8859-1"?>
<!-- Generator: Adobe Illustrator 19.0.0, SVG Export Plug-In . SVG Version: 6.00 Build 0)  -->
<svg version="1.1" id="Layer_1" xmlns="http://www.w3.org/2000/svg" xmlns:xlink="http://www.w3.org/1999/xlink" x="0px" y="0px"
	 viewBox="0 0 512 512" style="enable-background:new 0 0 512 512;" xml:space="preserve">
<circle style="fill:#FFC200;" cx="256" cy="256" r="256"/>
<g>
	<path style="fill:#F2B800;" d="M256,0c-6.74,0-13.392,0.34-20,0.852C368.028,11.068,472,121.348,472,256
		c0,134.656-103.972,244.928-236,255.148c6.608,0.512,13.26,0.852,20,0.852c141.392,0,256-114.608,256-256S397.392,0,256,0z"/>
	<path style="fill:#F2B800;" d="M255.956,479.824c-29.992-0.184-60.012-6.732-86.816-18.924
		c-27.364-12.708-51.856-30.708-70.888-52.08c-19.28-21.192-34.596-46.972-44.236-74.492c-9.552-27.908-13.272-57.184-10.788-84.74
		c0.912-10.08,9.224-17.676,19.332-17.676c0.584,0,1.168,0.024,1.756,0.08c9.344,0.844,16.748,8.244,17.596,17.592
		c4.284,46.408,24.42,89.224,56.704,120.552c31.864,31.076,74.104,48.892,115.908,48.892h2.948
		c41.808,0,84.048-17.816,115.892-48.872c32.312-31.42,52.444-74.292,56.708-120.716c0.92-10.06,9.232-17.64,19.32-17.64
		c0.588,0,1.188,0.028,1.784,0.084c9.332,0.856,16.716,8.248,17.56,17.568c2.532,27.752-1.188,56.988-10.74,84.832
		c-9.648,27.568-24.96,53.348-44.3,74.608c-18.968,21.308-43.468,39.308-70.78,51.988c-26.852,12.216-56.876,18.76-86.864,18.948
		c-0.016,0-0.036,0-0.056,0C255.988,479.824,255.972,479.824,255.956,479.824z"/>
</g>
<path style="fill:#F5F5F5;" d="M460.8,250.452c2.448,26.836-1.364,54.976-10.364,81.232c-9.196,26.26-23.656,50.932-42.656,71.816
	c-18.78,21.092-42.292,38.08-68.228,50.116C313.5,465.464,284.748,471.64,256,471.82c-28.752-0.176-57.504-6.356-83.552-18.212
	c-25.932-12.04-49.44-29.016-68.224-50.108c-19-20.884-33.46-45.556-42.66-71.816c-9.004-26.312-12.82-54.252-10.372-81.376
	c0.568-6.284,6.124-10.916,12.408-10.348c5.58,0.504,9.86,4.964,10.348,10.348c4.472,48.432,25.836,93.284,59.096,125.568
	c33.1,32.28,77.736,51.572,122.952,51.144c45.22,0.424,89.856-18.856,122.952-51.136c33.252-32.348,54.616-77,59.084-125.716
	c0.584-6.276,6.132-10.9,12.412-10.324c5.568,0.512,9.836,4.944,10.32,10.324L460.8,250.452z"/>
<g>
	<path style="fill:#263740;" d="M204,168c-6.628,0-12-5.372-12-12c0-19.848-16.152-36-36-36s-36,16.152-36,36
		c0,6.628-5.372,12-12,12s-12-5.372-12-12c0-33.084,26.916-60,60-60s60,26.916,60,60C216,162.628,210.628,168,204,168z"/>
	<path style="fill:#263740;" d="M404,168c-6.628,0-12-5.372-12-12c0-19.848-16.152-36-36-36s-36,16.152-36,36
		c0,6.628-5.372,12-12,12s-12-5.372-12-12c0-33.084,26.916-60,60-60s60,26.916,60,60C416,162.628,410.628,168,404,168z"/>
</g>
<g>
</g>
<g>
</g>
<g>
</g>
<g>
</g>
<g>
</g>
<g>
</g>
<g>
</g>
<g>
</g>
<g>
</g>
<g>
</g>
<g>
</g>
<g>
</g>
<g>
</g>
<g>
</g>
<g>
</g>
</svg>
