<?xml version="1.0" encoding="iso-8859-1"?>
<!-- Generator: Adobe Illustrator 19.0.0, SVG Export Plug-In . SVG Version: 6.00 Build 0)  -->
<svg version="1.1" id="Layer_1" xmlns="http://www.w3.org/2000/svg" xmlns:xlink="http://www.w3.org/1999/xlink" x="0px" y="0px"
	 viewBox="0 0 496 496" style="enable-background:new 0 0 496 496;" xml:space="preserve">
<path style="fill:#FFC200;" d="M216,356c0-57.816,38.816-98.192,94.4-98.192c17.572,0,36.04,4.268,53.648,12.372
	c0.516-0.236,1.024-0.468,1.54-0.7c1.368-0.608,2.724-1.18,4.072-1.74c1.108-0.452,2.208-0.9,3.304-1.312
	c1.364-0.524,2.736-1.008,4.1-1.484c1.092-0.384,2.204-0.76,3.308-1.112c1.396-0.44,2.78-0.84,4.176-1.24l0.636-0.18
	c0.88-0.248,1.752-0.492,2.624-0.72c1.44-0.368,2.872-0.684,4.3-1l0.864-0.192c0.768-0.172,1.544-0.344,2.308-0.496
	c1.336-0.256,2.672-0.468,4.008-0.676l1.34-0.216c0.716-0.116,1.424-0.236,2.144-0.324c1.588-0.208,3.196-0.348,4.796-0.492
	l0.916-0.088c0.576-0.06,1.144-0.116,1.716-0.156c2.472-0.164,4.944-0.252,7.4-0.252c31.508,0,57.608,12.976,74.328,34.752
	C494.556,278.092,496,263.22,496,248C496,111.032,384.96,0,248,0S0,111.032,0,248s111.04,248,248,248
	c21.548,0,42.444-2.756,62.376-7.92C267.704,462.236,216,416.62,216,356z"/>
<path style="fill:#F2B800;" d="M229.368,408.376c-41.864-4.52-80.592-24.164-108.336-55.444c-4.224-4.76-10.288-7.5-16.66-7.5
	c-5.448,0-10.692,1.992-14.768,5.608c-4.44,3.944-7.084,9.384-7.444,15.32c-0.356,5.936,1.624,11.66,5.572,16.1
	c40.252,45.408,98.672,71.452,160.276,71.452c5.432,0,10.828-0.276,16.204-0.68C250.472,440.208,238.128,425.204,229.368,408.376z"
	/>
<g>
	<path style="fill:#263740;" d="M196,196c-6.624,0-12-5.372-12-12c0-19.848-16.148-36-36-36s-36,16.152-36,36
		c0,6.628-5.376,12-12,12s-12-5.372-12-12c0-33.084,26.916-60,60-60s60,26.916,60,60C208,190.628,202.624,196,196,196z"/>
	<path style="fill:#263740;" d="M396,196c-6.624,0-12-5.372-12-12c0-19.848-16.148-36-36-36s-36,16.152-36,36
		c0,6.628-5.376,12-12,12s-12-5.372-12-12c0-33.084,26.916-60,60-60s60,26.916,60,60C408,190.628,402.624,196,396,196z"/>
</g>
<path style="fill:#E16B5A;" d="M364,288c-64.428-34.108-132-4.908-132,68s92,128,132,140c40-12,132-67.092,132-140
	S428.428,253.892,364,288z"/>
<path style="fill:#CC6152;" d="M364,288v208c40-12,132-67.092,132-140S428.428,253.892,364,288z"/>
<g>
	<path style="fill:#F2B800;" d="M456,248c0,5.672-0.256,11.28-0.632,16.856c14.704,5.932,27.128,15.416,36.564,27.7
		C494.556,278.092,496,263.22,496,248C496,111.032,384.96,0,248,0c-6.744,0-13.4,0.344-20,0.872C355.592,11.068,456,117.772,456,248
		z"/>
	<path style="fill:#F2B800;" d="M296.984,479.464c-21.696,8.34-44.852,13.736-68.984,15.664c6.6,0.528,13.256,0.872,20,0.872
		c21.548,0,42.444-2.756,62.376-7.92C305.984,485.42,301.5,482.54,296.984,479.464z"/>
</g>
<path style="fill:#F5F5F5;" d="M236.2,420.1c-47.652-3.056-92.152-24.432-123.5-59.788c-4.076-4.6-11.104-5.032-15.712-0.944
	c-4.596,4.08-5.02,11.112-0.94,15.712c38.144,43.032,93.532,67.704,151.952,67.704c1.928,0,3.852-0.092,5.772-0.148
	C247.336,435.592,241.384,428.084,236.2,420.1z"/>
<g>
</g>
<g>
</g>
<g>
</g>
<g>
</g>
<g>
</g>
<g>
</g>
<g>
</g>
<g>
</g>
<g>
</g>
<g>
</g>
<g>
</g>
<g>
</g>
<g>
</g>
<g>
</g>
<g>
</g>
</svg>
