<?xml version="1.0" encoding="iso-8859-1"?>
<!-- Generator: Adobe Illustrator 19.0.0, SVG Export Plug-In . SVG Version: 6.00 Build 0)  -->
<svg version="1.1" id="Layer_1" xmlns="http://www.w3.org/2000/svg" xmlns:xlink="http://www.w3.org/1999/xlink" x="0px" y="0px"
	 viewBox="0 0 512 512" style="enable-background:new 0 0 512 512;" xml:space="preserve">
<circle style="fill:#FFC200;" cx="256" cy="256" r="256"/>
<path style="fill:#F2B800;" d="M256,0c-6.74,0-13.392,0.34-20,0.852C368.032,11.072,472,121.348,472,256
	S368.032,500.932,236,511.148c6.608,0.512,13.26,0.852,20,0.852c141.392,0,256-114.608,256-256S397.392,0,256,0z"/>
<g>
	<path style="fill:#263740;" d="M156,236c-30.88,0-56-25.116-56-56s25.12-56,56-56s56,25.116,56,56S186.88,236,156,236z M156,148
		c-17.644,0-32,14.356-32,32s14.356,32,32,32s32-14.356,32-32S173.644,148,156,148z"/>
	<path style="fill:#263740;" d="M356,236c-30.884,0-56-25.116-56-56s25.116-56,56-56s56,25.116,56,56S386.884,236,356,236z M356,148
		c-17.644,0-32,14.356-32,32s14.356,32,32,32s32-14.356,32-32S373.644,148,356,148z"/>
	<path style="fill:#263740;" d="M82.004,144c-2.46,0-4.888-1.132-6.456-3.264c-2.612-3.568-1.84-8.576,1.72-11.188l60-44
		c3.564-2.6,8.568-1.836,11.18,1.728c2.612,3.564,1.84,8.572-1.72,11.184l-60,44C85.304,143.496,83.648,144,82.004,144z"/>
	<path style="fill:#263740;" d="M429.996,144c2.456,0,4.888-1.132,6.456-3.264c2.608-3.568,1.84-8.576-1.72-11.188l-60-44
		c-3.568-2.6-8.572-1.836-11.18,1.728c-2.616,3.564-1.844,8.572,1.72,11.184l60,44C426.696,143.496,428.352,144,429.996,144z"/>
</g>
<path style="fill:#F2B800;" d="M167.992,420.004c-9.152,0-17.116-6.2-19.376-15.072c-1.316-5.176-0.54-10.56,2.188-15.148
	c2.728-4.592,7.084-7.852,12.26-9.168l220-56c1.624-0.416,3.292-0.62,4.956-0.62c9.144,0,17.104,6.2,19.364,15.072
	c1.312,5.176,0.54,10.56-2.192,15.148c-2.728,4.592-7.084,7.852-12.26,9.168l-220,56
	C171.32,419.792,169.656,420.004,167.992,420.004z"/>
<path style="fill:#F5F5F5;" d="M167.992,412.004c-5.356,0-10.24-3.612-11.62-9.044c-1.636-6.42,2.248-12.956,8.668-14.588l220-56
	c6.444-1.64,12.956,2.252,14.588,8.668c1.636,6.42-2.248,12.956-8.668,14.588l-220,56
	C169.968,411.884,168.972,412.004,167.992,412.004z"/>
<g>
</g>
<g>
</g>
<g>
</g>
<g>
</g>
<g>
</g>
<g>
</g>
<g>
</g>
<g>
</g>
<g>
</g>
<g>
</g>
<g>
</g>
<g>
</g>
<g>
</g>
<g>
</g>
<g>
</g>
</svg>
