<?xml version="1.0" encoding="iso-8859-1"?>
<!-- Generator: Adobe Illustrator 19.0.0, SVG Export Plug-In . SVG Version: 6.00 Build 0)  -->
<svg version="1.1" id="Layer_1" xmlns="http://www.w3.org/2000/svg" xmlns:xlink="http://www.w3.org/1999/xlink" x="0px" y="0px"
	 viewBox="0 0 512 512" style="enable-background:new 0 0 512 512;" xml:space="preserve">
<circle style="fill:#FFC200;" cx="256" cy="256" r="256"/>
<g>
	<path style="fill:#F2B800;" d="M256,0c-6.74,0-13.396,0.34-20,0.852C368.024,11.072,472,121.356,472,256
		S368.024,500.932,236,511.148c6.604,0.512,13.26,0.852,20,0.852c141.384,0,256-114.616,256-256S397.384,0,256,0z"/>
	<path style="fill:#F2B800;" d="M411.772,412c-7.664,0-14.54-4.26-17.932-11.124C372.264,357.284,316.872,328,256,328
		s-116.264,29.284-137.84,72.872C114.76,407.74,107.888,412,100.228,412c-3.056,0-6.112-0.72-8.864-2.08
		c-4.784-2.372-8.364-6.456-10.076-11.524c-1.712-5.064-1.344-10.488,1.028-15.272C110.916,325.34,179.088,288,256,288
		s145.084,37.34,173.688,95.128c2.368,4.784,2.736,10.212,1.024,15.268c-1.712,5.068-5.284,9.152-10.08,11.528
		C417.888,411.28,414.824,412,411.772,412z"/>
</g>
<path style="fill:#F5F5F5;" d="M256,296c73.892,0,139.252,35.592,166.516,90.676c2.94,5.94,0.508,13.14-5.424,16.084
	c-5.94,2.932-13.136,0.508-16.084-5.428C378.116,351.076,319.844,320,256,320s-122.116,31.076-145.008,77.324
	c-2.94,5.936-10.144,8.368-16.084,5.424c-5.932-2.932-8.372-10.132-5.424-16.08C116.752,331.592,182.108,296,256,296z"/>
<g>
	<path style="fill:#263740;" d="M204,136c-6.624,0-12,5.376-12,12c0,19.852-16.148,36-36,36s-36-16.148-36-36
		c0-6.624-5.376-12-12-12s-12,5.376-12,12c0,33.084,26.916,60,60,60s60-26.916,60-60C216,141.376,210.624,136,204,136z"/>
	<path style="fill:#263740;" d="M404,136c-6.624,0-12,5.376-12,12c0,19.852-16.148,36-36,36s-36-16.148-36-36
		c0-6.624-5.376-12-12-12s-12,5.376-12,12c0,33.084,26.916,60,60,60s60-26.916,60-60C416,141.376,410.624,136,404,136z"/>
</g>
<g>
</g>
<g>
</g>
<g>
</g>
<g>
</g>
<g>
</g>
<g>
</g>
<g>
</g>
<g>
</g>
<g>
</g>
<g>
</g>
<g>
</g>
<g>
</g>
<g>
</g>
<g>
</g>
<g>
</g>
</svg>
