<?xml version="1.0" encoding="iso-8859-1"?>
<!-- Generator: Adobe Illustrator 19.0.0, SVG Export Plug-In . SVG Version: 6.00 Build 0)  -->
<svg version="1.1" id="Layer_1" xmlns="http://www.w3.org/2000/svg" xmlns:xlink="http://www.w3.org/1999/xlink" x="0px" y="0px"
	 viewBox="0 0 512 512" style="enable-background:new 0 0 512 512;" xml:space="preserve">
<circle style="fill:#FFC200;" cx="248" cy="248" r="248"/>
<g>
	<path style="fill:#F2B800;" d="M248,0c-6.744,0-13.4,0.344-20,0.876C355.592,11.068,456,117.776,456,248
		S355.592,484.932,228,495.124c6.6,0.532,13.256,0.876,20,0.876c136.96,0,248-111.032,248-248S384.96,0,248,0z"/>
	<path style="fill:#F2B800;" d="M403.772,404c-7.664,0-14.54-4.26-17.932-11.124C364.264,349.284,308.872,320,248,320
		s-116.264,29.284-137.84,72.872C106.756,399.74,99.892,404,92.228,404c-3.056,0-6.116-0.72-8.864-2.08
		c-4.784-2.372-8.364-6.456-10.076-11.524c-1.712-5.064-1.344-10.488,1.028-15.272C102.916,317.34,171.084,280,248,280
		s145.084,37.34,173.688,95.128c2.368,4.78,2.736,10.212,1.024,15.268c-1.712,5.068-5.288,9.152-10.08,11.524
		C409.892,403.28,406.824,404,403.772,404z"/>
</g>
<path style="fill:#F5F5F5;" d="M248,288c73.892,0,139.252,35.592,166.516,90.676c2.936,5.94,0.508,13.14-5.428,16.084
	c-5.936,2.932-13.132,0.508-16.08-5.428C370.116,343.076,311.844,312,248,312s-122.116,31.076-145.008,77.324
	c-2.936,5.936-10.144,8.368-16.08,5.424c-5.936-2.932-8.376-10.132-5.428-16.08C108.752,323.592,174.108,288,248,288z"/>
<g>
	<path style="fill:#263740;" d="M196,132c-6.624,0-12,5.376-12,12c0,19.852-16.148,36-36,36s-36-16.148-36-36
		c0-6.624-5.376-12-12-12s-12,5.376-12,12c0,33.084,26.916,60,60,60s60-26.916,60-60C208,137.376,202.624,132,196,132z"/>
	<path style="fill:#263740;" d="M396,132c-6.624,0-12,5.376-12,12c0,19.852-16.148,36-36,36s-36-16.148-36-36
		c0-6.624-5.376-12-12-12s-12,5.376-12,12c0,33.084,26.916,60,60,60s60-26.916,60-60C408,137.376,402.624,132,396,132z"/>
</g>
<path style="fill:#455C91;" d="M264,244c-17.644,0-32,14.016-32,31.66v108c0,17.644,14.356,32,32,32h35.892
	c6.196,0,12.22-1.84,17.336-5.152c1.196,2.76,2.376,6.052,3.828,10.132c3.228,9.132,7.228,20.412,14.944,35.056v38.22l4.436,4.636
	c8.172,8.552,19.46,13.448,30.96,13.448c13.696,0,26.092-6.724,34.016-18.436c7.584-11.22,14.096-31.436,4.888-65.524H472
	c18.916,0,40-16.952,40-41.272c0-9.72-1.468-17.66-4.368-23.696c2.68-10.86,2.048-25.72-7.276-37.62
	c0.076-15.884-4.588-27.748-14.184-36.084c-1.236-9.052-5.304-18.028-11.48-25.096c-7.088-8.128-16.084-12.6-25.3-12.6H327.416
	c-2.032,0-4,0.156-5.88,0.468C315.672,246.696,308.14,244,300,244H264z"/>
<path style="fill:#F5F5F5;" d="M315.892,384.064c20.62,14.48,15.484,30.08,36.108,67.596c0,17.908,0,26.208,0,35.832
	c20.628,21.556,68,4.168,36-75.452h84c10.08,0,24-9.788,24-25.272c0-10.776-2.336-19.724-6.736-20.732
	c4.4-6.6,7.252-24.312-5.196-34.484c1.048-12.912-0.244-26.6-13.696-33.72c1.772-12.924-9.068-30.172-20.984-30.172
	c-11.924,0-113.164,0-121.984,0s-11.524,4.108-11.524,10.956V384.06h0.012V384.064z"/>
<g>
	<path style="fill:#E6E6E6;" d="M368.108,412.04H388c27.772,69.1-4.236,91.304-26.66,81.888
		C377.256,486.88,387.972,461.452,368.108,412.04z"/>
	<path style="fill:#E6E6E6;" d="M496,386.76c0,15.488-13.92,25.272-24,25.272h-19.892c10.08,0,24-9.788,24-25.272
		c0-10.776-2.336-19.724-6.728-20.732c4.392-6.6,7.252-24.312-5.2-34.484c1.052-12.912-0.248-26.6-13.696-33.72
		c1.768-12.928-9.068-30.172-20.988-30.172c9.812,0,17.176,0,19.892,0c11.916,0,22.756,17.244,20.984,30.172
		c13.452,7.112,14.744,20.808,13.696,33.72c12.448,10.172,9.588,27.884,5.196,34.484C493.664,367.044,496,375.984,496,386.76z"/>
</g>
<path style="fill:#6E7FB3;" d="M315.892,275.66c0-8.8-7.204-16-16-16H264c-8.8,0-16,7.2-16,16v108c0,8.8,7.2,16,16,16h35.892
	c8.796,0,16-7.2,16-16V275.66z"/>
<g>
</g>
<g>
</g>
<g>
</g>
<g>
</g>
<g>
</g>
<g>
</g>
<g>
</g>
<g>
</g>
<g>
</g>
<g>
</g>
<g>
</g>
<g>
</g>
<g>
</g>
<g>
</g>
<g>
</g>
</svg>
