<?xml version="1.0" encoding="iso-8859-1"?>
<!-- Generator: Adobe Illustrator 19.0.0, SVG Export Plug-In . SVG Version: 6.00 Build 0)  -->
<svg version="1.1" id="Layer_1" xmlns="http://www.w3.org/2000/svg" xmlns:xlink="http://www.w3.org/1999/xlink" x="0px" y="0px"
	 viewBox="0 0 512 512" style="enable-background:new 0 0 512 512;" xml:space="preserve">
<circle style="fill:#FFC200;" cx="256" cy="256" r="256"/>
<g>
	<path style="fill:#F2B800;" d="M256,0c-6.744,0-13.4,0.34-20,0.852C368.032,11.072,472,121.348,472,256
		S368.032,500.928,235.996,511.148c6.604,0.512,13.26,0.852,20,0.852C397.392,512,512,397.392,512,256S397.392,0,256,0z"/>
	<path style="fill:#F2B800;" d="M134.632,444.272C48,388-17.36,228.1,103.468,144.488c1.764-1.224,3.916-1.632,5.944-1.16
		s3.768,1.772,4.86,3.632c72.896,109.7,165.828,170.072,295.692,192.068c4.228,0.464,7.2,4.096,6.724,8.304
		c-5.616,49.552-39.236,91.832-83.476,112.64C263.028,492.984,196.9,475.916,134.632,444.272z"/>
</g>
<path style="fill:#F5F5F5;" d="M408.644,346.816c-18.32,141.248-197.12,137.352-269.684,90.728
	C63.392,388.98-6.736,233.536,107.704,151.332C181.868,262.992,276.484,324.436,408.644,346.816z"/>
<g>
	<path style="fill:#263740;" d="M260.316,153.876c-5.56-3.6-7.136-11.044-3.528-16.592c10.812-16.648,6.064-38.988-10.584-49.8
		s-38.984-6.068-49.796,10.584c-3.604,5.556-11.048,7.136-16.596,3.532c-5.552-3.608-7.136-11.048-3.528-16.596
		c18.02-27.752,55.252-35.664,82.992-17.644c27.752,18.02,35.664,55.252,17.648,83C273.308,155.908,265.872,157.484,260.316,153.876
		z"/>
	<path style="fill:#263740;" d="M428.056,262.804c-5.56-3.608-7.14-11.048-3.532-16.6c10.812-16.648,6.064-38.984-10.584-49.796
		c-16.644-10.812-38.984-6.068-49.796,10.584c-3.604,5.564-11.048,7.136-16.592,3.532c-5.564-3.608-7.14-11.044-3.532-16.6
		c18.02-27.748,55.252-35.656,82.996-17.64c27.752,18.024,35.664,55.252,17.644,83C441.044,264.832,433.6,266.416,428.056,262.804z"
		/>
</g>
<g>
</g>
<g>
</g>
<g>
</g>
<g>
</g>
<g>
</g>
<g>
</g>
<g>
</g>
<g>
</g>
<g>
</g>
<g>
</g>
<g>
</g>
<g>
</g>
<g>
</g>
<g>
</g>
<g>
</g>
</svg>
