<?xml version="1.0" encoding="iso-8859-1"?>
<!-- Generator: Adobe Illustrator 19.0.0, SVG Export Plug-In . SVG Version: 6.00 Build 0)  -->
<svg version="1.1" id="Layer_1" xmlns="http://www.w3.org/2000/svg" xmlns:xlink="http://www.w3.org/1999/xlink" x="0px" y="0px"
	 viewBox="0 0 504 504" style="enable-background:new 0 0 504 504;" xml:space="preserve">
<g>
	
		<rect x="15.382" y="89.933" transform="matrix(0.7067 -0.7075 0.7075 0.7067 -63.4248 47.6678)" style="fill:#D80303;" width="20.8" height="20.8"/>
	
		<rect x="55.45" y="78.974" transform="matrix(0.7071 -0.7071 0.7071 0.7071 -42.2528 68.74)" style="fill:#D80303;" width="12.8" height="12.8"/>
</g>
<g>
	<path style="fill:#F7910B;" d="M494.4,296c0,104-95.2,188-242.4,188S9.6,400,9.6,296S104.8,36,252,36S494.4,192,494.4,296z"/>
	<path style="fill:#F7910B;" d="M494.4,296c0,104-95.2,156-242.4,156S9.6,400,9.6,296S104.8,20,252,20S494.4,192,494.4,296z"/>
</g>
<g>
	<path style="fill:#F9A908;" d="M252,20c147.2,0,242.4,172,242.4,276S399.2,452,252,452"/>
	<path style="fill:#F9A908;" d="M494.4,296c0,104-95.2,156-242.4,156S9.6,400,9.6,296S104.8,36,252,36S494.4,192,494.4,296z"/>
</g>
<path style="fill:#F9C55D;" d="M9.6,296C9.6,192,104.8,36,252,36"/>
<path style="fill:#F7910B;" d="M252,36c147.2,0,242.4,156,242.4,260S399.2,484,252,484"/>
<path style="fill:#EA7103;" d="M252,36c147.2,0,242.4,156,242.4,260"/>
<g>
	<circle style="fill:#F7910B;" cx="78.4" cy="272" r="4.8"/>
	<circle style="fill:#F7910B;" cx="42.4" cy="288" r="8.8"/>
	<circle style="fill:#F7910B;" cx="66.4" cy="256" r="1.6"/>
	<circle style="fill:#F7910B;" cx="103.2" cy="270.4" r="1.6"/>
</g>
<g>
	<circle style="fill:#F9A908;" cx="416.8" cy="274.4" r="6.4"/>
	<circle style="fill:#F9A908;" cx="436.8" cy="285.6" r="1.6"/>
	<circle style="fill:#F9A908;" cx="394.4" cy="215.2" r="2.4"/>
	<circle style="fill:#F9A908;" cx="390.4" cy="308" r="10.4"/>
	<circle style="fill:#F9A908;" cx="448" cy="308.8" r="4.8"/>
</g>
<g>
	<circle style="fill:#F7910B;" cx="70.4" cy="304" r="4"/>
	<circle style="fill:#F7910B;" cx="76.8" cy="236.8" r="3.2"/>
</g>
<g>
	<circle style="fill:#F9A908;" cx="34.4" cy="126.4" r="8.8"/>
	<circle style="fill:#F9A908;" cx="60" cy="98.4" r="4.8"/>
	<circle style="fill:#F9A908;" cx="469.6" cy="145.6" r="1.6"/>
	<circle style="fill:#F9A908;" cx="463.2" cy="122.4" r="6.4"/>
	<circle style="fill:#F9A908;" cx="484" cy="126.4" r="4"/>
	<circle style="fill:#F9A908;" cx="44" cy="150.4" r="4.8"/>
</g>
<g>
	<path style="fill:#5E0404;" d="M216.8,188c-8,13.6-20.8-3.2-42.4-15.2c-20.8-12-42.4-15.2-34.4-28.8s31.2-14.4,52-2.4
		C213.6,154.4,224,174.4,216.8,188z"/>
	<path style="fill:#5E0404;" d="M287.2,150.4c8,13.6,20.8-3.2,42.4-15.2c20.8-12,42.4-15.2,34.4-28.8S332.8,92,312,104
		C290.4,116.8,280,137.6,287.2,150.4z"/>
</g>
<path style="fill:#F7910B;" d="M192.8,349.6c0-20.8,26.4-37.6,59.2-37.6s59.2,16.8,59.2,37.6"/>
<g>
	<path style="fill:#02243E;" d="M351.2,340c-4.8,0-8.8-4-8.8-8.8c0-16.8,13.6-30.4,30.4-30.4c4.8,0,8.8,4,8.8,8.8s-4,8.8-8.8,8.8
		c-7.2,0-12.8,5.6-12.8,12.8C360,336,356,340,351.2,340z"/>
	<path style="fill:#02243E;" d="M152.8,340c-4.8,0-8.8-4-8.8-8.8c0-7.2-5.6-12.8-12.8-12.8c-4.8,0-8.8-4-8.8-8.8s4-8.8,8.8-8.8
		c16.8,0,30.4,13.6,30.4,30.4C161.6,336,157.6,340,152.8,340z"/>
	<path style="fill:#02243E;" d="M357.6,322.4c-2.4,0-4.8-0.8-6.4-2.4c-26.4-26.4-61.6-40.8-99.2-40.8s-72.8,14.4-99.2,40.8
		c-3.2,3.2-8.8,3.2-12.8,0s-3.2-8.8,0-12.8c61.6-61.6,161.6-61.6,223.2,0c3.2,3.2,3.2,8.8,0,12.8
		C361.6,321.6,359.2,322.4,357.6,322.4z"/>
</g>
<g>
	<circle style="fill:#D87703;" cx="160.8" cy="210.4" r="28"/>
	<circle style="fill:#D87703;" cx="343.2" cy="210.4" r="28"/>
</g>
<circle style="fill:#1E4784;" cx="160.8" cy="202.4" r="28"/>
<path style="fill:#00233F;" d="M160.8,174.4c15.2,0,28,12.8,28,28s-12.8,28-28,28"/>
<circle style="fill:#1E4784;" cx="343.2" cy="202.4" r="28"/>
<path style="fill:#00233F;" d="M343.2,174.4c15.2,0,28,12.8,28,28s-12.8,28-28,28"/>
<path style="fill:#F9C55D;" d="M218.4,242.4c0,9.6-28,5.6-62.4,5.6s-62.4,4.8-62.4-5.6c0-9.6,28-17.6,62.4-17.6
	C190.4,224.8,218.4,232.8,218.4,242.4z"/>
<path style="fill:#F9A908;" d="M410.4,242.4c0,9.6-28,5.6-62.4,5.6s-62.4,4.8-62.4-5.6c0-9.6,28-17.6,62.4-17.6
	S410.4,232.8,410.4,242.4z"/>
<rect y="244" style="fill:#1E4784;" width="504" height="210.4"/>
<rect y="268" style="fill:#00233F;" width="504" height="186.4"/>
<path style="fill:#FFFFFF;" d="M50.4,405.6l4-26.4H41.6v-13.6H56l2.4-16.8h-12v-13.6h14.4l4-25.6h13.6l-4,25.6H88l4-25.6h13.6
	l-4,25.6h12v13.6H100l-2.4,16.8h12v13.6H95.2l-4,26.4H77.6l4-26.4H67.2l-4,26.4H50.4z M83.2,364.8l2.4-16.8H72l-2.4,16.8H83.2z"/>
<path style="fill:#F9C55D;" d="M185.6,290.4l-20,23.2v0.8l28.8-5.6v18.4l-28.8-4.8v0.8l20,22.4l-16,9.6l-10.4-28l0,0L148,353.6
	l-16-9.6l19.2-22.4l0,0l-28.8,5.6V308l28,5.6l0,0l-19.2-23.2l16-9.6l10.4,28l0,0l10.4-28L185.6,290.4z"/>
<g>
	<path style="fill:#FFFFFF;" d="M207.2,393.6c0-8,5.6-13.6,13.6-13.6s12.8,5.6,13.6,13.6c0,8-5.6,13.6-13.6,13.6
		S207.2,401.6,207.2,393.6z M212,372.8l-3.2-67.2h24l-3.2,67.2H212z"/>
	<path style="fill:#FFFFFF;" d="M260.8,372.8v-4c-0.8-8,2.4-15.2,8.8-23.2c4.8-5.6,8.8-10.4,8.8-15.2c0-4.8-3.2-8.8-11.2-8.8
		c-4.8,0-11.2,1.6-14.4,4.8l-4.8-16c5.6-3.2,14.4-6.4,24.8-6.4c20,0,28.8,11.2,28.8,23.2c0,11.2-7.2,18.4-12.8,24.8
		c-5.6,6.4-8,12-7.2,18.4v2.4L260.8,372.8L260.8,372.8z M256.8,393.6c0-8,5.6-13.6,13.6-13.6s13.6,5.6,13.6,13.6
		s-5.6,13.6-13.6,13.6S256.8,401.6,256.8,393.6z"/>
	<path style="fill:#FFFFFF;" d="M340,418.4V404c-9.6-0.8-20-3.2-25.6-6.4l4.8-17.6c6.4,3.2,15.2,6.4,24.8,6.4
		c8.8,0,14.4-3.2,14.4-9.6c0-5.6-4.8-9.6-16-12.8c-16-5.6-26.4-12.8-26.4-27.2c0-12.8,9.6-23.2,24.8-26.4V296h14.4v12.8
		c9.6,0.8,16.8,2.4,21.6,4.8l-4,18.4c-4-1.6-10.4-4.8-21.6-4.8c-9.6,0-12.8,4-12.8,8c0,4.8,5.6,8,17.6,12.8
		c17.6,6.4,24.8,14.4,24.8,28s-9.6,24.8-26.4,27.2v15.2L340,418.4L340,418.4z"/>
</g>
<path style="fill:#ED1841;" d="M396,393.6c0-8,5.6-13.6,13.6-13.6s12.8,5.6,13.6,13.6c0,8-5.6,13.6-13.6,13.6
	C400.8,407.2,396,401.6,396,393.6z M400.8,372.8l-3.2-67.2h24l-3.2,67.2H400.8z"/>
<path style="fill:#FFFFFF;" d="M435.2,393.6c0-8,5.6-13.6,13.6-13.6s12.8,5.6,13.6,13.6c0,8-5.6,13.6-13.6,13.6
	C440.8,407.2,435.2,401.6,435.2,393.6z M440.8,372.8l-3.2-67.2h24l-3.2,67.2H440.8z"/>
<rect x="367.617" y="37.534" transform="matrix(-0.707 0.7072 -0.7072 -0.707 711.0444 -172.3155)" style="fill:#ED1841;" width="47.2" height="47.2"/>
<polygon style="fill:#FC4278;" points="462.4,99.2 455.2,92 462.4,84.8 469.6,92 "/>
<g>
	
		<rect x="448.021" y="38.088" transform="matrix(0.7078 -0.7064 0.7064 0.7078 100.6895 335.6027)" style="fill:#D80303;" width="16" height="16"/>
	
		<rect x="56.701" y="115.097" transform="matrix(0.7068 -0.7074 0.7074 0.7068 -76.5592 102.2733)" style="fill:#D80303;" width="56.799" height="56.799"/>
</g>
<rect x="428.11" y="138.22" transform="matrix(-0.7069 0.7074 -0.7074 -0.7069 865.4744 -51.0287)" style="fill:#ED1841;" width="30.402" height="31.202"/>
<g>
</g>
<g>
</g>
<g>
</g>
<g>
</g>
<g>
</g>
<g>
</g>
<g>
</g>
<g>
</g>
<g>
</g>
<g>
</g>
<g>
</g>
<g>
</g>
<g>
</g>
<g>
</g>
<g>
</g>
</svg>
