<?xml version="1.0" encoding="iso-8859-1"?>
<!-- Generator: Adobe Illustrator 19.0.0, SVG Export Plug-In . SVG Version: 6.00 Build 0)  -->
<svg version="1.1" id="Layer_1" xmlns="http://www.w3.org/2000/svg" xmlns:xlink="http://www.w3.org/1999/xlink" x="0px" y="0px"
	 viewBox="0 0 484.8 484.8" style="enable-background:new 0 0 484.8 484.8;" xml:space="preserve">
<circle style="fill:#FFFEFA;" cx="152" cy="352.8" r="40.8"/>
<g>
	<path style="fill:#F7910B;" d="M484.8,286.4c0,104-95.2,188-242.4,188S0,390.4,0,286.4s95.2-260,242.4-260S484.8,182.4,484.8,286.4
		z"/>
	<path style="fill:#F7910B;" d="M484.8,286.4c0,104-95.2,156-242.4,156S0,390.4,0,286.4s95.2-276,242.4-276S484.8,182.4,484.8,286.4
		z"/>
</g>
<g>
	<path style="fill:#F9A908;" d="M242.4,10.4c147.2,0,242.4,172,242.4,276s-95.2,156-242.4,156"/>
	<path style="fill:#F9A908;" d="M484.8,286.4c0,104-95.2,156-242.4,156S0,390.4,0,286.4s95.2-260,242.4-260S484.8,182.4,484.8,286.4
		z"/>
</g>
<path style="fill:#F9C55D;" d="M0,286.4c0-104,95.2-260,242.4-260"/>
<path style="fill:#F7910B;" d="M242.4,26.4c147.2,0,242.4,156,242.4,260s-95.2,188-242.4,188"/>
<path style="fill:#EA7103;" d="M242.4,26.4c147.2,0,242.4,156,242.4,260"/>
<path style="fill:#19BCA4;" d="M204,130.4c-6.4,8-13.6-4.8-27.2-16c-12.8-11.2-27.2-16-20.8-24s22.4-5.6,36,5.6
	C205.6,107.2,210.4,122.4,204,130.4z"/>
<path style="fill:#109DA0;" d="M204,130.4c-6.4,8-13.6-4.8-27.2-16c-12.8-11.2-27.2-16-20.8-24"/>
<path style="fill:#19BCA4;" d="M280.8,130.4c6.4,8,13.6-4.8,27.2-16c12.8-11.2,27.2-16,20.8-24c-6.4-8-22.4-5.6-36,5.6
	S274.4,122.4,280.8,130.4z"/>
<path style="fill:#109DA0;" d="M280.8,130.4c6.4,8,13.6-4.8,27.2-16c12.8-11.2,27.2-16,20.8-24"/>
<path style="fill:#F9C55D;" d="M208.8,232.8c0,9.6-28,5.6-62.4,5.6S84,243.2,84,232.8c0-9.6,28-17.6,62.4-17.6
	C180.8,215.2,208.8,223.2,208.8,232.8z"/>
<path style="fill:#F9A908;" d="M400.8,232.8c0,9.6-28,5.6-62.4,5.6s-62.4,4.8-62.4-5.6c0-9.6,28-17.6,62.4-17.6
	S400.8,223.2,400.8,232.8z"/>
<g>
	<circle style="fill:#F7910B;" cx="68.8" cy="262.4" r="4.8"/>
	<circle style="fill:#F7910B;" cx="32.8" cy="278.4" r="8.8"/>
	<circle style="fill:#F7910B;" cx="56.8" cy="246.4" r="1.6"/>
	<circle style="fill:#F7910B;" cx="93.6" cy="260.8" r="1.6"/>
</g>
<g>
	<circle style="fill:#F9A908;" cx="407.2" cy="264.8" r="6.4"/>
	<circle style="fill:#F9A908;" cx="427.2" cy="276" r="1.6"/>
	<circle style="fill:#F9A908;" cx="384.8" cy="205.6" r="2.4"/>
	<circle style="fill:#F9A908;" cx="380.8" cy="298.4" r="10.4"/>
	<circle style="fill:#F9A908;" cx="438.4" cy="299.2" r="4.8"/>
</g>
<g>
	<circle style="fill:#F7910B;" cx="60.8" cy="294.4" r="4"/>
	<circle style="fill:#F7910B;" cx="67.2" cy="227.2" r="3.2"/>
</g>
<g>
	<circle style="fill:#F9A908;" cx="24.8" cy="116.8" r="8.8"/>
	<circle style="fill:#F9A908;" cx="50.4" cy="88.8" r="4.8"/>
	<circle style="fill:#F9A908;" cx="460" cy="136" r="1.6"/>
	<circle style="fill:#F9A908;" cx="453.6" cy="112.8" r="6.4"/>
	<path style="fill:#F9A908;" d="M478.4,116.8c0,2.4-1.6,4-4,4s-4-1.6-4-4c0-2.4,1.6-4,4-4C476,112.8,478.4,115.2,478.4,116.8z"/>
	<circle style="fill:#F9A908;" cx="34.4" cy="140.8" r="4.8"/>
</g>
<path style="fill:#1E4784;" d="M132,157.6c3.2,0.8,5.6,3.2,7.2,6.4c7.2,14.4,24,20,38.4,13.6c6.4-3.2,14.4,0,17.6,6.4
	c3.2,6.4,0,14.4-6.4,17.6c-27.2,12.8-60.8,1.6-73.6-25.6c-3.2-6.4,0-14.4,6.4-17.6C125.6,156.8,128.8,156.8,132,157.6z"/>
<path style="fill:#02243E;" d="M116,176c-3.2-6.4,0-14.4,6.4-17.6c3.2-1.6,7.2-1.6,10.4-0.8s5.6,3.2,7.2,6.4
	c7.2,14.4,24,20,38.4,13.6c6.4-3.2,14.4,0,17.6,6.4c3.2,6.4,0,14.4-6.4,17.6"/>
<path style="fill:#1E4784;" d="M352.8,157.6c-3.2,0.8-5.6,3.2-7.2,6.4c-7.2,14.4-24,20-38.4,13.6c-6.4-3.2-14.4,0-17.6,6.4
	s0,14.4,6.4,17.6c27.2,12.8,60.8,1.6,73.6-25.6c3.2-6.4,0-14.4-6.4-17.6C359.2,156.8,356,156.8,352.8,157.6z"/>
<path style="fill:#02243E;" d="M368.8,176c3.2-6.4,0-14.4-6.4-17.6c-3.2-1.6-7.2-1.6-10.4-0.8c-3.2,0.8-5.6,3.2-7.2,6.4
	c-7.2,14.4-24,20-38.4,13.6c-6.4-3.2-14.4,0-17.6,6.4s0,14.4,6.4,17.6"/>
<path style="fill:#F7910B;" d="M183.2,321.6c0-20.8,26.4-37.6,59.2-37.6s59.2,16.8,59.2,37.6"/>
<g>
	<path style="fill:#02243E;" d="M341.6,311.2c-4.8,0-8.8-4-8.8-8.8c0-16.8,13.6-30.4,30.4-30.4c4.8,0,8.8,4,8.8,8.8
		s-4.8,9.6-9.6,9.6c-7.2,0-12.8,5.6-12.8,12.8C350.4,307.2,346.4,311.2,341.6,311.2z"/>
	<path style="fill:#02243E;" d="M143.2,311.2c-4.8,0-8.8-4-8.8-8.8c0-7.2-5.6-12.8-12.8-12.8c-4.8,0-8.8-4-8.8-8.8s4-8.8,8.8-8.8
		c16.8,0,30.4,13.6,30.4,30.4C152,307.2,148,311.2,143.2,311.2z"/>
	<path style="fill:#02243E;" d="M348,294.4c-2.4,0-4.8-0.8-6.4-2.4c-26.4-27.2-61.6-41.6-99.2-41.6s-72.8,14.4-99.2,40.8
		c-3.2,3.2-8.8,3.2-12.8,0c-3.2-3.2-3.2-8.8,0-12.8C160,248.8,200,232,241.6,232s81.6,16.8,111.2,46.4c3.2,3.2,3.2,8.8,0,12.8
		C352,293.6,349.6,294.4,348,294.4z"/>
</g>
<path style="fill:#FFFEFA;" d="M188.8,342.4l28-112L146.4,300c-3.2-0.8-6.4-0.8-9.6-0.8c-9.6,0-18.4,3.2-25.6,8.8
	c-5.6-2.4-11.2-3.2-17.6-3.2c-25.6,0-47.2,20.8-47.2,47.2c0,12,4.8,23.2,12.8,32c-5.6,8-9.6,17.6-9.6,28c0,25.6,20.8,47.2,47.2,47.2
	c10.4,0,20-4,28-9.6c7.2,5.6,16,8.8,25.6,8.8c22.4,0,40-16.8,42.4-37.6c12.8-7.2,22.4-21.6,22.4-37.6
	C215.2,364,204,348.8,188.8,342.4z"/>
<path style="fill:#EDE5CE;" d="M296,342.4l-28-112l69.6,69.6c3.2-0.8,6.4-0.8,9.6-0.8c9.6,0,18.4,3.2,25.6,8.8
	c5.6-2.4,11.2-3.2,17.6-3.2c25.6,0,47.2,20.8,47.2,47.2c0,12-4.8,23.2-12.8,32c5.6,8,9.6,17.6,9.6,28c0,25.6-20.8,47.2-47.2,47.2
	c-10.4,0-20-4-28-9.6c-7.2,5.6-16,8.8-25.6,8.8c-22.4,0-40-16.8-42.4-37.6c-12.8-7.2-22.4-21.6-22.4-37.6
	C269.6,364,280.8,348.8,296,342.4z"/>
<g>
</g>
<g>
</g>
<g>
</g>
<g>
</g>
<g>
</g>
<g>
</g>
<g>
</g>
<g>
</g>
<g>
</g>
<g>
</g>
<g>
</g>
<g>
</g>
<g>
</g>
<g>
</g>
<g>
</g>
</svg>
