<?xml version="1.0" encoding="iso-8859-1"?>
<!-- Generator: Adobe Illustrator 19.0.0, SVG Export Plug-In . SVG Version: 6.00 Build 0)  -->
<svg version="1.1" id="Layer_1" xmlns="http://www.w3.org/2000/svg" xmlns:xlink="http://www.w3.org/1999/xlink" x="0px" y="0px"
	 viewBox="0 0 485.194 485.194" style="enable-background:new 0 0 485.194 485.194;" xml:space="preserve">
<ellipse transform="matrix(-0.2738 -0.9618 0.9618 -0.2738 -291.0772 590.0416)" style="fill:#EA7103;" cx="77.219" cy="404.911" rx="68.001" ry="70.401"/>
<g>
	<path style="fill:#F7910B;" d="M485.194,286.597c0,104-95.2,188-242.4,188s-242.4-84-242.4-188s95.2-260,242.4-260
		S485.194,182.597,485.194,286.597z"/>
	<path style="fill:#F7910B;" d="M485.194,286.597c0,104-95.2,156-242.4,156s-242.4-52-242.4-156s95.2-276,242.4-276
		S485.194,182.597,485.194,286.597z"/>
</g>
<g>
	<path style="fill:#F9A908;" d="M242.794,10.597c147.2,0,242.4,172,242.4,276s-95.2,156-242.4,156"/>
	<path style="fill:#F9A908;" d="M485.194,286.597c0,104-95.2,156-242.4,156s-242.4-52-242.4-156s95.2-260,242.4-260
		S485.194,182.597,485.194,286.597z"/>
</g>
<path style="fill:#F9C55D;" d="M0.394,286.597c0-104,95.2-260,242.4-260"/>
<path style="fill:#F7910B;" d="M242.794,26.597c147.2,0,242.4,156,242.4,260s-95.2,188-242.4,188"/>
<path style="fill:#EA7103;" d="M242.794,26.597c147.2,0,242.4,156,242.4,260"/>
<g>
	<path style="fill:#19BCA4;" d="M225.194,80.197c-14.4,0.8-25.6,6.4-25.6,13.6l52-2.4C251.594,84.997,239.594,79.397,225.194,80.197
		z"/>
	<path style="fill:#19BCA4;" d="M379.594,152.197c-14.4-0.8-26.4,4.8-26.4,11.2l52,2.4
		C405.194,158.597,393.994,152.997,379.594,152.197z"/>
</g>
<g>
	<path style="fill:#109DA0;" d="M225.194,96.197c14.4-0.8,26.4,2.4,26.4-4.8l-52,2.4C199.594,100.997,210.794,96.997,225.194,96.197
		z"/>
	<path style="fill:#109DA0;" d="M378.794,168.197c14.4,0.8,26.4,4.8,26.4-2.4l-52-2.4
		C352.394,170.597,364.394,167.397,378.794,168.197z"/>
</g>
<path style="fill:#F9C55D;" d="M205.994,292.997c-34.4,0-62.4,8-62.4,17.6s28,5.6,62.4,5.6s62.4,4.8,62.4-5.6
	C268.394,300.997,241.194,292.997,205.994,292.997z"/>
<path style="fill:#F9A908;" d="M397.994,292.997c-34.4,0-62.4,8-62.4,17.6s28,5.6,62.4,5.6s62.4,4.8,62.4-5.6
	C460.394,300.997,432.394,292.997,397.994,292.997z"/>
<path style="fill:#1E4784;" d="M199.594,255.397c3.2,0.8,6.4,2.4,8.8,4.8c9.6,12.8,28,15.2,40.8,4.8c5.6-4.8,14.4-3.2,18.4,2.4
	c4.8,5.6,3.2,14.4-2.4,18.4c-24,18.4-59.2,14.4-77.6-9.6c-4.8-5.6-3.2-14.4,2.4-18.4
	C192.394,256.197,196.394,255.397,199.594,255.397z"/>
<path style="fill:#02243E;" d="M187.594,276.997c-4.8-5.6-3.2-14.4,2.4-18.4c3.2-2.4,6.4-3.2,9.6-2.4c3.2,0.8,6.4,2.4,8.8,4.8
	c9.6,12.8,28,15.2,40.8,4.8c5.6-4.8,14.4-3.2,18.4,2.4c4.8,5.6,3.2,14.4-2.4,18.4"/>
<path style="fill:#1E4784;" d="M404.394,255.397c-3.2,0.8-6.4,2.4-8.8,4.8c-9.6,12.8-28,15.2-40.8,4.8c-5.6-4.8-14.4-3.2-18.4,2.4
	c-4.8,5.6-3.2,14.4,2.4,18.4c24,18.4,59.2,14.4,77.6-9.6c4.8-5.6,3.2-14.4-2.4-18.4
	C411.594,256.197,408.394,255.397,404.394,255.397z"/>
<path style="fill:#02243E;" d="M417.194,276.997c4.8-5.6,3.2-14.4-2.4-18.4c-3.2-2.4-6.4-3.2-9.6-2.4c-3.2,0.8-6.4,2.4-8.8,4.8
	c-9.6,12.8-28,15.2-40.8,4.8c-5.6-4.8-14.4-3.2-18.4,2.4c-4.8,5.6-3.2,14.4,2.4,18.4"/>
<path style="fill:#ED7E11;" d="M236.394,367.397c0-20.8,26.4-37.6,59.2-37.6s59.2,16.8,59.2,37.6"/>
<path style="fill:#02243E;" d="M351.594,389.797c-2.4,0-4.8-0.8-6.4-2.4c-8-8-28-12.8-50.4-12.8s-43.2,4.8-50.4,12.8
	c-3.2,3.2-8.8,3.2-12.8,0c-3.2-3.2-3.2-8.8,0-12.8c11.2-11.2,35.2-17.6,63.2-17.6s52,6.4,63.2,17.6c3.2,3.2,3.2,8.8,0,12.8
	C355.594,388.997,353.194,389.797,351.594,389.797z"/>
<g>
	<circle style="fill:#F7910B;" cx="69.194" cy="262.597" r="4.8"/>
	<circle style="fill:#F7910B;" cx="33.194" cy="278.597" r="8.8"/>
	<circle style="fill:#F7910B;" cx="57.194" cy="246.597" r="1.6"/>
	<circle style="fill:#F7910B;" cx="93.994" cy="260.997" r="1.6"/>
</g>
<g>
	<circle style="fill:#F9A908;" cx="455.594" cy="285.797" r="6.4"/>
	<circle style="fill:#F9A908;" cx="427.594" cy="276.197" r="1.6"/>
	<circle style="fill:#F9A908;" cx="460.394" cy="332.197" r="2.4"/>
	<circle style="fill:#F9A908;" cx="429.994" cy="362.597" r="10.4"/>
	<circle style="fill:#F9A908;" cx="438.794" cy="299.397" r="4.8"/>
</g>
<g>
	<circle style="fill:#F7910B;" cx="61.194" cy="294.597" r="4"/>
	<circle style="fill:#F7910B;" cx="67.594" cy="227.397" r="3.2"/>
</g>
<g>
	<circle style="fill:#F9A908;" cx="25.194" cy="116.997" r="8.8"/>
	<circle style="fill:#F9A908;" cx="50.794" cy="88.997" r="4.8"/>
	<circle style="fill:#F9A908;" cx="460.394" cy="136.197" r="1.6"/>
	<circle style="fill:#F9A908;" cx="453.994" cy="112.997" r="6.4"/>
	<circle style="fill:#F9A908;" cx="474.794" cy="116.997" r="4"/>
	<circle style="fill:#F9A908;" cx="34.794" cy="140.997" r="4.8"/>
</g>
<path style="fill:#CCF2E3;" d="M137.194,290.597c-3.2,64-17.6,47.2-36,46.4c-18.4-0.8-34.4,14.4-31.2-49.6c3.2-64,19.2-88.8,37.6-88
	C126.794,200.197,140.394,226.597,137.194,290.597z"/>
<path style="fill:#AAD6C3;" d="M108.394,199.397c18.4,0.8,32,27.2,28.8,91.2c-3.2,64-17.6,47.2-36,46.4"/>
<path style="fill:#CCF2E3;" d="M68.394,326.597c-3.2,64-17.6,47.2-36,46.4c-18.4-0.8-35.2,24-32-40.8c3.2-64,20.8-97.6,39.2-96.8
	S71.594,262.597,68.394,326.597z"/>
<path style="fill:#AAD6C3;" d="M39.594,235.397c18.4,0.8,32,27.2,28.8,91.2c-3.2,64-17.6,47.2-36,46.4"/>
<path style="fill:#CCF2E3;" d="M201.994,320.197c-3.2,64-17.6,47.2-36,46.4c-18.4-0.8-34.4,14.4-31.2-49.6c3.2-64,19.2-88.8,37.6-88
	C191.594,229.797,205.194,256.197,201.994,320.197z"/>
<path style="fill:#AAD6C3;" d="M173.194,228.997c18.4,0.8,32,27.2,28.8,91.2s-17.6,47.2-36,46.4"/>
<path style="fill:#CCF2E3;" d="M200.394,363.397c-3.2,59.2-36.8,108-96.8,104.8c-60-3.2-106.4-54.4-103.2-113.6s52.8-78.4,112.8-76
	C173.194,281.797,202.794,303.397,200.394,363.397z"/>
<path style="fill:#AAD6C3;" d="M200.394,363.397c-3.2,59.2-36.8,108-96.8,104.8s-76-56.8-72.8-116s-15.2-72,79.2-72.8
	C169.994,278.597,202.794,301.797,200.394,363.397z"/>
<path style="fill:#CCF2E3;" d="M238.794,355.397c12.8,17.6-12,57.6-55.2,88c-43.2,31.2-87.2,27.2-100,9.6s11.2-42.4,54.4-73.6
	C180.394,348.997,225.994,337.797,238.794,355.397z"/>
<path style="fill:#AAD6C3;" d="M238.794,355.397c12.8,17.6-12,57.6-55.2,88c-43.2,31.2-87.2,27.2-100,9.6"/>
<g>
	<path style="fill:#CCF2E3;" d="M166.794,318.597c0.8,2.4-0.8,4-3.2,4.8l-106.4,23.2c-2.4,0.8-4-0.8-4.8-3.2l0,0
		c-0.8-2.4,0.8-4,3.2-4.8l106.4-24C164.394,314.597,166.794,316.197,166.794,318.597L166.794,318.597z"/>
	<path style="fill:#CCF2E3;" d="M163.594,341.797c0.8,2.4-0.8,4-3.2,4.8l-106.4,24c-1.6,0-3.2-1.6-4-4l0,0c-0.8-1.6,0.8-4,3.2-4
		l106.4-24C161.194,337.797,163.594,339.397,163.594,341.797L163.594,341.797z"/>
</g>
<g>
	
		<ellipse transform="matrix(-0.4657 0.885 -0.885 -0.4657 332.2943 241.9303)" style="fill:#E7F7EF;" cx="93.11" cy="221.283" rx="16.801" ry="4.8"/>
	<path style="fill:#E7F7EF;" d="M18.794,258.597c-4,8-5.6,15.2-3.2,16.8c2.4,1.6,8-4,12-12s5.6-15.2,3.2-16.8
		C28.394,244.997,23.594,250.597,18.794,258.597z"/>
	
		<ellipse transform="matrix(-0.4663 0.8846 -0.8846 -0.4663 457.599 228.7931)" style="fill:#E7F7EF;" cx="159.784" cy="252.431" rx="16.8" ry="4.8"/>
	<path style="fill:#E7F7EF;" d="M22.794,340.197c-0.8,19.2-4.8,35.2-8.8,35.2s-7.2-16-6.4-35.2c0.8-19.2,4-24,8.8-24
		C20.394,316.197,23.594,320.997,22.794,340.197z"/>
	<path style="fill:#E7F7EF;" d="M180.394,362.597c14.4-7.2,28-10.4,30.4-6.4s-8,13.6-23.2,20.8c-14.4,7.2-20,6.4-21.6,2.4
		C164.394,374.597,165.994,369.797,180.394,362.597z"/>
</g>
<g>
</g>
<g>
</g>
<g>
</g>
<g>
</g>
<g>
</g>
<g>
</g>
<g>
</g>
<g>
</g>
<g>
</g>
<g>
</g>
<g>
</g>
<g>
</g>
<g>
</g>
<g>
</g>
<g>
</g>
</svg>
