<?xml version="1.0" encoding="iso-8859-1"?>
<!-- Generator: Adobe Illustrator 19.0.0, SVG Export Plug-In . SVG Version: 6.00 Build 0)  -->
<svg version="1.1" id="Layer_1" xmlns="http://www.w3.org/2000/svg" xmlns:xlink="http://www.w3.org/1999/xlink" x="0px" y="0px"
	 viewBox="0 0 486.4 486.4" style="enable-background:new 0 0 486.4 486.4;" xml:space="preserve">
<g>
	<path style="fill:#F7910B;" d="M485.6,298.4c0,104-95.2,188-242.4,188s-242.4-84-242.4-188s95.2-260,242.4-260
		S485.6,194.4,485.6,298.4z"/>
	<path style="fill:#F7910B;" d="M485.6,298.4c0,104-95.2,156-242.4,156s-242.4-52-242.4-156s95.2-276,242.4-276
		S485.6,194.4,485.6,298.4z"/>
</g>
<g>
	<path style="fill:#F9A908;" d="M243.2,22.4c147.2,0,242.4,172,242.4,276s-95.2,156-242.4,156"/>
	<path style="fill:#F9A908;" d="M485.6,298.4c0,104-95.2,156-242.4,156s-242.4-52-242.4-156s95.2-260,242.4-260
		S485.6,194.4,485.6,298.4z"/>
</g>
<path style="fill:#F9C55D;" d="M0.8,298.4c0-104,95.2-260,242.4-260"/>
<path style="fill:#F7910B;" d="M243.2,38.4c147.2,0,242.4,156,242.4,260s-95.2,188-242.4,188"/>
<g>
	<path style="fill:#EA7103;" d="M243.2,38.4c147.2,0,242.4,156,242.4,260"/>
	<circle style="fill:#EA7103;" cx="160" cy="204" r="25.6"/>
	<circle style="fill:#EA7103;" cx="326.4" cy="204" r="25.6"/>
</g>
<circle style="fill:#1E4784;" cx="160" cy="196.8" r="25.6"/>
<path style="fill:#00233F;" d="M160,171.2c14.4,0,25.6,11.2,25.6,25.6s-11.2,25.6-25.6,25.6"/>
<circle style="fill:#1E4784;" cx="326.4" cy="196.8" r="25.6"/>
<path style="fill:#00233F;" d="M326.4,171.2c14.4,0,25.6,11.2,25.6,25.6s-11.2,25.6-25.6,25.6"/>
<g>
	<path style="fill:#19BCA4;" d="M192.8,126.4c0,7.2-11.2,4-26.4,4.8C152,132,140,136,140,128.8s11.2-12.8,25.6-13.6
		C180.8,114.4,192.8,119.2,192.8,126.4z"/>
	<path style="fill:#19BCA4;" d="M293.6,126.4c0,7.2,11.2,4,26.4,4.8c14.4,0.8,26.4,4.8,26.4-2.4s-11.2-12.8-25.6-13.6
		C305.6,114.4,293.6,119.2,293.6,126.4z"/>
</g>
<g>
	<path style="fill:#109DA0;" d="M192.8,126.4c0,7.2-11.2,4-26.4,4.8C152,132,140,136,140,128.8"/>
	<path style="fill:#109DA0;" d="M293.6,126.4c0,7.2,11.2,4,26.4,4.8c14.4,0.8,26.4,4.8,26.4-2.4"/>
</g>
<path style="fill:#F9C55D;" d="M209.6,244.8c0,9.6-28,5.6-62.4,5.6s-62.4,4.8-62.4-5.6c0-9.6,28-17.6,62.4-17.6
	S209.6,235.2,209.6,244.8z"/>
<path style="fill:#F9A908;" d="M401.6,244.8c0,9.6-28,5.6-62.4,5.6s-62.4,4.8-62.4-5.6c0-9.6,28-17.6,62.4-17.6
	S401.6,235.2,401.6,244.8z"/>
<g>
	<circle style="fill:#F7910B;" cx="69.6" cy="274.4" r="4.8"/>
	<circle style="fill:#F7910B;" cx="33.6" cy="290.4" r="8.8"/>
	<circle style="fill:#F7910B;" cx="57.6" cy="258.4" r="1.6"/>
	<circle style="fill:#F7910B;" cx="94.4" cy="272.8" r="1.6"/>
</g>
<g>
	<circle style="fill:#F9A908;" cx="408" cy="276.8" r="6.4"/>
	<circle style="fill:#F9A908;" cx="428" cy="288" r="1.6"/>
	<circle style="fill:#F9A908;" cx="385.6" cy="217.6" r="2.4"/>
	<circle style="fill:#F9A908;" cx="381.6" cy="310.4" r="10.4"/>
	<circle style="fill:#F9A908;" cx="439.2" cy="311.2" r="4.8"/>
</g>
<g>
	<circle style="fill:#F7910B;" cx="61.6" cy="306.4" r="4"/>
	<circle style="fill:#F7910B;" cx="68" cy="239.2" r="3.2"/>
</g>
<g>
	<circle style="fill:#F9A908;" cx="25.6" cy="128.8" r="8.8"/>
	<circle style="fill:#F9A908;" cx="51.2" cy="100.8" r="4.8"/>
	<circle style="fill:#F9A908;" cx="460.8" cy="148" r="1.6"/>
	<circle style="fill:#F9A908;" cx="454.4" cy="124.8" r="6.4"/>
	<path style="fill:#F9A908;" d="M479.2,128.8c0,2.4-1.6,4-4,4s-4-1.6-4-4s1.6-4,4-4C476.8,124.8,479.2,127.2,479.2,128.8z"/>
	<circle style="fill:#F9A908;" cx="35.2" cy="152.8" r="4.8"/>
</g>
<path style="fill:#F7910B;" d="M302.4,296c0,20.8-26.4,37.6-59.2,37.6S184,316.8,184,296"/>
<g>
	<path style="fill:#02243E;" d="M209.6,310.4c-25.6,0-52.8-15.2-73.6-36.8c-3.2-3.2-3.2-8.8,0-12.8c3.2-3.2,8.8-3.2,12.8,0
		c20,20,61.6,47.2,88.8,20c3.2-3.2,8.8-3.2,12.8,0c3.2,3.2,3.2,8.8,0,12.8C237.6,305.6,224,310.4,209.6,310.4z"/>
	<path style="fill:#02243E;" d="M276.8,310.4c-14.4,0-28-4.8-40-16.8c-3.2-3.2-3.2-8.8,0-12.8c3.2-3.2,8.8-3.2,12.8,0
		c27.2,27.2,68.8,0,88.8-20c3.2-3.2,8.8-3.2,12.8,0c3.2,3.2,3.2,8.8,0,12.8C329.6,295.2,302.4,310.4,276.8,310.4z"/>
	<path style="fill:#02243E;" d="M123.2,279.2c-4.8,0-8.8-4-8.8-8.8s4-8.8,8.8-8.8c7.2,0,12.8-5.6,12.8-12.8c0-4.8,4-8.8,8.8-8.8
		s8.8,4,8.8,8.8C152.8,265.6,139.2,279.2,123.2,279.2z"/>
	<path style="fill:#02243E;" d="M363.2,279.2c-16.8,0-30.4-13.6-30.4-30.4c0-4.8,4-8.8,8.8-8.8s8.8,4,8.8,8.8
		c0,7.2,5.6,12.8,12.8,12.8c4.8,0,8.8,4,8.8,8.8S368,279.2,363.2,279.2z"/>
</g>
<path style="fill:#F9C55D;" d="M222.4,283.2c-1.6,5.6-16.8,4.8-33.6-1.6s-28-15.2-26.4-20.8c1.6-5.6,15.2,0,32,5.6
	C211.2,272.8,224,277.6,222.4,283.2z"/>
<path style="fill:#F9A908;" d="M266.4,283.2c1.6,5.6,16.8,4.8,33.6-1.6c16.8-6.4,28-15.2,26.4-20.8c-1.6-5.6-15.2,0-32,5.6
	C277.6,272.8,264,277.6,266.4,283.2z"/>
<path style="fill:#D81665;" d="M377.6,5.6c14.4,4,24,15.2,25.6,28c0,1.6,1.6,2.4,2.4,2.4c1.6,0.8,3.2,0.8,3.2-0.8
	c8-10.4,22.4-15.2,36-11.2c17.6,4.8,28.8,21.6,24,37.6c-1.6,5.6-4.8,10.4-9.6,14.4l0,0l0,0l-80,55.2l-40.8-88l0,0l0,0
	c-2.4-5.6-2.4-12-0.8-17.6C341.6,9.6,360,0.8,377.6,5.6z"/>
<path style="fill:#B20B5F;" d="M405.6,36c1.6,0.8,3.2,0.8,3.2-0.8c8-10.4,22.4-15.2,36-11.2c17.6,4.8,28.8,21.6,24,37.6
	c-1.6,5.6-4.8,10.4-9.6,14.4l0,0l0,0l-80,55.2"/>
<path style="fill:#D81665;" d="M411.2,161.6c9.6,4.8,16,13.6,15.2,23.2c0,0.8,0.8,1.6,1.6,2.4c0.8,0.8,2.4,0.8,2.4,0
	c6.4-6.4,17.6-8,28-4c12,5.6,18.4,19.2,12.8,30.4c-1.6,4-4.8,7.2-8.8,9.6l0,0l0,0l-64.8,29.6L379.2,184l0,0l0,0
	c-0.8-4.8-0.8-8.8,1.6-12.8C384,160,398.4,156,411.2,161.6z"/>
<path style="fill:#B20B5F;" d="M427.2,187.2c0.8,0.8,2.4,0.8,2.4,0c6.4-6.4,17.6-8,28-4c12,5.6,18.4,19.2,12.8,30.4
	c-1.6,4-4.8,7.2-8.8,9.6l0,0l0,0l-64.8,29.6"/>
<path style="fill:#D81665;" d="M28,67.2c9.6-4.8,20.8-4,28,2.4c0.8,0.8,1.6,0.8,2.4,0c0.8,0,1.6-0.8,1.6-2.4
	c-0.8-9.6,4-19.2,13.6-24c12-6.4,26.4-2.4,32,8c2.4,4,2.4,8,1.6,12.8l0,0l0,0l-16,69.6l-65.6-26.4l0,0l0,0c-4-1.6-7.2-4.8-9.6-8.8
	C10.4,87.2,15.2,73.6,28,67.2z"/>
<g>
	<path style="fill:#B20B5F;" d="M58.4,69.6c0.8,0,1.6-0.8,1.6-2.4c-0.8-9.6,4-19.2,13.6-24c12-6.4,26.4-2.4,32,8
		c2.4,4,2.4,8,1.6,12.8l0,0l0,0l-16,69.6"/>
	<circle style="fill:#B20B5F;" cx="28.8" cy="5.6" r="5.6"/>
	<circle style="fill:#B20B5F;" cx="52.8" cy="23.2" r="8"/>
	<circle style="fill:#B20B5F;" cx="108.8" cy="12.8" r="8.8"/>
	<path style="fill:#B20B5F;" d="M68,183.2c0,13.6-11.2,24-24,24c-13.6,0-24-11.2-24-24c0-13.6,11.2-24,24-24S68,170.4,68,183.2z"/>
</g>
<g>
</g>
<g>
</g>
<g>
</g>
<g>
</g>
<g>
</g>
<g>
</g>
<g>
</g>
<g>
</g>
<g>
</g>
<g>
</g>
<g>
</g>
<g>
</g>
<g>
</g>
<g>
</g>
<g>
</g>
</svg>
