<?xml version="1.0" encoding="iso-8859-1"?>
<!-- Generator: Adobe Illustrator 19.0.0, SVG Export Plug-In . SVG Version: 6.00 Build 0)  -->
<svg version="1.1" id="Layer_1" xmlns="http://www.w3.org/2000/svg" xmlns:xlink="http://www.w3.org/1999/xlink" x="0px" y="0px"
	 viewBox="0 0 484.8 484.8" style="enable-background:new 0 0 484.8 484.8;" xml:space="preserve">
<g>
	<path style="fill:#F7910B;" d="M484.8,286.4c0,104-95.2,188-242.4,188S0,390.4,0,286.4s95.2-260,242.4-260S484.8,182.4,484.8,286.4
		z"/>
	<path style="fill:#F7910B;" d="M484.8,286.4c0,104-95.2,156-242.4,156S0,390.4,0,286.4s95.2-276,242.4-276S484.8,182.4,484.8,286.4
		z"/>
</g>
<g>
	<path style="fill:#F9A908;" d="M242.4,10.4c147.2,0,242.4,172,242.4,276s-95.2,156-242.4,156"/>
	<path style="fill:#F9A908;" d="M484.8,286.4c0,104-95.2,156-242.4,156S0,390.4,0,286.4s95.2-260,242.4-260S484.8,182.4,484.8,286.4
		z"/>
</g>
<path style="fill:#F9C55D;" d="M0,286.4c0-104,95.2-260,242.4-260"/>
<path style="fill:#F7910B;" d="M242.4,26.4c147.2,0,242.4,156,242.4,260s-95.2,188-242.4,188"/>
<path style="fill:#EA7103;" d="M242.4,26.4c147.2,0,242.4,156,242.4,260"/>
<path style="fill:#19BCA4;" d="M193.6,105.6c2.4,6.4-9.6,7.2-23.2,12.8c-13.6,4.8-23.2,12.8-25.6,6.4c-2.4-6.4,6.4-16,20-20.8
	C177.6,98.4,190.4,99.2,193.6,105.6z"/>
<path style="fill:#109DA0;" d="M193.6,105.6c2.4,6.4-9.6,7.2-23.2,12.8c-13.6,4.8-23.2,12.8-25.6,6.4"/>
<path style="fill:#19BCA4;" d="M291.2,105.6c-2.4,6.4,9.6,7.2,23.2,12.8c13.6,4.8,23.2,12.8,25.6,6.4c2.4-6.4-6.4-16-20-20.8
	C307.2,98.4,294.4,99.2,291.2,105.6z"/>
<path style="fill:#109DA0;" d="M291.2,105.6c-2.4,6.4,9.6,7.2,23.2,12.8c13.6,4.8,23.2,12.8,25.6,6.4"/>
<path style="fill:#F9C55D;" d="M208.8,232.8c0,9.6-28,5.6-62.4,5.6S84,243.2,84,232.8c0-9.6,28-17.6,62.4-17.6
	C180.8,215.2,208.8,223.2,208.8,232.8z"/>
<path style="fill:#F9A908;" d="M400.8,232.8c0,9.6-28,5.6-62.4,5.6s-62.4,4.8-62.4-5.6c0-9.6,28-17.6,62.4-17.6
	S400.8,223.2,400.8,232.8z"/>
<g>
	<circle style="fill:#F7910B;" cx="68.8" cy="262.4" r="4.8"/>
	<circle style="fill:#F7910B;" cx="32.8" cy="278.4" r="8.8"/>
	<circle style="fill:#F7910B;" cx="56.8" cy="246.4" r="1.6"/>
	<circle style="fill:#F7910B;" cx="93.6" cy="260.8" r="1.6"/>
</g>
<g>
	<circle style="fill:#F9A908;" cx="407.2" cy="264.8" r="6.4"/>
	<circle style="fill:#F9A908;" cx="427.2" cy="276" r="1.6"/>
	<circle style="fill:#F9A908;" cx="384.8" cy="205.6" r="2.4"/>
	<circle style="fill:#F9A908;" cx="380.8" cy="298.4" r="10.4"/>
	<circle style="fill:#F9A908;" cx="438.4" cy="299.2" r="4.8"/>
</g>
<g>
	<circle style="fill:#F7910B;" cx="60.8" cy="294.4" r="4"/>
	<circle style="fill:#F7910B;" cx="67.2" cy="227.2" r="3.2"/>
</g>
<g>
	<circle style="fill:#F9A908;" cx="24.8" cy="116.8" r="8.8"/>
	<circle style="fill:#F9A908;" cx="50.4" cy="88.8" r="4.8"/>
	<circle style="fill:#F9A908;" cx="460" cy="136" r="1.6"/>
	<circle style="fill:#F9A908;" cx="453.6" cy="112.8" r="6.4"/>
	<circle style="fill:#F9A908;" cx="474.4" cy="116.8" r="4"/>
	<circle style="fill:#F9A908;" cx="34.4" cy="140.8" r="4.8"/>
</g>
<path style="fill:#F7910B;" d="M300,347.2c0,20.8-26.4,79.2-59.2,79.2s-59.2-58.4-59.2-79.2"/>
<path style="fill:#C42260;" d="M360.8,228.8c0,72.8-52.8,132-118.4,132S124,301.6,124,228.8"/>
<path style="fill:#99144A;" d="M360.8,228.8c0,24.8-52.8,44.8-118.4,44.8S124,253.6,124,228.8"/>
<path style="fill:#E2446E;" d="M242.4,361.6c36.8,0,68.8-18.4,90.4-47.2c-13.6-16.8-32.8-27.2-54.4-27.2c-12.8,0-25.6,4-36,10.4
	c-10.4-7.2-23.2-10.4-36-10.4c-21.6,0-40.8,10.4-54.4,27.2C173.6,342.4,205.6,361.6,242.4,361.6z"/>
<path style="fill:#D81665;" d="M301.6,96c14.4,4,24,15.2,25.6,28c0,1.6,1.6,2.4,2.4,2.4c1.6,0.8,3.2,0.8,3.2-0.8
	c8-10.4,22.4-15.2,36-11.2c17.6,4.8,28.8,21.6,24.8,37.6c-1.6,5.6-4.8,10.4-9.6,14.4l0,0l0,0l-80,54.4l-40.8-88l0,0l0,0
	c-2.4-5.6-2.4-12-0.8-17.6C265.6,99.2,283.2,91.2,301.6,96z"/>
<path style="fill:#B20B5F;" d="M329.6,126.4c1.6,0.8,3.2,0.8,3.2-0.8c8-10.4,22.4-15.2,36-11.2c17.6,4.8,28.8,21.6,24.8,37.6
	c-1.6,5.6-4.8,10.4-9.6,14.4l0,0l0,0l-80,54.4"/>
<path style="fill:#D81665;" d="M223.2,115.2c1.6,5.6,1.6,12-0.8,17.6l0,0l0,0l-40.8,88l-80-54.4l0,0l0,0c-4.8-4-8-8.8-9.6-14.4
	c-4-16,6.4-32.8,24.8-37.6c14.4-4,28.8,0.8,36,11.2c0.8,0.8,2.4,1.6,3.2,0.8c1.6,0,2.4-0.8,2.4-2.4c0.8-12.8,11.2-24,25.6-28
	C201.6,91.2,219.2,99.2,223.2,115.2z"/>
<path style="fill:#B20B5F;" d="M181.6,221.6l-80-54.4l0,0l0,0c-4.8-4-8-8.8-9.6-14.4c-4-16,6.4-32.8,24.8-37.6
	c14.4-4,28.8,0.8,36,11.2c0.8,0.8,2.4,1.6,3.2,0.8"/>
<g>
</g>
<g>
</g>
<g>
</g>
<g>
</g>
<g>
</g>
<g>
</g>
<g>
</g>
<g>
</g>
<g>
</g>
<g>
</g>
<g>
</g>
<g>
</g>
<g>
</g>
<g>
</g>
<g>
</g>
</svg>
