<svg height="512pt" viewBox="0 0 511 512" width="512pt" xmlns="http://www.w3.org/2000/svg"><path d="m70.058594 254.699219-34.796875 14.925781 19.527343 49.464844-29.59375 19.523437-22.214843-56.230469c-6.980469-17.445312 1.269531-37.269531 18.570312-44.605468l45.296875-19.441406c1.445313-.605469 2.960938-1.011719 4.515625-1.214844zm0 0" fill="#e57e25"/><path d="m434.148438 254.699219 34.796874 14.925781-19.523437 49.464844 29.589844 19.523437 22.214843-56.230469c6.984376-17.445312-1.269531-37.269531-18.570312-44.605468l-45.296875-19.441406c-1.445313-.605469-2.960937-1.011719-4.515625-1.214844zm0 0" fill="#e57e25"/><path d="m350.011719 411.25c53.777343-39.050781 85.207031-101.8125 84.261719-168.265625 0-110.210937-81.570313-199.59375-182.234376-199.59375-92.683593 0-169.136718 75.757813-180.675781 173.730469-1.050781 8.582031-1.574219 17.21875-1.5625 25.863281 0 3.902344.085938 7.808594.257813 11.714844 1.394531 26.015625 7.480468 51.5625 17.964844 75.410156l22.996093 39.3125c12.03125 16.144531 26.5625 30.265625 43.042969 41.828125l97.011719 73.761719zm0 0" fill="#f0c419"/><path d="m252.039062 468.609375v26.035156c-.03125 9.574219-7.785156 17.328125-17.359374 17.355469h-104.132813c-9.574219-.027344-17.328125-7.78125-17.355469-17.355469v-26.035156c-.011718-16.113281 6.382813-31.570313 17.777344-42.964844s26.851562-17.792969 42.96875-17.78125h17.355469c16.113281-.011719 31.570312 6.386719 42.964843 17.78125 11.394532 11.394531 17.792969 26.851563 17.78125 42.964844zm0 0" fill="#3f5c6c"/><path d="m260.714844 477.289062c-.011719 4.785157-3.890625 8.664063-8.675782 8.675782h-138.847656v-17.355469h138.847656c4.785157.015625 8.664063 3.890625 8.675782 8.679687zm0 0" fill="#35495e"/><path d="m390.882812 468.609375v26.035156c-.027343 9.574219-7.78125 17.328125-17.355468 17.355469h-104.132813c-9.574219-.027344-17.328125-7.78125-17.355469-17.355469v-26.035156c-.011718-16.113281 6.382813-31.570313 17.777344-42.964844 11.394532-11.394531 26.851563-17.792969 42.964844-17.78125h17.359375c16.113281-.011719 31.570313 6.386719 42.964844 17.78125s17.792969 26.851563 17.777343 42.964844zm0 0" fill="#35495e"/><path d="m252.039062 468.609375h138.84375v17.355469h-138.84375zm0 0" fill="#2c3e50"/><path d="m99.347656 341.480469c-17.089844-22.390625-45.796875-29.207031-64.117187-15.226563-18.320313 13.984375-19.316407 43.46875-2.226563 65.863282 17.089844 22.390624 45.792969 29.207031 64.113282 15.226562 18.320312-13.984375 19.320312-43.46875 2.230468-65.863281zm0 0" fill="#f29c1f"/><path d="m468.976562 326.253906c-18.320312-13.980468-47.027343-7.164062-64.117187 15.226563s-16.089844 51.878906 2.230469 65.863281c18.320312 13.980469 47.023437 7.164062 64.113281-15.226562 17.089844-22.394532 16.09375-51.878907-2.226563-65.863282zm0 0" fill="#f29c1f"/><path d="m312.78125 321.085938c-4.789062 0-8.675781-3.886719-8.675781-8.679688-.019531-19.160156-15.550781-34.691406-34.710938-34.710938h-34.714843c-19.160157.019532-34.691407 15.550782-34.710938 34.710938 0 4.792969-3.882812 8.679688-8.675781 8.679688s-8.679688-3.886719-8.679688-8.679688c.03125-28.742188 23.324219-52.035156 52.066407-52.066406h34.714843c28.742188.03125 52.035157 23.324218 52.066407 52.066406 0 4.792969-3.886719 8.679688-8.679688 8.679688zm0 0" fill="#802d40"/><path d="m260.714844 312.40625h-17.355469c-4.792969 0-8.679687-3.882812-8.679687-8.675781s3.886718-8.679688 8.679687-8.679688h17.355469c4.792968 0 8.679687 3.886719 8.679687 8.679688s-3.886719 8.675781-8.679687 8.675781zm0 0" fill="#f29c1f"/><g fill="#c03a2b"><path d="m416.917969 52.066406h-17.355469c-4.792969 0-8.679688-3.882812-8.679688-8.675781s3.886719-8.679687 8.679688-8.679687h17.355469c4.792969-.003907 8.675781-3.886719 8.679687-8.675782v-17.355468c0-4.792969 3.882813-8.679688 8.675782-8.679688 4.792968 0 8.679687 3.886719 8.679687 8.679688v17.355468c-.015625 14.371094-11.664063 26.015625-26.035156 26.03125zm0 0"/><path d="m503.699219 52.066406h-17.355469c-14.371094-.015625-26.019531-11.660156-26.035156-26.03125v-17.355468c0-4.792969 3.886718-8.679688 8.679687-8.679688 4.789063 0 8.675781 3.886719 8.675781 8.679688v17.355468c.003907 4.789063 3.886719 8.671875 8.679688 8.675782h17.355469c4.792969 0 8.675781 3.886718 8.675781 8.679687s-3.882812 8.675781-8.675781 8.675781zm0 0"/><path d="m434.273438 121.492188c-4.792969 0-8.675782-3.886719-8.675782-8.679688v-17.355469c-.003906-4.789062-3.886718-8.671875-8.679687-8.675781h-17.355469c-4.792969 0-8.679688-3.886719-8.679688-8.679688 0-4.792968 3.886719-8.679687 8.679688-8.679687h17.355469c14.371093.019531 26.019531 11.664063 26.035156 26.035156v17.355469c0 2.300781-.914063 4.511719-2.542969 6.136719-1.625 1.628906-3.835937 2.542969-6.136718 2.542969zm0 0"/><path d="m468.988281 121.492188c-4.792969 0-8.679687-3.886719-8.679687-8.679688v-17.355469c.015625-14.371093 11.664062-26.015625 26.035156-26.035156h17.355469c4.792969 0 8.675781 3.886719 8.675781 8.679687 0 4.792969-3.882812 8.679688-8.675781 8.679688h-17.355469c-4.792969.003906-8.675781 3.886719-8.679688 8.675781v17.355469c0 4.792969-3.886718 8.679688-8.675781 8.679688zm0 0"/></g><path d="m278.070312 22.519531 49.683594-13.519531c2.554688-.761719 5.320313-.296875 7.484375 1.257812 2.164063 1.554688 3.488281 4.027344 3.578125 6.691407v44.203125c-.089844 2.664062-1.414062 5.136718-3.578125 6.691406-2.164062 1.558594-4.929687 2.019531-7.484375 1.257812l-49.683594-13.519531h-52.066406l-49.683594 13.519531c-2.554687.761719-5.320312.300782-7.484374-1.257812-2.164063-1.554688-3.488282-4.027344-3.578126-6.691406v-44.203125c.089844-2.664063 1.414063-5.136719 3.578126-6.691407 2.164062-1.554687 4.929687-2.019531 7.484374-1.257812l49.683594 13.519531zm0 0" fill="#894b9d"/><path d="m167.917969 165.082031c2.417969 1.277344 5.191406 1.710938 7.882812 1.230469 2.085938-.699219 3.957031-1.910156 5.449219-3.523438 1.703125-1.832031 3.746094-3.664062 5.640625-6.011718 2.105469-2.40625 4.402344-4.632813 6.871094-6.664063l-2.570313 5.917969c.027344-.96875.21875-1.929688.5625-2.835938.910156-2.410156 2.835938-4.296874 5.261719-5.164062 3.253906-1.175781 6.902344-.308594 9.277344 2.214844 2.371093 2.523437 3.019531 6.214844 1.644531 9.394531-1.371094 3.179687-4.503906 5.238281-7.96875 5.242187.984375 0 1.964844-.167968 2.890625-.5 2.382813-.847656 4.269531-2.699218 5.164063-5.066406.339843-.882812.527343-1.820312.554687-2.769531l-2.574219 5.921875c-2.1875 2.710938-4.699218 5.144531-7.484375 7.246094-3.164062 2.441406-6.675781 4.398437-10.417969 5.8125-4.371093 1.769531-9.210937 2-13.730468.65625-4.054688-1.429688-7.402344-4.367188-9.34375-8.207032-.429688-.804687-.304688-1.792968.316406-2.460937s1.597656-.867187 2.433594-.496094zm0 0" fill="#2c3e50"/><path d="m338.746094 167.675781c-1.96875 3.664063-5.222656 6.46875-9.136719 7.875-4.402344 1.363281-9.132813 1.238281-13.460937-.351562-3.8125-1.222657-7.398438-3.074219-10.597657-5.484375-2.808593-2.066406-5.324219-4.503906-7.480469-7.242188l-2.574218-5.921875c.027344.949219.210937 1.882813.550781 2.769531.898437 2.367188 2.785156 4.21875 5.167969 5.066407.925781.332031 1.90625.5 2.890625.496093-3.453125-.015624-6.574219-2.074218-7.9375-5.25-1.367188-3.171874-.71875-6.851562 1.644531-9.371093 2.363281-2.515625 5.996094-3.394531 9.25-2.230469 2.425781.867188 4.347656 2.753906 5.257812 5.164062.347657.90625.539063 1.867188.566407 2.835938l-2.574219-5.921875c4.5 3.953125 8.628906 8.308594 12.335938 13.007813 1.496093 1.800781 3.480468 3.128906 5.714843 3.824218 2.796875.40625 5.648438-.140625 8.09375-1.554687l.085938-.042969c.660156-.328125 1.457031-.1875 1.964843.347656.507813.539063.605469 1.34375.238282 1.984375zm0 0" fill="#2c3e50"/><path d="m234.679688 17.355469h34.714843c4.792969 0 8.675781 3.886719 8.675781 8.679687v26.03125c0 4.792969-3.882812 8.679688-8.675781 8.679688h-34.714843c-4.792969 0-8.675782-3.886719-8.675782-8.679688v-26.03125c0-4.792968 3.882813-8.679687 8.675782-8.679687zm0 0" fill="#955ba5"/><path d="m217.324219 186.578125c0-21.570313-7.769531-39.050781-17.355469-39.050781s-17.355469 17.480468-17.355469 39.050781c0 21.566406 7.769531 39.050781 17.355469 39.050781s17.355469-17.484375 17.355469-39.050781zm0 0" fill="#35495e"/><path d="m209.613281 169.21875c0-11.980469-4.320312-21.691406-9.644531-21.691406s-9.640625 9.710937-9.640625 21.691406c0 11.984375 4.316406 21.695312 9.640625 21.695312s9.644531-9.710937 9.644531-21.695312zm0 0" fill="#fff"/><path d="m321.460938 186.578125c0-21.570313-7.769532-39.050781-17.355469-39.050781-9.585938 0-17.355469 17.480468-17.355469 39.050781 0 21.566406 7.769531 39.050781 17.355469 39.050781 9.585937 0 17.355469-17.484375 17.355469-39.050781zm0 0" fill="#35495e"/><path d="m313.746094 169.21875c0-11.980469-4.316406-21.691406-9.640625-21.691406s-9.640625 9.710937-9.640625 21.691406c0 11.984375 4.316406 21.695312 9.640625 21.695312s9.640625-9.710937 9.640625-21.695312zm0 0" fill="#fff"/><path d="m167.28125 120.480469c4.726562 3.898437 9.832031 7.3125 15.238281 10.195312 5.078125 2.640625 10.390625 4.8125 15.867188 6.480469 5.554687 1.304688 11.085937 2.53125 16.984375 3.535156 2.921875.714844 5.972656.867188 9.070312 1.679688 3.296875.429687 6.550782 1.132812 9.730469 2.105468l.320313.105469c1.226562.40625 2.105468 1.488281 2.257812 2.773438.148438 1.285156-.460938 2.542969-1.5625 3.21875-6.246094 3.699219-13.285156 5.855469-20.53125 6.289062-15.078125.878907-29.824219-4.675781-40.574219-15.285156-5.382812-5.179687-9.152343-11.800781-10.851562-19.074219-.203125-.960937.21875-1.945312 1.058593-2.460937.835938-.511719 1.90625-.441407 2.671876.175781zm0 0" fill="#e57e25"/><path d="m340.839844 122.503906c-1.699219 7.273438-5.46875 13.894532-10.851563 19.074219-10.75 10.609375-25.496093 16.164063-40.574219 15.285156-7.246093-.433593-14.285156-2.589843-20.53125-6.289062-1.097656-.679688-1.703124-1.933594-1.554687-3.214844s1.027344-2.363281 2.25-2.773437l.324219-.105469c3.179687-.972657 6.433594-1.675781 9.730468-2.105469 3.097657-.8125 6.148438-.964844 9.070313-1.683594 5.902344-1 11.433594-2.222656 16.984375-3.53125 5.476562-1.671875 10.789062-3.839844 15.867188-6.480468 5.40625-2.882813 10.511718-6.296876 15.238281-10.199219l.3125-.25c.765625-.617188 1.832031-.6875 2.667969-.175781.835937.511718 1.261718 1.492187 1.066406 2.453124zm0 0" fill="#e57e25"/></svg>