<svg height="512pt" viewBox="0 0 512 512.0281" width="512pt" xmlns="http://www.w3.org/2000/svg"><path d="m71.777344 399.828125c-3.265625 4.148437-6.707032 8.210937-10.238282 12.183594-13.039062 14.425781-35.289062 15.601562-49.773437 2.621093-14.484375-12.976562-15.753906-35.21875-2.839844-49.761718 7.8125-8.746094 14.871094-18.136719 21.097657-28.070313zm0 0" fill="#f29c1f"/><path d="m247.09375.0273438c-104.761719-.015625-197.25 68.3906252-227.910156 168.5664062-30.660156 100.179688 7.699218 208.628906 94.527344 267.253906h.085937l71.503906 49.699219v8.824219c.03125 9.742187 7.917969 17.628906 17.65625 17.65625h150.070313c9.738281-.027344 17.625-7.914063 17.652344-17.65625v-52.167969c.796874-.53125 1.589843-.972656 2.386718-1.5 3.882813-2.472656 7.765625-5.035156 11.472656-7.683594.011719.09375.042969.183594.089844.265625 1.09375 2.300782 2.65625 4.347656 4.589844 6.003906.617188.617188 1.324219 1.324219 2.03125 1.941407 1.300781 1.136719 2.6875 2.167969 4.148438 3.089843.710937.582032 1.480468 1.085938 2.296874 1.5.824219.464844 1.679688.878907 2.558594 1.238282.714844.34375 1.449219.640625 2.207032.882812 1.148437.441406 2.292968.792969 3.441406 1.144532 2.910156.777343 5.90625 1.164062 8.917968 1.148437 10.039063.015625 19.609376-4.257813 26.304688-11.738281 44.90625-50.25 70.058594-115.082032 70.796875-182.46875 1.058594-79.449219-52.964844-256.0000002-264.828125-256.0000002zm0 0" fill="#f0c419"/><path d="m511.921875 256.027344c-.738281 67.386718-25.890625 132.21875-70.796875 182.46875-6.695312 7.480468-16.265625 11.753906-26.304688 11.738281-3.011718.015625-6.007812-.371094-8.917968-1.148437-1.148438-.351563-2.292969-.703126-3.441406-1.144532-.757813-.242187-1.492188-.539062-2.207032-.882812-.878906-.359375-1.734375-.773438-2.558594-1.238282-.816406-.414062-1.585937-.917968-2.296874-1.5-1.460938-.921874-2.847657-1.953124-4.148438-3.089843-.707031-.617188-1.414062-1.324219-2.03125-1.941407-1.933594-1.65625-3.496094-3.703124-4.589844-6.003906-.046875-.082031-.078125-.171875-.089844-.265625-3.707031 2.648438-7.589843 5.210938-11.472656 7.683594-.796875.527344-1.589844.96875-2.386718 1.5-21.65625 13.164063-45.292969 22.761719-70 28.421875h-.265626l-.351562-2.734375c-8.914062-21.40625-29.78125-35.386719-52.96875-35.488281h-8.828125c-21.050781.03125-40.097656 12.496094-48.550781 31.78125-.707032 1.671875-1.328125 3.378906-1.851563 5.117187-1.707031 5.214844-2.574219 10.667969-2.5625 16.15625v.089844l-71.503906-49.699219h-.085937c-86.828126-58.625-125.1875-167.074218-94.527344-267.253906 30.660156-100.175781 123.148437-168.5820312 227.910156-168.5664062 211.863281 0 265.886719 176.5507812 264.828125 256.0000002zm0 0" fill="#f0c419"/><path d="m141.164062 150.101562c-5.683593.261719-11.324218 1.125-16.824218 2.582032-5.542969 1.46875-10.855469 3.6875-15.800782 6.589844-2.460937 1.515624-4.800781 3.21875-7.003906 5.09375-3.222656 2.921874-7.082031 5.054687-11.265625 6.242187-4.449219 1.195313-9.175781.78125-13.347656-1.171875-3.707031-1.828125-6.777344-4.726562-8.808594-8.324219-.695312-1.242187-.523437-2.785156.429688-3.839843.949219-1.058594 2.472656-1.386719 3.773437-.820313l.664063.292969c4.101562 2.347656 8.996093 2.882812 13.507812 1.472656 2.019531-.949219 3.8125-2.324219 5.25-4.035156 2.496094-2.695313 5.195313-5.195313 8.070313-7.484375 5.925781-4.4375 12.527344-7.894531 19.546875-10.246094 7.027343-2.429687 14.378906-3.78125 21.808593-4.011719 4.769532 0 8.679688 3.785156 8.828126 8.554688.148437 4.765625-3.519532 8.789062-8.28125 9.085937h-.003907zm0 0" fill="#2c3e50"/><path d="m282.40625 132.441406c7.453125.035156 14.851562 1.285156 21.90625 3.695313 7.089844 2.277343 13.730469 5.761719 19.636719 10.296875 2.882812 2.304687 5.585937 4.824218 8.085937 7.539062 1.441406 1.664063 3.164063 3.0625 5.085938 4.132813 4.550781 1.910156 9.738281 1.589843 14.019531-.875l.449219-.199219c1.011718-.453125 2.195312-.210938 2.949218.601562.75.8125.902344 2.011719.371094 2.984376-1.898437 3.582031-4.816406 6.519531-8.390625 8.4375-4.078125 2.105468-8.773437 2.691406-13.246093 1.660156-4.265626-1.0625-8.195313-3.175782-11.4375-6.144532-2.195313-1.855468-4.53125-3.539062-6.984376-5.039062-4.957031-2.800781-10.234374-4.996094-15.714843-6.539062-5.480469-1.464844-11.078125-2.433594-16.730469-2.894532l-.65625-.042968c-4.757812-.3125-8.40625-4.355469-8.226562-9.125.175781-4.765626 4.113281-8.527344 8.882812-8.488282zm0 0" fill="#2c3e50"/><path d="m384.539062 433.019531c-3.707031 2.648438-7.589843 5.210938-11.472656 7.683594-13.992187-13.132813-14.972656-35.019531-2.207031-49.347656 27.21875-30.367188 44.628906-68.246094 49.957031-108.675781 1.246094-9.632813 9.445313-16.847657 19.160156-16.851563-2.203124 46.515625-20.378906 90.847656-51.464843 125.527344-10.285157 11.527343-11.894531 28.402343-3.972657 41.664062zm0 0" fill="#f29c1f"/><path d="m189.714844 464.183594c-8.433594-19.296875-27.492188-31.761719-48.550782-31.753906h-8.828124c-29.269532.046874-52.972657 23.792968-52.964844 53.066406v8.84375c.019531 9.746094 7.90625 17.652344 17.65625 17.6875h150.066406zm0 0" fill="#2c3e50"/><path d="m370.679688 442.203125v52.167969c-.027344 9.742187-7.914063 17.628906-17.652344 17.65625h-150.070313c-9.738281-.027344-17.625-7.914063-17.65625-17.65625v-8.914063c-.011719-5.488281.855469-10.941406 2.5625-16.15625.523438-1.738281 1.144531-3.445312 1.851563-5.117187 8.453125-19.285156 27.5-31.75 48.550781-31.78125h8.828125c23.1875.101562 44.054688 14.082031 52.96875 35.488281l.617188 2.734375c24.707031-5.660156 48.34375-15.257812 70-28.421875zm0 0" fill="#35495e"/><path d="m384.628906 433.285156c1.34375 2.136719 2.882813 4.144532 4.589844 6.003906-1.933594-1.65625-3.496094-3.703124-4.589844-6.003906zm0 0" fill="#f0c419"/><path d="m370.679688 442.203125v17.652344c-16.492188 10.023437-34.148438 17.992187-52.574219 23.726562-4.097657 1.242188-8.539063.464844-11.976563-2.089843-3.433594-2.554688-5.457031-6.585938-5.449218-10.867188 24.707031-5.660156 48.34375-15.257812 70-28.421875zm0 0" fill="#2c3e50"/><path d="m445.097656 80.054688 57.984375-5.863282c2.785157-.277344 5.511719.925782 7.1875 3.167969 1.671875 2.242187 2.050781 5.195313 1 7.789063l-23.214843 51.847656c-1.167969 2.378906-3.484376 3.988281-6.125 4.238281-2.636719.253906-5.21875-.878906-6.816407-2.996094l-36.144531-44.5-56.382812-26.960937-56.21875.335937c-2.671876.019531-5.175782-1.292969-6.671876-3.503906-1.5-2.207031-1.796874-5.019531-.789062-7.492187l23.21875-51.847657c1.230469-2.496093 3.71875-4.125 6.5-4.2617185 2.777344-.1328125 5.410156 1.2499995 6.878906 3.6132815l33.210938 49.472656zm0 0" fill="#955ba5"/><path d="m185.300781 176.648438c0-24.425782-19.761719-44.222657-44.136719-44.222657s-44.136718 19.796875-44.136718 44.222657c0 24.421874 19.761718 44.21875 44.136718 44.21875s44.136719-19.796876 44.136719-44.21875zm0 0" fill="#fff"/><path d="m158.703125 176.648438c0-14.589844-11.804687-26.417969-26.367187-26.417969s-26.363282 11.828125-26.363282 26.417969c0 14.585937 11.800782 26.414062 26.363282 26.414062s26.367187-11.828125 26.367187-26.414062zm0 0" fill="#2c3e50"/><path d="m86.488281 113.402344c4.367188-8.746094 11.214844-16.007813 19.6875-20.878906 8.527344-5.125 18.179688-8.085938 28.113281-8.621094 9.785157-.476563 19.5625 1.082031 28.71875 4.570312 4.421876 1.707032 8.695313 3.773438 12.785157 6.179688 3.886719 2.574218 7.605469 5.398437 11.132812 8.453125 1.144531.992187 1.472657 2.628906.804688 3.984375-.671875 1.355468-2.171875 2.085937-3.652344 1.78125l-.398437-.085938c-4.414063-.917968-8.484376-2.257812-12.554688-3.417968-4.171875-.789063-8.140625-2.078126-12.167969-2.691407-7.789062-1.46875-15.722656-2.058593-23.644531-1.753906-7.785156.574219-15.464844 2.144531-22.851562 4.667969-7.855469 2.746094-15.410157 6.28125-22.550782 10.550781l-.273437.160156c-.847657.492188-1.917969.375-2.640625-.289062-.71875-.664063-.925782-1.71875-.503906-2.605469zm0 0" fill="#e57e25"/><path d="m333.660156 116.136719c-7.140625-4.269531-14.695312-7.804688-22.546875-10.550781-7.386719-2.523438-15.066406-4.09375-22.851562-4.667969-7.925781-.304688-15.855469.285156-23.648438 1.753906-4.027343.613281-7.996093 1.902344-12.167969 2.691406-4.070312 1.160157-8.140624 2.5-12.554687 3.417969l-.394531.082031c-1.480469.308594-2.980469-.421875-3.652344-1.777343-.671875-1.355469-.339844-2.992188.800781-3.984376 3.527344-3.050781 7.246094-5.875 11.136719-8.453124 4.085938-2.40625 8.359375-4.472657 12.78125-6.179688 9.15625-3.488281 18.933594-5.046875 28.71875-4.570312 9.9375.535156 19.589844 3.496093 28.113281 8.621093 8.472657 4.871094 15.320313 12.136719 19.6875 20.878907.421875.882812.21875 1.9375-.5 2.605468-.71875.664063-1.789062.78125-2.636719.296875zm0 0" fill="#e57e25"/><path d="m326.542969 176.648438c-.019531 21.074218-14.921875 39.199218-35.59375 43.292968-20.675781 4.09375-41.359375-6.980468-49.414063-26.457031-8.050781-19.476563-1.226562-41.925781 16.304688-53.625 17.527344-11.699219 40.878906-9.390625 55.777344 5.515625 8.292968 8.292969 12.945312 19.542969 12.925781 31.273438zm0 0" fill="#fff"/><path d="m300.0625 176.648438c-.015625 12.644531-8.957031 23.519531-21.359375 25.976562s-24.816406-4.191406-29.644531-15.875c-4.832032-11.6875-.738282-25.15625 9.78125-32.175781 10.515625-7.019531 24.527344-5.632813 33.464844 3.308593 4.976562 4.976563 7.765624 11.726563 7.757812 18.765626zm0 0" fill="#2c3e50"/><path d="m211.785156 326.632812c-75.730468 0-95.660156-47.660156-96.472656-49.6875-1.171875-2.929687-.695312-6.261718 1.257812-8.738281 1.949219-2.480469 5.074219-3.730469 8.195313-3.28125 3.125.449219 5.769531 2.53125 6.941406 5.460938.628907 1.515625 16.871094 38.589843 80.078125 38.589843 63.207032 0 79.449219-37.074218 80.101563-38.648437 1.828125-4.519531 6.976562-6.703125 11.496093-4.875 4.523438 1.828125 6.703126 6.976563 4.875 11.496094-.8125 2.023437-20.746093 49.683593-96.472656 49.683593zm0 0" fill="#802d40"/><path d="m417.777344 102.863281-28.191406-13.480469c-7.851563-3.902343-11.199219-13.324218-7.574219-21.304687l6.523437-14.566406c1.636719-3.824219 4.757813-6.816407 8.644532-8.292969 3.886718-1.476562 8.207031-1.308594 11.96875.464844l28.195312 13.480468c7.847656 3.90625 11.195312 13.324219 7.570312 21.304688l-6.519531 14.566406c-1.640625 3.824219-4.761719 6.816406-8.648437 8.292969-3.886719 1.476563-8.207032 1.308594-11.96875-.464844zm0 0" fill="#894b9d"/><g fill="#fff"><path d="m158.820312 158.925781c0 4.875-3.953124 8.828125-8.828124 8.828125s-8.828126-3.953125-8.828126-8.828125 3.953126-8.828125 8.828126-8.828125 8.828124 3.953125 8.828124 8.828125zm0 0"/><path d="m301.132812 158.925781c0 4.875-3.953124 8.828125-8.828124 8.828125s-8.828126-3.953125-8.828126-8.828125 3.953126-8.828125 8.828126-8.828125 8.828124 3.953125 8.828124 8.828125zm0 0"/></g></svg>