<svg height="512pt" viewBox="0 0 512 512" width="512pt" xmlns="http://www.w3.org/2000/svg"><path d="m71.839844 399.800781c-3.265625 4.148438-6.707032 8.210938-10.238282 12.183594-13.042968 14.425781-35.289062 15.597656-49.773437 2.621094-14.484375-12.976563-15.753906-35.222657-2.839844-49.761719 7.808594-8.746094 14.867188-18.136719 21.097657-28.070312zm0 0" fill="#f29c1f"/><path d="m247.15625 0c-104.765625-.015625-197.25 68.390625-227.910156 168.566406-30.660156 100.175782 7.699218 208.628906 94.527344 267.25h.085937l71.503906 49.699219v8.828125c.027344 9.738281 7.917969 17.628906 17.65625 17.65625h150.066407c9.742187-.027344 17.628906-7.917969 17.65625-17.65625v-52.171875c.796874-.527344 1.589843-.96875 2.382812-1.5 3.886719-2.46875 7.769531-5.03125 11.476562-7.679687.011719.09375.042969.183593.089844.265624 1.09375 2.300782 2.65625 4.34375 4.589844 6.003907.617188.617187 1.324219 1.324219 2.03125 1.941406 1.300781 1.132813 2.6875 2.167969 4.148438 3.089844.707031.582031 1.476562 1.082031 2.292968 1.5.828125.464843 1.683594.878906 2.5625 1.234375.710938.347656 1.449219.644531 2.207032.882812 1.144531.441406 2.292968.796875 3.441406 1.148438 2.90625.777344 5.90625 1.164062 8.914062 1.148437 10.042969.015625 19.613282-4.257812 26.308594-11.742187 44.90625-50.246094 70.058594-115.078125 70.796875-182.464844 1.058594-79.449219-52.964844-256-264.828125-256zm0 0" fill="#f0c419"/><path d="m511.984375 256c-.738281 67.386719-25.890625 132.21875-70.796875 182.464844-6.695312 7.484375-16.265625 11.757812-26.308594 11.742187-3.007812.015625-6.007812-.371093-8.914062-1.148437-1.148438-.351563-2.296875-.707032-3.441406-1.148438-.757813-.238281-1.496094-.535156-2.207032-.882812-.878906-.355469-1.734375-.769532-2.5625-1.234375-.816406-.417969-1.585937-.917969-2.292968-1.5-1.460938-.921875-2.847657-1.957031-4.148438-3.089844-.707031-.617187-1.414062-1.324219-2.03125-1.941406-1.933594-1.660157-3.496094-3.703125-4.589844-6.003907-.046875-.082031-.078125-.171874-.089844-.265624-3.707031 2.648437-7.589843 5.210937-11.476562 7.679687-.792969.53125-1.585938.972656-2.382812 1.5-21.660157 13.167969-45.292969 22.765625-70.003907 28.425781h-.261719l-.355468-2.734375c-8.910156-21.40625-29.777344-35.390625-52.964844-35.488281h-8.828125c-21.050781.03125-40.097656 12.496094-48.550781 31.78125-.710938 1.671875-1.328125 3.378906-1.855469 5.117188-1.707031 5.214843-2.570313 10.667968-2.558594 16.15625v.085937l-71.503906-49.699219h-.085937c-86.828126-58.621094-125.1875-167.074218-94.527344-267.25 30.660156-100.175781 123.144531-168.582031 227.910156-168.566406 211.863281 0 265.886719 176.550781 264.828125 256zm0 0" fill="#f0c419"/><path d="m384.601562 432.992188c-3.707031 2.648437-7.589843 5.210937-11.476562 7.679687-13.988281-13.128906-14.96875-35.019531-2.207031-49.34375 27.21875-30.367187 44.632812-68.246094 49.957031-108.675781 1.246094-9.636719 9.449219-16.847656 19.164062-16.855469-2.207031 46.519531-20.382812 90.851563-51.464843 125.53125-10.289063 11.527344-11.894531 28.402344-3.972657 41.664063zm0 0" fill="#f29c1f"/><path d="m189.777344 464.15625c-8.433594-19.296875-27.496094-31.761719-48.550782-31.753906h-8.828124c-29.273438.046875-52.972657 23.792968-52.964844 53.066406v8.84375c.019531 9.746094 7.90625 17.648438 17.652344 17.6875h150.070312zm0 0" fill="#2c3e50"/><path d="m370.742188 442.171875v52.171875c-.027344 9.738281-7.914063 17.628906-17.65625 17.65625h-150.066407c-9.738281-.027344-17.628906-7.917969-17.65625-17.65625v-8.914062c-.011719-5.488282.851563-10.941407 2.558594-16.15625.527344-1.738282 1.144531-3.445313 1.855469-5.117188 8.453125-19.285156 27.5-31.75 48.550781-31.78125h8.828125c23.1875.097656 44.054688 14.082031 52.964844 35.488281l.617187 2.734375c24.710938-5.660156 48.34375-15.257812 70.003907-28.425781zm0 0" fill="#35495e"/><path d="m384.691406 433.257812c1.34375 2.136719 2.878906 4.144532 4.589844 6.003907-1.933594-1.660157-3.496094-3.703125-4.589844-6.003907zm0 0" fill="#f0c419"/><path d="m370.742188 442.171875v17.65625c-16.492188 10.023437-34.148438 17.992187-52.574219 23.726563-4.097657 1.242187-8.542969.464843-11.976563-2.089844-3.4375-2.554688-5.457031-6.585938-5.453125-10.867188 24.710938-5.660156 48.34375-15.257812 70.003907-28.425781zm0 0" fill="#2c3e50"/><path d="m170.003906 210.097656c13.996094-12.035156 19.023438-31.507812 12.605469-48.8125-6.417969-17.308594-22.925781-28.792968-41.382813-28.792968-18.457031 0-34.96875 11.484374-41.386718 28.792968-6.417969 17.304688-1.386719 36.777344 12.609375 48.8125zm0 0" fill="#fff"/><path d="m158.847656 176.535156c0-14.636718-11.84375-26.5-26.449218-26.5-14.609376 0-26.449219 11.863282-26.449219 26.5 0 14.636719 11.839843 26.5 26.449219 26.5 14.605468 0 26.449218-11.863281 26.449218-26.5zm0 0" fill="#35495e"/><path d="m86.359375 113.671875c6.46875-20.003906 22.28125-35.601563 42.371094-41.796875 10.253906-3.222656 21.21875-3.433594 31.585937-.605469 5.011719 1.234375 9.847656 3.097657 14.390625 5.546875 4.332031 2.515625 8.4375 5.398438 12.277344 8.621094 1.179687.9375 1.566406 2.5625.9375 3.9375-.628906 1.371094-2.113281 2.136719-3.597656 1.855469l-.585938-.113281c-4.675781-.902344-8.894531-2.484376-13.21875-3.390626-4.199219-.925781-8.457031-1.566406-12.746093-1.910156-8.117188-.851562-16.328126-.042968-24.125 2.382813-16.292969 6.023437-31.121094 15.445312-43.492188 27.644531l-.160156.140625c-.75.664063-1.84375.75-2.6875.214844-.847656-.539063-1.234375-1.566407-.953125-2.527344zm0 0" fill="#e57e25"/><path d="m333.53125 115.84375c-12.371094-12.195312-27.195312-21.621094-43.492188-27.644531-7.796874-2.425781-16.003906-3.234375-24.125-2.382813-4.285156.347656-8.542968.984375-12.742187 1.914063-4.328125.90625-8.546875 2.488281-13.21875 3.386719l-.582031.113281c-1.484375.285156-2.972656-.480469-3.605469-1.851563-.628906-1.375-.242187-3 .941406-3.941406 3.835938-3.21875 7.945313-6.101562 12.277344-8.621094 4.542969-2.449218 9.375-4.3125 14.386719-5.546875 10.371094-2.828125 21.332031-2.617187 31.585937.605469 20.089844 6.199219 35.902344 21.792969 42.375 41.796875.28125.960937-.105469 1.988281-.945312 2.527344-.839844.535156-1.933594.453125-2.6875-.203125zm0 0" fill="#e57e25"/><path d="m311.246094 210.097656c.882812-.664062 1.710937-1.402344 2.46875-2.207031 17.207031-17.25 17.183594-45.175781-.050782-62.394531-17.234374-17.21875-45.160156-17.21875-62.394531 0s-17.257812 45.144531-.050781 62.394531c.757812.804687 1.585938 1.542969 2.46875 2.207031zm0 0" fill="#fff"/><path d="m300.089844 176.535156c-.011719 12.628906-8.945313 23.488282-21.332032 25.945313-12.386718 2.453125-24.785156-4.183594-29.609374-15.855469-4.824219-11.671875-.734376-25.125 9.769531-32.136719 10.503906-7.007812 24.496093-5.625 33.421875 3.308594 4.972656 4.96875 7.757812 11.710937 7.75 18.738281zm0 0" fill="#35495e"/><path d="m185.363281 229.515625c-2.339843.003906-4.585937-.925781-6.242187-2.585937-10.449219-9.347657-23.878906-14.6875-37.894532-15.066407-14.035156.296875-27.492187 5.648438-37.898437 15.066407-3.464844 3.347656-8.96875 3.296874-12.375-.105469-3.40625-3.40625-3.453125-8.910157-.105469-12.375 13.742188-12.695313 31.671875-19.898438 50.378906-20.242188 18.707032.34375 36.632813 7.546875 50.378907 20.242188 2.523437 2.523437 3.277343 6.320312 1.910156 9.617187-1.363281 3.300782-4.582031 5.449219-8.152344 5.449219zm0 0" fill="#f29c1f"/><path d="m326.605469 229.515625c-2.34375.003906-4.589844-.925781-6.242188-2.585937-10.449219-9.347657-23.878906-14.6875-37.894531-15.066407-14.035156.296875-27.492188 5.648438-37.898438 15.066407-3.464843 3.347656-8.96875 3.296874-12.375-.105469-3.40625-3.40625-3.453124-8.910157-.109374-12.375 28.164062-26.988281 72.597656-26.988281 100.761718 0 2.523438 2.523437 3.277344 6.320312 1.910156 9.617187-1.367187 3.300782-4.582031 5.449219-8.152343 5.449219zm0 0" fill="#f29c1f"/><path d="m141.226562 264.828125h141.242188c4.875 0 8.824219 3.953125 8.824219 8.828125v8.828125c0 43.875-35.570313 79.445313-79.445313 79.445313-43.878906 0-79.449218-35.570313-79.449218-79.445313v-8.828125c0-4.875 3.953124-8.828125 8.828124-8.828125zm0 0" fill="#802d40"/><path d="m477.734375 112.640625-63.117187 46.257813-45.640626-63.558594c-1.40625-1.9375-2.617187-4.007813-3.617187-6.179688-8.371094-17.664062-3.082031-38.773437 12.621094-50.40625 17.179687-12.671875 41.300781-9.515625 54.644531 7.148438 15.78125-10.394532 36.710938-8.175782 49.964844 5.296875v.089843c1.539062 1.441407 2.929687 3.039063 4.148437 4.765626 12.953125 18.15625 8.941407 43.347656-9.003906 56.585937zm0 0" fill="#df4d60"/><path d="m468.90625 99.222656-63.117188 46.34375-40.429687-56.40625c-8.371094-17.664062-3.082031-38.773437 12.621094-50.40625 17.179687-12.671875 41.300781-9.515625 54.644531 7.148438 15.78125-10.394532 36.710938-8.175782 49.964844 5.296875v.089843c6.921875 17.226563 1.289062 36.957032-13.683594 47.933594zm0 0" fill="#ff5364"/><path d="m90.90625 61.441406-27.980469 48.816406-15.273437-9.003906-33.28125-19.511718c-13.773438-8.183594-18.445313-25.894532-10.503906-39.8125 7.570312-13.347657 24.351562-18.304688 37.960937-11.210938 6.445313-9.972656 18.410156-14.898438 30.011719-12.355469 3.019531.585938 5.917968 1.691407 8.5625 3.265625 13.8125 8.15625 18.496094 25.902344 10.503906 39.8125zm0 0" fill="#df4d60"/><path d="m75.546875 52.613281-27.894531 48.640625-33.28125-19.511718c-13.773438-8.183594-18.445313-25.894532-10.503906-39.8125 7.570312-13.347657 24.351562-18.304688 37.960937-11.210938 6.445313-9.972656 18.410156-14.898438 30.011719-12.355469 8.511718 9.414063 10.007812 23.230469 3.707031 34.25zm0 0" fill="#ff5364"/><path d="m289.351562 300.136719c-8.265624 36.152343-40.421874 61.789062-77.503906 61.792969-2.597656.03125-5.195312-.113282-7.769531-.441407-3.328125-.269531-6.628906-.769531-9.886719-1.5v-15.710937c.007813-24.375 19.765625-44.128906 44.136719-44.140625zm0 0" fill="#df4d60"/><path d="m273.640625 300.136719c-7.621094 33.257812-35.613281 57.949219-69.5625 61.351562-3.328125-.269531-6.628906-.769531-9.886719-1.5v-15.710937c.007813-24.375 19.765625-44.128906 44.136719-44.140625zm0 0" fill="#ff5364"/><path d="m158.878906 167.722656c0 4.875-3.949218 8.828125-8.824218 8.828125-4.878907 0-8.828126-3.953125-8.828126-8.828125s3.949219-8.824218 8.828126-8.824218c4.875 0 8.824218 3.949218 8.824218 8.824218zm0 0" fill="#fff"/><path d="m300.121094 167.722656c0 4.875-3.953125 8.828125-8.828125 8.828125s-8.824219-3.953125-8.824219-8.828125 3.949219-8.824218 8.824219-8.824218 8.828125 3.949218 8.828125 8.824218zm0 0" fill="#fff"/><g fill="#fb7b76"><path d="m44.121094 52.964844c0 9.75-7.902344 17.65625-17.652344 17.65625-9.753906 0-17.65625-7.90625-17.65625-17.65625s7.902344-17.65625 17.65625-17.65625c9.75 0 17.652344 7.90625 17.652344 17.65625zm0 0"/><path d="m423.707031 57.378906c0 12.1875-9.878906 22.070313-22.066406 22.070313-12.191406 0-22.070313-9.882813-22.070313-22.070313s9.878907-22.070312 22.070313-22.070312c12.1875 0 22.066406 9.882812 22.066406 22.070312zm0 0"/></g></svg>