<svg height="512pt" viewBox="0 0 512 512" width="512pt" xmlns="http://www.w3.org/2000/svg"><path d="m71.765625 399.800781c-3.265625 4.148438-6.710937 8.210938-10.242187 12.183594-13.039063 14.425781-35.289063 15.597656-49.773438 2.621094-14.484375-12.976563-15.75-35.222657-2.835938-49.761719 7.808594-8.746094 14.867188-18.136719 21.097657-28.070312zm0 0" fill="#f29c1f"/><path d="m247.082031 0c-104.765625-.015625-197.253906 68.390625-227.914062 168.566406-30.660157 100.175782 7.699219 208.628906 94.527343 267.25h.089844l71.503906 49.699219v8.828125c.027344 9.738281 7.914063 17.628906 17.652344 17.65625h150.070313c9.738281-.027344 17.628906-7.917969 17.65625-17.65625v-52.171875c.792969-.527344 1.589843-.96875 2.382812-1.5 3.882813-2.46875 7.769531-5.03125 11.476563-7.679687.011718.09375.039062.183593.085937.265624 1.09375 2.300782 2.660157 4.34375 4.59375 6.003907.617188.617187 1.324219 1.324219 2.027344 1.941406 1.304687 1.132813 2.691406 2.167969 4.148437 3.089844.710938.582031 1.480469 1.082031 2.296876 1.5.828124.464843 1.683593.878906 2.558593 1.234375.714844.347656 1.453125.644531 2.207031.882812 1.148438.441406 2.296876.796875 3.445313 1.148438 2.90625.777344 5.90625 1.164062 8.914063 1.148437 10.042968.015625 19.613281-4.257812 26.308593-11.742187 44.902344-50.246094 70.058594-115.078125 70.796875-182.464844 1.058594-79.449219-52.96875-256-264.828125-256zm0 0" fill="#f0c419"/><path d="m511.910156 256c-.738281 67.386719-25.894531 132.21875-70.796875 182.464844-6.695312 7.484375-16.265625 11.757812-26.308593 11.742187-3.007813.015625-6.007813-.371093-8.914063-1.148437-1.148437-.351563-2.296875-.707032-3.445313-1.148438-.753906-.238281-1.492187-.535156-2.207031-.882812-.875-.355469-1.730469-.769532-2.558593-1.234375-.816407-.417969-1.585938-.917969-2.296876-1.5-1.457031-.921875-2.84375-1.957031-4.148437-3.089844-.703125-.617187-1.410156-1.324219-2.027344-1.941406-1.933593-1.660157-3.5-3.703125-4.59375-6.003907-.046875-.082031-.074219-.171874-.085937-.265624-3.707032 2.648437-7.59375 5.210937-11.476563 7.679687-.792969.53125-1.589843.972656-2.382812 1.5-21.660157 13.167969-45.296875 22.765625-70.003907 28.425781h-.265624l-.351563-2.734375c-8.910156-21.40625-29.78125-35.390625-52.964844-35.488281h-8.828125c-21.054687.03125-40.101562 12.496094-48.550781 31.78125-.710937 1.671875-1.328125 3.378906-1.855469 5.117188-1.707031 5.214843-2.570312 10.667968-2.558594 16.15625v.085937l-71.503906-49.699219h-.089844c-86.828124-58.621094-125.1875-167.074218-94.527343-267.25 30.660156-100.175781 123.148437-168.582031 227.914062-168.566406 211.859375 0 265.886719 176.550781 264.828125 256zm0 0" fill="#f0c419"/><path d="m326.53125 175.933594c0 24.375-19.761719 44.136718-44.140625 44.136718-24.375 0-44.136719-19.761718-44.136719-44.136718l10.0625-7.0625 26.484375-18.714844 22.421875-15.800781h.085938c17.558594 6.28125 29.261718 22.933593 29.222656 41.578125zm0 0" fill="#fff"/><path d="m126.230469 134.339844h.089843l58.96875 41.578125c-.019531 22.414062-16.835937 41.253906-39.101562 43.8125-22.269531 2.554687-42.917969-11.980469-48.015625-33.808594-5.101563-21.824219 6.964844-44.007813 28.058594-51.582031zm0 0" fill="#fff"/><path d="m384.527344 432.992188c-3.707032 2.648437-7.59375 5.210937-11.476563 7.679687-13.992187-13.128906-14.96875-35.019531-2.207031-49.34375 27.21875-30.367187 44.632812-68.246094 49.957031-108.675781 1.246094-9.636719 9.449219-16.847656 19.164063-16.855469-2.207032 46.519531-20.382813 90.851563-51.464844 125.53125-10.289062 11.527344-11.898438 28.402344-3.972656 41.664063zm0 0" fill="#f29c1f"/><path d="m189.703125 464.15625c-8.433594-19.296875-27.496094-31.761719-48.554687-31.753906h-8.824219c-29.273438.046875-52.972657 23.792968-52.96875 53.066406v8.84375c.019531 9.746094 7.910156 17.648438 17.65625 17.6875h150.070312zm0 0" fill="#2c3e50"/><path d="m370.667969 442.171875v52.171875c-.027344 9.738281-7.917969 17.628906-17.65625 17.65625h-150.070313c-9.738281-.027344-17.625-7.917969-17.652344-17.65625v-8.914062c-.011718-5.488282.851563-10.941407 2.558594-16.15625.527344-1.738282 1.144532-3.445313 1.855469-5.117188 8.449219-19.285156 27.496094-31.75 48.550781-31.78125h8.828125c23.183594.097656 44.054688 14.082031 52.964844 35.488281l.617187 2.734375c24.707032-5.660156 48.34375-15.257812 70.003907-28.425781zm0 0" fill="#35495e"/><path d="m370.667969 442.171875v17.65625c-16.492188 10.023437-34.148438 17.992187-52.574219 23.726563-4.101562 1.242187-8.542969.464843-11.976562-2.089844-3.4375-2.554688-5.460938-6.585938-5.453126-10.867188 24.707032-5.660156 48.34375-15.257812 70.003907-28.425781zm0 0" fill="#2c3e50"/><path d="m158.753906 176.550781c0-14.625-11.832031-26.480469-26.429687-26.480469-14.601563 0-26.433594 11.855469-26.433594 26.480469 0 14.628907 11.832031 26.484375 26.433594 26.484375 14.597656 0 26.429687-11.855468 26.429687-26.484375zm0 0" fill="#35495e"/><path d="m101.449219 79.523438c7.785156-6.308594 17.257812-10.183594 27.230469-11.148438 10.203124-1.183594 20.535156.292969 30 4.285156 9.296874 3.976563 17.613281 9.945313 24.355468 17.480469 3.234375 3.648437 6.160156 7.558594 8.75 11.6875 2.300782 4.199219 4.339844 8.539063 6.105469 12.992187.558594 1.410157.085937 3.019532-1.144531 3.90625-1.230469.890626-2.90625.828126-4.070313-.144531l-.316406-.265625c-3.539063-2.972656-6.585937-6.152344-9.695313-9.183594-3.410156-2.707031-6.386718-5.789062-9.753906-8.246093-6.359375-5.019531-13.332031-9.210938-20.746094-12.472657-7.410156-2.960937-15.210937-4.832031-23.15625-5.550781-8.519531-.714843-17.089843-.527343-25.570312.554688l-.304688.039062c-.980468.109375-1.914062-.433593-2.304687-1.339843-.386719-.90625-.136719-1.960938.617187-2.59375zm0 0" fill="#e57e25"/><path d="m185.289062 255.984375h52.964844c19.5 0 35.308594 15.808594 35.308594 35.308594v26.667969c0 19.5-15.808594 35.308593-35.308594 35.308593h-52.964844c-19.503906 0-35.3125-15.808593-35.3125-35.308593v-26.667969c0-19.5 15.808594-35.308594 35.3125-35.308594zm0 0" fill="#802d40"/><path d="m299.957031 176.550781c0 14.578125-11.816406 26.394531-26.394531 26.394531-14.574219 0-26.394531-11.816406-26.394531-26.394531-.027344-2.605469.359375-5.195312 1.148437-7.679687l26.484375-18.714844c14.101563.636719 25.199219 12.277344 25.15625 26.394531zm0 0" fill="#35495e"/><path d="m320.171875 83.8125c-8.46875-1.152344-17.035156-1.40625-25.558594-.761719-7.953125.65625-15.769531 2.460938-23.203125 5.363281-7.441406 3.203126-14.445312 7.339844-20.847656 12.308594-3.386719 2.433594-6.386719 5.488282-9.816406 8.171875-3.136719 3-6.210938 6.152344-9.769532 9.097657l-.316406.261718c-1.167968.964844-2.84375 1.015625-4.070312.117188-1.222656-.894532-1.683594-2.507813-1.117188-3.914063 1.800782-4.4375 3.875-8.761719 6.210938-12.941406 2.621094-4.109375 5.578125-7.996094 8.839844-11.617187 6.804687-7.484376 15.164062-13.382813 24.496093-17.285157 9.492188-3.917969 19.839844-5.3125 30.03125-4.046875 9.964844 1.042969 19.40625 4.996094 27.140625 11.367188.75.636718.992188 1.6875.601563 2.589844-.394531.902343-1.328125 1.441406-2.304688 1.332031zm0 0" fill="#e57e25"/><path d="m273.5625 300.226562v17.742188c.003906 9.367188-3.714844 18.347656-10.339844 24.972656-6.621094 6.621094-15.601562 10.339844-24.96875 10.339844h-26.484375v-17.65625c-.019531-9.378906 3.691407-18.382812 10.316407-25.023438 6.621093-6.640624 15.617187-10.371093 24.996093-10.375zm0 0" fill="#df4d60"/><path d="m255.910156 300.226562v17.742188c0 9.367188-3.71875 18.347656-10.339844 24.972656-6.625 6.621094-15.605468 10.339844-24.972656 10.339844h-8.828125v-17.65625c-.019531-9.378906 3.691407-18.382812 10.316407-25.023438 6.621093-6.640624 15.617187-10.371093 24.996093-10.375zm0 0" fill="#ff5364"/><g fill="#fff"><path d="m158.804688 167.722656c0 4.875-3.953126 8.828125-8.828126 8.828125s-8.828124-3.953125-8.828124-8.828125 3.953124-8.824218 8.828124-8.824218 8.828126 3.949218 8.828126 8.824218zm0 0"/><path d="m300.046875 167.722656c0 4.875-3.953125 8.828125-8.828125 8.828125s-8.828125-3.953125-8.828125-8.828125 3.953125-8.824218 8.828125-8.824218 8.828125 3.949218 8.828125 8.824218zm0 0"/></g></svg>