<svg height="512pt" viewBox="0 0 512 512" width="512pt" xmlns="http://www.w3.org/2000/svg"><path d="m71.765625 399.800781c-3.265625 4.148438-6.710937 8.210938-10.242187 12.183594-13.039063 14.425781-35.289063 15.597656-49.773438 2.621094-14.484375-12.976563-15.75-35.222657-2.835938-49.761719 7.808594-8.746094 14.867188-18.136719 21.097657-28.070312zm0 0" fill="#f29c1f"/><path d="m247.082031 0c-104.765625-.015625-197.253906 68.390625-227.914062 168.566406-30.660157 100.175782 7.699219 208.628906 94.527343 267.25h.089844l71.503906 49.699219v8.828125c.027344 9.738281 7.914063 17.628906 17.652344 17.65625h150.070313c9.738281-.027344 17.628906-7.917969 17.65625-17.65625v-52.171875c.792969-.527344 1.589843-.96875 2.382812-1.5 3.882813-2.46875 7.769531-5.03125 11.476563-7.679687.011718.09375.039062.183593.085937.265624 1.09375 2.300782 2.660157 4.34375 4.59375 6.003907.617188.617187 1.324219 1.324219 2.027344 1.941406 1.304687 1.132813 2.691406 2.167969 4.148437 3.089844.710938.582031 1.480469 1.082031 2.296876 1.5.828124.464843 1.683593.878906 2.558593 1.234375.714844.347656 1.453125.644531 2.207031.882812 1.148438.441406 2.296876.796875 3.445313 1.148438 2.90625.777344 5.90625 1.164062 8.914063 1.148437 10.042968.015625 19.613281-4.257812 26.308593-11.742187 44.902344-50.246094 70.058594-115.078125 70.796875-182.464844 1.058594-79.449219-52.96875-256-264.828125-256zm0 0" fill="#f0c419"/><path d="m511.910156 256c-.738281 67.386719-25.894531 132.21875-70.796875 182.464844-6.695312 7.484375-16.265625 11.757812-26.308593 11.742187-3.007813.015625-6.007813-.371093-8.914063-1.148437-1.148437-.351563-2.296875-.707032-3.445313-1.148438-.753906-.238281-1.492187-.535156-2.207031-.882812-.875-.355469-1.730469-.769532-2.558593-1.234375-.816407-.417969-1.585938-.917969-2.296876-1.5-1.457031-.921875-2.84375-1.957031-4.148437-3.089844-.703125-.617187-1.410156-1.324219-2.027344-1.941406-1.933593-1.660157-3.5-3.703125-4.59375-6.003907-.046875-.082031-.074219-.171874-.085937-.265624-3.707032 2.648437-7.59375 5.210937-11.476563 7.679687-.792969.53125-1.589843.972656-2.382812 1.5-21.660157 13.167969-45.296875 22.765625-70.003907 28.425781h-.265624l-.351563-2.734375c-8.910156-21.40625-29.78125-35.390625-52.964844-35.488281h-8.828125c-21.054687.03125-40.101562 12.496094-48.550781 31.78125-.710937 1.671875-1.328125 3.378906-1.855469 5.117188-1.707031 5.214843-2.570312 10.667968-2.558594 16.15625v.085937l-71.503906-49.699219h-.089844c-86.828124-58.621094-125.1875-167.074218-94.527343-267.25 30.660156-100.175781 123.148437-168.582031 227.914062-168.566406 211.859375 0 265.886719 176.550781 264.828125 256zm0 0" fill="#f0c419"/><path d="m384.527344 432.992188c-3.707032 2.648437-7.59375 5.210937-11.476563 7.679687-13.992187-13.128906-14.96875-35.019531-2.207031-49.34375 27.21875-30.367187 44.632812-68.246094 49.957031-108.675781 1.246094-9.636719 9.449219-16.847656 19.164063-16.855469-2.207032 46.519531-20.382813 90.851563-51.464844 125.53125-10.289062 11.527344-11.898438 28.402344-3.972656 41.664063zm0 0" fill="#f29c1f"/><path d="m189.703125 464.15625c-8.433594-19.296875-27.496094-31.761719-48.554687-31.753906h-8.824219c-29.273438.046875-52.972657 23.792968-52.96875 53.066406v8.84375c.019531 9.746094 7.910156 17.648438 17.65625 17.6875h150.070312zm0 0" fill="#2c3e50"/><path d="m370.667969 442.171875v52.171875c-.027344 9.738281-7.917969 17.628906-17.65625 17.65625h-150.070313c-9.738281-.027344-17.625-7.917969-17.652344-17.65625v-8.914062c-.011718-5.488282.851563-10.941407 2.558594-16.15625.527344-1.738282 1.144532-3.445313 1.855469-5.117188 8.449219-19.285156 27.496094-31.75 48.550781-31.78125h8.828125c23.183594.097656 44.054688 14.082031 52.964844 35.488281l.617187 2.734375c24.707032-5.660156 48.34375-15.257812 70.003907-28.425781zm0 0" fill="#35495e"/><path d="m384.613281 433.257812c1.347657 2.136719 2.882813 4.144532 4.59375 6.003907-1.933593-1.660157-3.5-3.703125-4.59375-6.003907zm0 0" fill="#f0c419"/><path d="m370.667969 442.171875v17.65625c-16.492188 10.023437-34.148438 17.992187-52.574219 23.726563-4.101562 1.242187-8.542969.464843-11.976562-2.089844-3.4375-2.554688-5.460938-6.585938-5.453126-10.867188 24.707032-5.660156 48.34375-15.257812 70.003907-28.425781zm0 0" fill="#2c3e50"/><path d="m98.914062 85.101562c12.367188 12.199219 27.195313 21.625 43.492188 27.644532 7.792969 2.425781 16.003906 3.238281 24.125 2.386718 4.285156-.347656 8.542969-.988281 12.742188-1.914062 4.324218-.90625 8.546874-2.488281 13.21875-3.386719l.582031-.113281c1.484375-.285156 2.972656.480469 3.601562 1.851562.632813 1.375.246094 3-.9375 3.941407-3.839843 3.21875-7.945312 6.101562-12.277343 8.617187-4.542969 2.449219-9.378907 4.316406-14.386719 5.550782-10.371094 2.824218-21.335938 2.613281-31.585938-.609376-20.09375-6.195312-35.90625-21.792968-42.375-41.796874-.28125-.957032.105469-1.984376.945313-2.523438s1.933594-.457031 2.683594.199219zm0 0" fill="#e57e25"/><path d="m328.429688 87.273438c-6.46875 20.003906-22.28125 35.601562-42.371094 41.796874-10.253906 3.226563-21.21875 3.4375-31.585938.609376-5.011718-1.234376-9.847656-3.101563-14.390625-5.550782-4.332031-2.515625-8.4375-5.398437-12.277343-8.617187-1.179688-.941407-1.566407-2.566407-.9375-3.9375.628906-1.375 2.113281-2.140625 3.597656-1.855469l.585937.113281c4.675781.898438 8.894531 2.480469 13.21875 3.386719 4.199219.929688 8.457031 1.566406 12.746094 1.914062 8.117187.851563 16.328125.039063 24.125-2.382812 16.292969-6.023438 31.121094-15.449219 43.492187-27.648438l.160157-.140624c.925781-.820313 2.34375-.734376 3.167969.195312.503906.578125.683593 1.378906.46875 2.117188zm0 0" fill="#e57e25"/><path d="m141.148438 203.015625c-18.703126-.34375-36.632813-7.546875-50.378907-20.238281-3.453125-3.445313-3.460937-9.03125-.019531-12.484375 3.445312-3.453125 9.035156-3.464844 12.488281-.019531 10.449219 9.359374 23.886719 14.707031 37.910157 15.089843 14.035156-.300781 27.492187-5.652343 37.898437-15.070312 2.21875-2.285157 5.496094-3.199219 8.578125-2.390625s5.488281 3.214844 6.296875 6.296875-.105469 6.359375-2.394531 8.578125c-13.742188 12.691406-31.671875 19.894531-50.378906 20.238281zm0 0" fill="#f29c1f"/><path d="m282.390625 203.015625c-18.707031-.34375-36.632813-7.546875-50.378906-20.238281-3.453125-3.445313-3.460938-9.03125-.019531-12.484375 3.441406-3.453125 9.03125-3.464844 12.484374-.019531 10.453126 9.359374 23.886719 14.707031 37.914063 15.089843 14.035156-.300781 27.492187-5.652343 37.898437-15.070312 2.21875-2.285157 5.496094-3.199219 8.578126-2.390625 3.082031.808594 5.488281 3.214844 6.296874 6.296875.808594 3.082031-.105468 6.359375-2.394531 8.578125-13.742187 12.691406-31.671875 19.894531-50.378906 20.238281zm0 0" fill="#f29c1f"/><path d="m238.253906 353.085938h44.136719c4.871094-.011719 8.8125-3.957032 8.828125-8.828126v-8.828124c0-43.875-35.570312-79.445313-79.449219-79.445313-43.875 0-79.445312 35.570313-79.445312 79.445313v8.828124c.011719 4.871094 3.957031 8.816407 8.824219 8.828126zm0 0" fill="#802d40"/><path d="m291.21875 335.449219v8.828125c-.015625 4.867187-3.957031 8.8125-8.828125 8.824218h-44.136719v8.828126c.003906 9.367187-3.71875 18.351562-10.339844 24.972656-6.621093 6.621094-15.605468 10.339844-24.972656 10.339844-2.980468.027343-5.949218-.359376-8.824218-1.148438-6.097657-1.59375-11.667969-4.757812-16.15625-9.179688-6.601563-6.640624-10.3125-15.621093-10.328126-24.984374v-17.652344c.007813-24.375 19.765626-44.128906 44.136719-44.140625h71.152344c5.464844 10.96875 8.304687 23.058593 8.296875 35.3125zm0 0" fill="#df4d60"/><path d="m273.5625 335.449219v8.828125c-.011719 4.867187-3.957031 8.8125-8.828125 8.824218h-44.136719v8.828126c.015625 16.101562-10.886718 30.164062-26.480468 34.164062-6.097657-1.59375-11.667969-4.757812-16.15625-9.179688-6.601563-6.640624-10.3125-15.621093-10.328126-24.984374v-17.652344c.007813-24.375 19.765626-44.128906 44.136719-44.140625h53.496094c5.464844 10.96875 8.304687 23.058593 8.296875 35.3125zm0 0" fill="#ff5364"/></svg>