<svg height="512pt" viewBox="0 0 512 512" width="512pt" xmlns="http://www.w3.org/2000/svg"><path d="m71.765625 399.800781c-3.265625 4.148438-6.710937 8.210938-10.242187 12.183594-13.039063 14.425781-35.289063 15.597656-49.773438 2.621094-14.484375-12.976563-15.75-35.222657-2.835938-49.761719 7.808594-8.746094 14.867188-18.136719 21.097657-28.070312zm0 0" fill="#f29c1f"/><path d="m247.082031 0c-104.765625-.015625-197.253906 68.390625-227.914062 168.566406-30.660157 100.175782 7.699219 208.628906 94.527343 267.25h.089844l71.503906 49.699219v8.828125c.027344 9.738281 7.914063 17.628906 17.652344 17.65625h150.070313c9.738281-.027344 17.628906-7.917969 17.65625-17.65625v-52.171875c.792969-.527344 1.589843-.96875 2.382812-1.5 3.882813-2.46875 7.769531-5.03125 11.476563-7.679687.011718.09375.039062.183593.085937.265624 1.09375 2.300782 2.660157 4.34375 4.59375 6.003907.617188.617187 1.324219 1.324219 2.027344 1.941406 1.304687 1.132813 2.691406 2.167969 4.148437 3.089844.710938.582031 1.480469 1.082031 2.296876 1.5.828124.464843 1.683593.878906 2.558593 1.234375.714844.347656 1.453125.644531 2.207031.882812 1.148438.441406 2.296876.796875 3.445313 1.148438 2.90625.777344 5.90625 1.164062 8.914063 1.148437 10.042968.015625 19.613281-4.257812 26.308593-11.742187 44.902344-50.246094 70.058594-115.078125 70.796875-182.464844 1.058594-79.449219-52.96875-256-264.828125-256zm0 0" fill="#f0c419"/><path d="m511.910156 256c-.738281 67.386719-25.894531 132.21875-70.796875 182.464844-6.695312 7.484375-16.265625 11.757812-26.308593 11.742187-3.007813.015625-6.007813-.371093-8.914063-1.148437-1.148437-.351563-2.296875-.707032-3.445313-1.148438-.753906-.238281-1.492187-.535156-2.207031-.882812-.875-.355469-1.730469-.769532-2.558593-1.234375-.816407-.417969-1.585938-.917969-2.296876-1.5-1.457031-.921875-2.84375-1.957031-4.148437-3.089844-.703125-.617187-1.410156-1.324219-2.027344-1.941406-1.933593-1.660157-3.5-3.703125-4.59375-6.003907-.046875-.082031-.074219-.171874-.085937-.265624-3.707032 2.648437-7.59375 5.210937-11.476563 7.679687-.792969.53125-1.589843.972656-2.382812 1.5-21.660157 13.167969-45.296875 22.765625-70.003907 28.425781h-.265624l-.351563-2.734375c-8.910156-21.40625-29.78125-35.390625-52.964844-35.488281h-8.828125c-21.054687.03125-40.101562 12.496094-48.550781 31.78125-.710937 1.671875-1.328125 3.378906-1.855469 5.117188-1.707031 5.214843-2.570312 10.667968-2.558594 16.15625v.085937l-71.503906-49.699219h-.089844c-86.828124-58.621094-125.1875-167.074218-94.527343-267.25 30.660156-100.175781 123.148437-168.582031 227.914062-168.566406 211.859375 0 265.886719 176.550781 264.828125 256zm0 0" fill="#f0c419"/><path d="m384.527344 432.992188c-3.707032 2.648437-7.59375 5.210937-11.476563 7.679687-13.992187-13.128906-14.96875-35.019531-2.207031-49.34375 27.21875-30.367187 44.632812-68.246094 49.957031-108.675781 1.246094-9.636719 9.449219-16.847656 19.164063-16.855469-2.207032 46.519531-20.382813 90.851563-51.464844 125.53125-10.289062 11.527344-11.898438 28.402344-3.972656 41.664063zm0 0" fill="#f29c1f"/><path d="m189.703125 464.15625c-8.433594-19.296875-27.496094-31.761719-48.554687-31.753906h-8.824219c-29.273438.046875-52.972657 23.792968-52.96875 53.066406v8.84375c.019531 9.746094 7.910156 17.648438 17.65625 17.6875h150.070312zm0 0" fill="#2c3e50"/><path d="m370.667969 442.171875v52.171875c-.027344 9.738281-7.917969 17.628906-17.65625 17.65625h-150.070313c-9.738281-.027344-17.625-7.917969-17.652344-17.65625v-8.914062c-.011718-5.488282.851563-10.941407 2.558594-16.15625.527344-1.738282 1.144532-3.445313 1.855469-5.117188 8.449219-19.285156 27.496094-31.75 48.550781-31.78125h8.828125c23.183594.097656 44.054688 14.082031 52.964844 35.488281l.617187 2.734375c24.707032-5.660156 48.34375-15.257812 70.003907-28.425781zm0 0" fill="#35495e"/><path d="m384.613281 433.257812c1.347657 2.136719 2.882813 4.144532 4.59375 6.003907-1.933593-1.660157-3.5-3.703125-4.59375-6.003907zm0 0" fill="#f0c419"/><path d="m370.667969 442.171875v17.65625c-16.492188 10.023437-34.148438 17.992187-52.574219 23.726563-4.101562 1.242187-8.542969.464843-11.976562-2.089844-3.4375-2.554688-5.460938-6.585938-5.453126-10.867188 24.707032-5.660156 48.34375-15.257812 70.003907-28.425781zm0 0" fill="#2c3e50"/><path d="m185.289062 176.636719c0-24.425781-19.761718-44.222657-44.140624-44.222657-24.375 0-44.136719 19.796876-44.136719 44.222657 0 24.421875 19.761719 44.21875 44.136719 44.21875 24.378906 0 44.140624-19.796875 44.140624-44.21875zm0 0" fill="#fff"/><path d="m176.410156 167.722656c0-14.625-11.835937-26.480468-26.433594-26.480468-14.597656 0-26.429687 11.855468-26.429687 26.480468 0 14.628906 11.832031 26.484375 26.429687 26.484375 14.597657 0 26.433594-11.855469 26.433594-26.484375zm0 0" fill="#2c3e50"/><path d="m88.765625 87.742188c15.664063 1.804687 31.484375 1.839843 47.15625.109374 7.710937-.984374 15.394531-2.375 23.199219-4.074218l11.789062-2.742188c3.960938-1 7.914063-2.144531 12.164063-2.863281l.289062-.046875c1.488281-.253906 2.960938.523438 3.59375 1.890625.636719 1.367187.277344 2.992187-.875 3.964844-3.363281 2.832031-6.910156 5.441406-10.609375 7.8125-3.785156 2.265625-7.71875 4.277343-11.773437 6.023437-8.222657 3.53125-16.90625 5.875-25.789063 6.964844-8.992187 1.121094-18.113281.695312-26.960937-1.257812-9.007813-1.796876-17.386719-5.917969-24.304688-11.953126-.714843-.65625-.921875-1.699218-.515625-2.578124.402344-.882813 1.328125-1.402344 2.292969-1.292969zm0 0" fill="#e57e25"/><path d="m333.648438 98.472656c-7.140626-4.269531-14.695313-7.804687-22.550782-10.550781-7.386718-2.523437-15.066406-4.09375-22.851562-4.667969-7.921875-.304687-15.855469.285156-23.648438 1.753906-4.027344.613282-7.996094 1.902344-12.167968 2.691407-4.066407 1.160156-8.140626 2.5-12.554688 3.417969l-.390625.082031c-1.480469.308593-2.984375-.421875-3.652344-1.777344-.671875-1.355469-.34375-2.992187.800781-3.984375 3.523438-3.050781 7.246094-5.875 11.132813-8.453125 4.085937-2.40625 8.363281-4.472656 12.785156-6.179687 9.152344-3.488282 18.933594-5.046876 28.71875-4.570313 9.933594.535156 19.585938 3.496094 28.113281 8.621094 8.472657 4.871093 15.320313 12.136719 19.683594 20.878906.421875.886719.21875 1.9375-.5 2.601563-.71875.667968-1.785156.785156-2.636718.300781zm0 0" fill="#e57e25"/><path d="m326.53125 176.640625c-.023438 21.074219-14.925781 39.199219-35.597656 43.292969-20.671875 4.097656-41.359375-6.980469-49.410156-26.457032-8.054688-19.476562-1.226563-41.925781 16.300781-53.625 17.527343-11.699218 40.882812-9.390624 55.777343 5.519532 8.292969 8.289062 12.945313 19.542968 12.929688 31.269531zm0 0" fill="#fff"/><path d="m317.667969 167.707031c-.011719 12.628907-8.941407 23.492188-21.328125 25.945313-12.390625 2.453125-24.785156-4.183594-29.609375-15.855469-4.828125-11.671875-.738281-25.125 9.765625-32.132813 10.503906-7.011718 24.5-5.628906 33.425781 3.304688 4.96875 4.96875 7.757813 11.710938 7.746094 18.738281zm0 0" fill="#2c3e50"/><path d="m273.5625 308.964844c-4.875 0-8.828125-3.953125-8.828125-8.828125v-8.828125c-.003906-4.871094-3.953125-8.820313-8.824219-8.824219h-105.933594c-4.875 0-8.828124-3.953125-8.828124-8.828125s3.953124-8.828125 8.828124-8.828125h105.933594c14.617188.015625 26.464844 11.863281 26.480469 26.480469v8.828125c0 4.875-3.953125 8.828125-8.828125 8.828125zm0 0" fill="#802d40"/><path d="m194.117188 317.792969h-8.828126c-4.875 0-8.828124-3.953125-8.828124-8.828125s3.953124-8.828125 8.828124-8.828125h8.828126c4.875 0 8.824218 3.953125 8.824218 8.828125s-3.949218 8.828125-8.824218 8.828125zm0 0" fill="#f29c1f"/><g fill="#fff"><path d="m141.148438 176.550781c0 4.875-3.949219 8.828125-8.824219 8.828125-4.878907 0-8.828125-3.953125-8.828125-8.828125s3.949218-8.828125 8.828125-8.828125c4.875 0 8.824219 3.953125 8.824219 8.828125zm0 0"/><path d="m282.390625 176.550781c0 4.875-3.953125 8.828125-8.828125 8.828125s-8.828125-3.953125-8.828125-8.828125 3.953125-8.828125 8.828125-8.828125 8.828125 3.953125 8.828125 8.828125zm0 0"/></g></svg>