<svg height="512pt" viewBox="0 0 512 512.01132" width="512pt" xmlns="http://www.w3.org/2000/svg"><path d="m71.769531 399.8125c-3.265625 4.148438-6.707031 8.210938-10.238281 12.183594-13.039062 14.425781-35.289062 15.597656-49.773438 2.621094-14.484374-12.976563-15.753906-35.222657-2.839843-49.761719 7.8125-8.746094 14.867187-18.136719 21.097656-28.070313zm0 0" fill="#f29c1f"/><path d="m247.085938.0117188c-104.761719-.01562505-197.25 68.3906252-227.910157 168.5664062-30.660156 100.175781 7.699219 208.628906 94.527344 267.25h.085937l71.503907 49.699219v8.828125c.027343 9.738281 7.917969 17.628906 17.65625 17.65625h150.070312c9.738281-.027344 17.625-7.917969 17.652344-17.65625v-52.171875c.796875-.527344 1.589844-.96875 2.382813-1.5 3.886718-2.472656 7.769531-5.03125 11.476562-7.679688.011719.09375.042969.183594.089844.265625 1.09375 2.300781 2.65625 4.34375 4.589844 6.003907.617187.617187 1.324218 1.324218 2.03125 1.941406 1.300781 1.132812 2.6875 2.167968 4.148437 3.089844.707031.578124 1.476563 1.082031 2.292969 1.5.828125.464843 1.683594.878906 2.5625 1.234374.710937.347657 1.449218.644532 2.207031.882813 1.148437.441406 2.292969.796875 3.441406 1.148437 2.910157.777344 5.90625 1.164063 8.917969 1.148438 10.039062.015625 19.609375-4.257812 26.304688-11.742188 44.90625-50.246093 70.058593-115.078124 70.796874-182.464843 1.058594-79.449219-52.964843-256.0000002-264.828124-256.0000002zm0 0" fill="#f0c419"/><path d="m511.914062 256.011719c-.738281 67.386719-25.890624 132.21875-70.796874 182.464843-6.695313 7.484376-16.265626 11.757813-26.304688 11.742188-3.011719.015625-6.007812-.371094-8.917969-1.148438-1.148437-.351562-2.292969-.707031-3.441406-1.148437-.757813-.238281-1.496094-.535156-2.207031-.882813-.878906-.355468-1.734375-.769531-2.5625-1.234374-.816406-.417969-1.585938-.921876-2.292969-1.5-1.460937-.921876-2.847656-1.957032-4.148437-3.089844-.707032-.617188-1.414063-1.324219-2.03125-1.941406-1.933594-1.660157-3.496094-3.703126-4.589844-6.003907-.046875-.082031-.078125-.171875-.089844-.265625-3.707031 2.648438-7.589844 5.207032-11.476562 7.679688-.792969.53125-1.585938.972656-2.382813 1.5-21.65625 13.167968-45.292969 22.765625-70 28.425781h-.265625l-.355469-2.734375c-8.910156-21.40625-29.777343-35.390625-52.964843-35.488281h-8.828126c-21.050781.03125-40.097656 12.496093-48.550781 31.777343-.710937 1.671876-1.328125 3.382813-1.851562 5.121094-1.707031 5.214844-2.574219 10.667969-2.5625 16.15625v.085938l-71.503907-49.699219h-.085937c-86.828125-58.621094-125.1875-167.074219-94.527344-267.25 30.660157-100.175781 123.148438-168.58203125 227.910157-168.5664062 211.863281 0 265.886718 176.5507812 264.828124 256.0000002zm0 0" fill="#f0c419"/><path d="m141.15625 150.085938c-5.683594.257812-11.324219 1.125-16.824219 2.582031-5.542969 1.46875-10.859375 3.683593-15.800781 6.589843-2.460938 1.515626-4.800781 3.21875-7.003906 5.09375-3.226563 2.917969-7.082032 5.054688-11.269532 6.242188-4.445312 1.195312-9.171874.78125-13.347656-1.171875-3.703125-1.828125-6.773437-4.730469-8.804687-8.328125-.695313-1.238281-.523438-2.78125.429687-3.835938.949219-1.058593 2.46875-1.386718 3.773438-.820312l.664062.289062c4.101563 2.351563 8.996094 2.882813 13.503906 1.472657 2.023438-.945313 3.816407-2.320313 5.253907-4.03125 2.496093-2.695313 5.195312-5.199219 8.070312-7.484375 5.925781-4.4375 12.523438-7.898438 19.546875-10.246094 7.023438-2.429688 14.378906-3.78125 21.808594-4.011719 4.769531-.003906 8.679688 3.785157 8.828125 8.550781.148437 4.769532-3.519531 8.792969-8.28125 9.085938h-.003906zm0 0" fill="#2c3e50"/><path d="m282.398438 132.425781c7.453124.035157 14.851562 1.285157 21.90625 3.695313 7.089843 2.277344 13.730468 5.757812 19.636718 10.292968 2.882813 2.304688 5.585938 4.828126 8.085938 7.542969 1.441406 1.664063 3.164062 3.058594 5.085937 4.128907 4.550781 1.914062 9.738281 1.59375 14.019531-.871094l.449219-.199219c1.007813-.453125 2.195313-.210937 2.949219.597656.75.8125.902344 2.015625.371094 2.988281-1.898438 3.582032-4.820313 6.519532-8.390625 8.4375-4.082031 2.101563-8.773438 2.691407-13.25 1.660157-4.261719-1.0625-8.195313-3.175781-11.433594-6.144531-2.195313-1.859376-4.53125-3.542969-6.984375-5.039063-4.957031-2.800781-10.234375-4.996094-15.714844-6.542969-5.480468-1.460937-11.078125-2.429687-16.730468-2.890625l-.65625-.042969c-4.757813-.316406-8.40625-4.359374-8.230469-9.125.179687-4.765624 4.113281-8.527343 8.886719-8.488281zm0 0" fill="#2c3e50"/><path d="m384.53125 433.003906c-3.707031 2.648438-7.589844 5.207032-11.476562 7.679688-13.988282-13.128906-14.96875-35.019532-2.207032-49.34375 27.21875-30.367188 44.632813-68.246094 49.957032-108.675782 1.246093-9.636718 9.449218-16.847656 19.164062-16.855468-2.203125 46.519531-20.382812 90.851562-51.464844 125.53125-10.285156 11.527344-11.894531 28.398437-3.972656 41.664062zm0 0" fill="#f29c1f"/><path d="m189.707031 464.164062c-8.433593-19.292968-27.496093-31.757812-48.550781-31.753906h-8.828125c-29.269531.050782-52.972656 23.796875-52.964844 53.066406v8.847657c.019531 9.746093 7.90625 17.648437 17.65625 17.6875h150.066407zm0 0" fill="#2c3e50"/><path d="m370.671875 442.183594v52.171875c-.027344 9.738281-7.914063 17.628906-17.652344 17.65625h-150.070312c-9.738281-.027344-17.628907-7.917969-17.65625-17.65625v-8.914063c-.011719-5.488281.855469-10.941406 2.5625-16.15625.523437-1.738281 1.140625-3.449218 1.851562-5.121094 8.453125-19.28125 27.5-31.746093 48.550781-31.777343h8.828126c23.1875.097656 44.054687 14.082031 52.964843 35.488281l.621094 2.734375c24.707031-5.660156 48.34375-15.257813 70-28.425781zm0 0" fill="#35495e"/><path d="m384.621094 433.269531c1.34375 2.136719 2.882812 4.144531 4.589844 6.003907-1.933594-1.660157-3.496094-3.703126-4.589844-6.003907zm0 0" fill="#f0c419"/><path d="m370.671875 442.183594v17.65625c-16.492187 10.023437-34.148437 17.992187-52.574219 23.726562-4.097656 1.238282-8.539062.464844-11.976562-2.089844-3.433594-2.554687-5.457032-6.585937-5.449219-10.867187 24.707031-5.660156 48.34375-15.257813 70-28.425781zm0 0" fill="#2c3e50"/><path d="m445.089844 80.054688 57.984375-5.863282c2.785156-.277344 5.511719.925782 7.183593 3.167969 1.675782 2.242187 2.054688 5.195313 1.003907 7.789063l-23.21875 51.847656c-1.164063 2.378906-3.480469 3.988281-6.121094 4.238281-2.636719.253906-5.21875-.878906-6.816406-2.996094l-36.148438-44.5-56.378906-26.960937-56.21875.335937c-2.671875.019531-5.175781-1.292969-6.671875-3.503906-1.5-2.207031-1.796875-5.019531-.789062-7.492187l23.214843-51.847657c1.234375-2.496093 3.722657-4.125 6.5-4.2617185 2.78125-.1328125 5.414063 1.2499995 6.882813 3.6132815l33.210937 49.472656zm0 0" fill="#955ba5"/><path d="m169.933594 210.109375c13.996094-12.035156 19.023437-31.507813 12.605468-48.8125-6.417968-17.308594-22.925781-28.792969-41.382812-28.792969s-34.96875 11.484375-41.382812 28.792969c-6.417969 17.304687-1.390626 36.777344 12.605468 48.8125zm0 0" fill="#fff"/><path d="m158.777344 176.546875c0-14.636719-11.839844-26.5-26.449219-26.5s-26.449219 11.863281-26.449219 26.5c0 14.632813 11.839844 26.5 26.449219 26.5s26.449219-11.867187 26.449219-26.5zm0 0" fill="#35495e"/><path d="m86.289062 113.683594c6.46875-20.003906 22.28125-35.601563 42.371094-41.796875 10.253906-3.222657 21.21875-3.433594 31.585938-.609375 5.011718 1.238281 9.847656 3.101562 14.390625 5.550781 4.332031 2.515625 8.4375 5.398437 12.277343 8.621094 1.179688.9375 1.570313 2.5625.9375 3.9375-.628906 1.371093-2.113281 2.136719-3.597656 1.855469l-.585937-.113282c-4.671875-.902344-8.890625-2.484375-13.21875-3.390625-4.199219-.925781-8.457031-1.566406-12.742188-1.914062-8.121093-.851563-16.332031-.039063-24.128906 2.386719-16.292969 6.023437-31.121094 15.445312-43.488281 27.644531l-.160156.140625c-.929688.820312-2.347657.734375-3.171876-.191406-.503906-.582032-.679687-1.378907-.46875-2.121094zm0 0" fill="#e57e25"/><path d="m333.460938 115.855469c-12.371094-12.195313-27.195313-21.621094-43.488282-27.644531-7.796875-2.425782-16.007812-3.234376-24.128906-2.382813-4.285156.347656-8.542969.984375-12.742188 1.910156-4.324218.90625-8.546874 2.488281-13.21875 3.390625l-.582031.109375c-1.484375.289063-2.972656-.476562-3.601562-1.851562-.632813-1.371094-.246094-2.996094.9375-3.9375 3.835937-3.21875 7.945312-6.105469 12.277343-8.621094 4.542969-2.449219 9.375-4.3125 14.386719-5.546875 10.371094-2.828125 21.335938-2.617188 31.585938.605469 20.09375 6.195312 35.902343 21.792969 42.375 41.796875.28125.957031-.105469 1.988281-.945313 2.523437-.839844.539063-1.933594.457031-2.6875-.199219zm0 0" fill="#e57e25"/><path d="m311.175781 210.109375c.886719-.664063 1.710938-1.402344 2.472657-2.207031 17.203124-17.25 17.179687-45.175782-.054688-62.394532s-45.160156-17.21875-62.394531 0-17.257813 45.144532-.050781 62.394532c.757812.804687 1.585937 1.542968 2.472656 2.207031zm0 0" fill="#fff"/><path d="m300.019531 176.546875c-.011719 12.628906-8.941406 23.488281-21.332031 25.945313-12.386719 2.453124-24.78125-4.1875-29.609375-15.855469-4.824219-11.671875-.734375-25.125 9.769531-32.136719 10.503906-7.007812 24.496094-5.625 33.425782 3.308594 4.96875 4.96875 7.753906 11.710937 7.746093 18.738281zm0 0" fill="#35495e"/><path d="m185.292969 229.527344c-2.339844.003906-4.585938-.925782-6.242188-2.585938-10.449219-9.347656-23.878906-14.6875-37.894531-15.066406-14.035156.296875-27.488281 5.648438-37.898438 15.066406-3.460937 3.347656-8.96875 3.296875-12.375-.105468-3.402343-3.40625-3.453124-8.914063-.105468-12.375 13.742187-12.695313 31.671875-19.898438 50.378906-20.242188 18.707031.34375 36.632812 7.546875 50.378906 20.242188 2.523438 2.523437 3.277344 6.320312 1.914063 9.617187-1.367188 3.300781-4.585938 5.449219-8.15625 5.449219zm0 0" fill="#f29c1f"/><path d="m326.535156 229.527344c-2.34375.003906-4.589844-.925782-6.242187-2.585938-10.449219-9.347656-23.878907-14.6875-37.894531-15.066406-14.035157.296875-27.492188 5.648438-37.898438 15.066406-3.464844 3.347656-8.96875 3.296875-12.375-.105468-3.40625-3.40625-3.453125-8.914063-.105469-12.375 28.164063-26.988282 72.59375-26.988282 100.757813 0 2.523437 2.523437 3.277344 6.320312 1.910156 9.617187-1.363281 3.300781-4.582031 5.449219-8.152344 5.449219zm0 0" fill="#f29c1f"/><path d="m417.765625 102.863281-28.1875-13.480469c-7.851563-3.902343-11.199219-13.324218-7.574219-21.304687l6.519532-14.566406c1.640624-3.824219 4.761718-6.816407 8.648437-8.292969s8.207031-1.308594 11.96875.464844l28.191406 13.480468c7.851563 3.90625 11.199219 13.324219 7.574219 21.304688l-6.519531 14.566406c-1.640625 3.824219-4.761719 6.816406-8.648438 8.292969s-8.210937 1.308594-11.972656-.464844zm0 0" fill="#894b9d"/><path d="m149.984375 158.90625c0 4.878906-3.953125 8.828125-8.828125 8.828125s-8.828125-3.949219-8.828125-8.828125c0-4.875 3.953125-8.824219 8.828125-8.824219s8.828125 3.949219 8.828125 8.824219zm0 0" fill="#fff"/><path d="m291.226562 158.90625c0 4.878906-3.953124 8.828125-8.828124 8.828125s-8.828126-3.949219-8.828126-8.828125c0-4.875 3.953126-8.824219 8.828126-8.824219s8.828124 3.949219 8.828124 8.824219zm0 0" fill="#fff"/><path d="m141.15625 264.839844h141.242188c4.875 0 8.828124 3.953125 8.828124 8.828125v8.824219c0 43.878906-35.570312 79.449218-79.449218 79.449218s-79.449219-35.570312-79.449219-79.449218v-8.824219c0-4.875 3.953125-8.828125 8.828125-8.828125zm0 0" fill="#802d40"/><path d="m289.28125 300.148438c-8.265625 36.152343-40.421875 61.789062-77.503906 61.792968-2.980469.003906-5.957032-.171875-8.917969-.527344 0 0 0 .085938-.085937 0-2.914063-.355468-5.828126-.796874-8.652344-1.414062v-15.710938c.007812-24.375 19.765625-44.132812 44.136718-44.140624zm0 0" fill="#df4d60"/><path d="m271.628906 300.148438c-7.535156 32.984374-35.136718 57.578124-68.769531 61.265624 0 0 0 .085938-.085937 0-2.914063-.355468-5.828126-.796874-8.652344-1.414062v-15.710938c.007812-24.375 19.765625-44.132812 44.136718-44.140624zm0 0" fill="#ff5364"/></svg>